<svg xmlns="http://www.w3.org/2000/svg">
<defs>
<font id="Calibri" horiz-adv-x="1076" >
  <font-face 
    font-family="Calibri"
    font-weight="400"
    font-stretch="normal"
    units-per-em="2048"
    panose-1="2 15 5 2 2 2 4 3 2 4"
    ascent="1536"
    descent="-512"
    x-height="951"
    cap-height="1294"
    bbox="-842.547 -391 2486 1950"
    underline-thickness="134"
    underline-position="-165"
    unicode-range="U+0020-U+FB04"
  />
<missing-glyph horiz-adv-x="1038" 
d="M978 1294v-1294h-934v1294h934zM891 81v1132h-762v-1132h762zM767 855c0 -39.333 -5.8291 -74.3301 -17.4961 -104.997s-28 -56.5 -49 -77.5s-45.833 -37.5 -74.5 -49.5s-60 -19 -94 -21l-5 -152c0 -6.66699 -5 -11.334 -15 -14.001s-23.667 -4 -41 -4
c-10 0 -18.333 0.333008 -25 1s-12.167 1.66699 -16.5 3s-7.5 3 -9.5 5s-3 5 -3 9l-5 184c-1.33301 20 2.66699 34 12 42s22 12 38 12h18c30 0 55 4.16699 75 12.5s36.167 19.5 48.5 33.5s21.166 30.833 26.499 50.5s8 40.5 8 62.5c0 48.667 -13.833 87.334 -41.5 116.001
s-71.834 43 -132.501 43c-24.667 0 -47 -2.5 -67 -7.5s-37.667 -10.667 -53 -17s-27.833 -12.166 -37.5 -17.499s-16.834 -8 -21.501 -8c-2 0 -4.16699 0.666992 -6.5 2s-4.5 3.83301 -6.5 7.5s-3.5 8.66699 -4.5 15s-1.5 14.833 -1.5 25.5
c0 11.333 0.833008 20.666 2.5 27.999s5.16699 13.666 10.5 18.999c4.66699 4.66699 13.667 10 27 16s29.166 11.833 47.499 17.5s38.5 10.5 60.5 14.5s44.333 6 67 6c50 0 93 -6.66699 129 -20s65.5 -31.333 88.5 -54s40.167 -49.334 51.5 -80.001s17 -63.334 17 -98.001z
M549.004 273.003c0 -14 -1.16699 -25.667 -3.5 -35s-6.33301 -17 -12 -23s-13.334 -10.333 -23.001 -13s-21.5 -4 -35.5 -4c-14.667 0 -26.834 1.33301 -36.501 4s-17.5 7 -23.5 13s-10.333 13.667 -13 23s-4 21 -4 35s1.33301 25.833 4 35.5s7 17.5 13 23.5
s13.833 10.333 23.5 13s21.834 4 36.501 4c14 0 25.833 -1.33301 35.5 -4s17.334 -7 23.001 -13s9.66699 -13.833 12 -23.5s3.5 -21.5 3.5 -35.5zM0.00390625 -396.997z" />
    <glyph glyph-name="uniFB00" unicode="ff" horiz-adv-x="1195" 
d="M1216 1296c0 -21.333 -1.66895 -36.6689 -5.00195 -46.002s-9.33301 -14 -18 -14c-5.33301 0 -11.5 1.33301 -18.5 4l-26 9.5c-10.333 3.66699 -22.166 7 -35.499 10s-28.666 4.5 -45.999 4.5c-49.333 0 -84.166 -17 -104.499 -51s-30.5 -88.333 -30.5 -163v-99h201
c5.33301 0 10 -1.16699 14 -3.5s7.5 -6.33301 10.5 -12s5.16699 -12.834 6.5 -21.501s2 -19.334 2 -32.001c0 -24 -2.83301 -41.333 -8.5 -52s-13.834 -16 -24.501 -16h-201v-789c0 -5.33301 -1.33301 -9.83301 -4 -13.5s-7.16699 -6.83398 -13.5 -9.50098
s-14.833 -4.66699 -25.5 -6s-24 -2 -40 -2s-29.333 0.666992 -40 2s-19.167 3.33301 -25.5 6s-10.833 5.83398 -13.5 9.50098s-4 8.16699 -4 13.5v789h-404v-789c0 -5.33301 -1.33301 -9.83301 -4 -13.5s-7.16699 -6.83398 -13.5 -9.50098s-14.833 -4.66699 -25.5 -6
s-24 -2 -40 -2s-29.333 0.666992 -40 2s-19.167 3.33301 -25.5 6s-10.833 5.83398 -13.5 9.50098s-4 8.16699 -4 13.5v789h-127c-10.667 0 -18.667 5.33301 -24 16s-8 28 -8 52c0 12.667 0.666992 23.334 2 32.001s3.33301 15.834 6 21.501s6 9.66699 10 12
s8.66699 3.5 14 3.5h127v85c0 62 6 115.167 18 159.5s30 80.833 54 109.5s53.833 49.834 89.5 63.501s77.167 20.5 124.5 20.5c29.333 0 55 -2.5 77 -7.5s40 -10.5 54 -16.5c6.66699 -2.66699 12 -6 16 -10s7.33301 -9.16699 10 -15.5s4.5 -14 5.5 -23
s1.5 -19.833 1.5 -32.5c0 -21.333 -1.66699 -36.833 -5 -46.5s-9.33301 -14.5 -18 -14.5c-5.33301 0 -11.5 1.5 -18.5 4.5s-15.833 6.33301 -26.5 10s-22.667 7 -36 10s-28.666 4.5 -45.999 4.5c-49.333 0 -84 -17 -104 -51s-30 -88.333 -30 -163v-87h404v97
c0 62 6.16699 115.167 18.5 159.5s30.5 80.833 54.5 109.5s53.833 49.834 89.5 63.501s77.167 20.5 124.5 20.5c28.667 0 54.167 -2.5 76.5 -7.5s40.5 -10.5 54.5 -16.5c6 -2.66699 11.167 -6 15.5 -10s7.66602 -9.16699 9.99902 -15.5s4 -14 5 -23s1.5 -19.833 1.5 -32.5z
" />
    <glyph glyph-name="uniFB01" unicode="fi" horiz-adv-x="1084" 
d="M950 1228c0 -18.667 -1.5 -34.334 -4.5 -47.001s-8.16699 -22.834 -15.5 -30.501s-17.5 -13.167 -30.5 -16.5s-29.5 -5 -49.5 -5c-19.333 0 -35.5 1.66699 -48.5 5s-23.333 8.83301 -31 16.5s-13.167 17.834 -16.5 30.501s-5 28.334 -5 47.001s1.66699 34.167 5 46.5
s8.83301 22.666 16.5 30.999s18 14 31 17s29.167 4.5 48.5 4.5c20 0 36.5 -1.5 49.5 -4.5s23.167 -8.66699 30.5 -17s12.5 -18.666 15.5 -30.999s4.5 -27.833 4.5 -46.5zM932 25c0 -5.33301 -1.33203 -9.83691 -3.99902 -13.5039s-7.16699 -6.83398 -13.5 -9.50098
s-14.833 -4.66699 -25.5 -6s-24 -2 -40 -2s-29.333 0.666992 -40 2s-19.167 3.33301 -25.5 6s-10.833 5.83398 -13.5 9.50098s-4 8.16699 -4 13.5v789h-404v-789c0 -5.33301 -1.33301 -9.83301 -4 -13.5s-7.16699 -6.83398 -13.5 -9.50098s-14.833 -4.66699 -25.5 -6
s-24 -2 -40 -2s-29.333 0.666992 -40 2s-19.167 3.33301 -25.5 6s-10.833 5.83398 -13.5 9.50098s-4 8.16699 -4 13.5v789h-127c-10.667 0 -18.667 5.33301 -24 16s-8 28 -8 52c0 12.667 0.666992 23.334 2 32.001s3.33301 15.834 6 21.501s6 9.66699 10 12
s8.66699 3.5 14 3.5h127v97c0 62 6 115.167 18 159.5s29.833 80.833 53.5 109.5s53 49.834 88 63.501s75.167 20.5 120.5 20.5c14.667 0 29.334 -0.666992 44.001 -2s28 -3.33301 40 -6s22.5 -5.5 31.5 -8.5s15.167 -6.16699 18.5 -9.5s6 -6.83301 8 -10.5
s3.66699 -8.16699 5 -13.5s2.33301 -12 3 -20s1 -17.667 1 -29c0 -21.333 -1.66699 -36.666 -5 -45.999s-9 -14 -17 -14c-5.33301 0 -10.833 1.16699 -16.5 3.5s-12.834 4.83301 -21.501 7.5s-19.167 5.16699 -31.5 7.5s-27.833 3.5 -46.5 3.5c-46 0 -78.667 -17 -98 -51
s-29 -88.333 -29 -163v-99h519c17.333 0 30.166 -4.5 38.499 -13.5s12.5 -21.5 12.5 -37.5v-875z" />
    <glyph glyph-name="uniFB02" unicode="fl" horiz-adv-x="1084" 
d="M932 25c0 -5.33301 -1.33398 -9.83984 -4.00098 -13.5068s-7.16699 -6.83398 -13.5 -9.50098s-14.833 -4.66699 -25.5 -6s-24 -2 -40 -2s-29.333 0.666992 -40 2s-19.167 3.33301 -25.5 6s-10.833 5.83398 -13.5 9.50098s-4 8.16699 -4 13.5v1221
c-1.33301 -2 -3.33301 -3.5 -6 -4.5s-6.33398 -1.5 -11.001 -1.5c-7.33301 0 -19 1.83301 -35 5.5s-32.833 6.83398 -50.5 9.50098s-34.5 4.66699 -50.5 6s-31.333 2 -46 2c-41.333 0 -75.333 -4.16699 -102 -12.5s-47.667 -21.166 -63 -38.499
s-25.833 -39.666 -31.5 -66.999s-8.5 -59.333 -8.5 -96v-98h185c5.33301 0 10 -1.16699 14 -3.5s7.5 -6.33301 10.5 -12s5.16699 -12.834 6.5 -21.501s2 -19.334 2 -32.001c0 -24 -2.83301 -41.333 -8.5 -52s-13.834 -16 -24.501 -16h-185v-789
c0 -5.33301 -1.33301 -9.83301 -4 -13.5s-7.16699 -6.83398 -13.5 -9.50098s-14.833 -4.66699 -25.5 -6s-24 -2 -40 -2s-29.333 0.666992 -40 2s-19.167 3.33301 -25.5 6s-10.833 5.83398 -13.5 9.50098s-4 8.16699 -4 13.5v789h-127c-10.667 0 -18.667 5.33301 -24 16
s-8 28 -8 52c0 12.667 0.666992 23.334 2 32.001s3.33301 15.834 6 21.501s6 9.66699 10 12s8.66699 3.5 14 3.5h127v96c0 62 7 115.333 21 160s35.5 81.167 64.5 109.5s65.833 49.333 110.5 63s98 20.5 160 20.5c17.333 0 35.333 -0.666992 54 -2
s36.834 -3.16602 54.501 -5.49902s33 -4.66602 46 -6.99902s23.333 -4.66602 31 -6.99902s13.834 -5.16602 18.501 -8.49902s8 -7.66602 10 -12.999c0.666992 6.66699 2.16699 12 4.5 16s6.33301 7.66699 12 11s13.834 5.66602 24.501 6.99902s24.667 2 42 2
c16 0 29.333 -0.666992 40 -2s19.167 -3.33301 25.5 -6s10.833 -6 13.5 -10s4 -8.66699 4 -14v-1336z" />
    <glyph glyph-name="uniFB03" unicode="ffi" horiz-adv-x="1654" 
d="M1521 1228c0 -18.667 -1.5 -34.334 -4.5 -47.001s-8.33301 -22.834 -16 -30.501s-18 -13.167 -31 -16.5s-29.5 -5 -49.5 -5c-19.333 0 -35.5 1.66699 -48.5 5s-23.333 8.83301 -31 16.5s-13.167 17.834 -16.5 30.501s-5 28.334 -5 47.001s1.66699 34.167 5 46.5
s8.83301 22.666 16.5 30.999s18 14 31 17s29.167 4.5 48.5 4.5c20 0 36.5 -1.5 49.5 -4.5s23.333 -8.66699 31 -17s13 -18.666 16 -30.999s4.5 -27.833 4.5 -46.5zM1503 25c0 -5.33301 -1.33105 -9.83789 -3.99805 -13.5049s-7.16699 -6.83398 -13.5 -9.50098
s-14.833 -4.66699 -25.5 -6s-24.334 -2 -41.001 -2c-15.333 0 -28.5 0.666992 -39.5 2s-19.667 3.33301 -26 6s-10.666 5.83398 -12.999 9.50098s-3.5 8.16699 -3.5 13.5v789h-405v-789c0 -5.33301 -1.33301 -9.83301 -4 -13.5s-7.16699 -6.83398 -13.5 -9.50098
s-14.833 -4.66699 -25.5 -6s-24 -2 -40 -2s-29.333 0.666992 -40 2s-19.167 3.33301 -25.5 6s-10.833 5.83398 -13.5 9.50098s-4 8.16699 -4 13.5v789h-404v-789c0 -5.33301 -1.33301 -9.83301 -4 -13.5s-7.16699 -6.83398 -13.5 -9.50098s-14.833 -4.66699 -25.5 -6
s-24 -2 -40 -2s-29.333 0.666992 -40 2s-19.167 3.33301 -25.5 6s-10.833 5.83398 -13.5 9.50098s-4 8.16699 -4 13.5v789h-127c-10.667 0 -18.667 5.33301 -24 16s-8 28 -8 52c0 12.667 0.666992 23.334 2 32.001s3.33301 15.834 6 21.501s6 9.66699 10 12
s8.66699 3.5 14 3.5h127v85c0 62 6 115.167 18 159.5s30 80.833 54 109.5s53.833 49.834 89.5 63.501s77.167 20.5 124.5 20.5c29.333 0 55 -2.5 77 -7.5s38.167 -9.66699 48.5 -14s17.5 -8.5 21.5 -12.5s7.33301 -9.16699 10 -15.5s4.5 -14 5.5 -23s1.5 -19.833 1.5 -32.5
c0 -21.333 -1.66699 -36.833 -5 -46.5s-9.33301 -14.5 -18 -14.5c-5.33301 0 -11.5 1.5 -18.5 4.5s-15.833 6.33301 -26.5 10s-22.834 7 -36.501 10s-28.834 4.5 -45.501 4.5c-49.333 0 -84 -17 -104 -51s-30 -88.333 -30 -163v-87h404v97c0 62 6.16699 115.167 18.5 159.5
s30.166 80.833 53.499 109.5s52.5 49.834 87.5 63.501s75.167 20.5 120.5 20.5c14.667 0 29.5 -0.666992 44.5 -2s28.333 -3.33301 40 -6s22 -5.5 31 -8.5s15.167 -6.16699 18.5 -9.5s6 -6.83301 8 -10.5s3.83301 -8.16699 5.5 -13.5s2.83398 -12 3.50098 -20
s1 -17.667 1 -29c0 -21.333 -1.66699 -36.666 -5 -45.999s-9.33301 -14 -18 -14c-4.66699 0 -10 1.16699 -16 3.5s-13.167 4.83301 -21.5 7.5s-18.833 5.16699 -31.5 7.5s-28 3.5 -46 3.5c-46 0 -78.833 -17 -98.5 -51s-29.5 -88.333 -29.5 -163v-99h519
c17.333 0 30.333 -4.5 39 -13.5s13 -21.5 13 -37.5v-875z" />
    <glyph glyph-name="uniFB04" unicode="ffl" horiz-adv-x="1654" 
d="M1503 25c0 -5.33301 -1.33496 -9.83887 -4.00195 -13.5059s-7.16699 -6.83398 -13.5 -9.50098s-14.833 -4.66699 -25.5 -6s-24.334 -2 -41.001 -2c-15.333 0 -28.5 0.666992 -39.5 2s-19.667 3.33301 -26 6s-10.666 5.83398 -12.999 9.50098s-3.5 8.16699 -3.5 13.5v1222
c-2 -2 -4.33301 -3.5 -7 -4.5s-6.33398 -1.5 -11.001 -1.5c-8 0 -19.833 1.83301 -35.5 5.5s-32.334 6.83398 -50.001 9.50098s-34.5 4.66699 -50.5 6s-31 2 -45 2c-41.333 0 -75.333 -4.16699 -102 -12.5s-47.667 -21.333 -63 -39s-26 -40 -32 -67s-9 -58.833 -9 -95.5v-99
h186c5.33301 0 9.83301 -1.16699 13.5 -3.5s7 -6.33301 10 -12s5.16699 -12.834 6.5 -21.501s2 -19.334 2 -32.001c0 -24 -2.83301 -41.333 -8.5 -52s-13.5 -16 -23.5 -16h-186v-789c0 -5.33301 -1.33301 -9.83301 -4 -13.5s-7.16699 -6.83398 -13.5 -9.50098
s-14.833 -4.66699 -25.5 -6s-24 -2 -40 -2s-29.333 0.666992 -40 2s-19.167 3.33301 -25.5 6s-10.833 5.83398 -13.5 9.50098s-4 8.16699 -4 13.5v789h-404v-789c0 -5.33301 -1.33301 -9.83301 -4 -13.5s-7.16699 -6.83398 -13.5 -9.50098s-14.833 -4.66699 -25.5 -6
s-24 -2 -40 -2s-29.333 0.666992 -40 2s-19.167 3.33301 -25.5 6s-10.833 5.83398 -13.5 9.50098s-4 8.16699 -4 13.5v789h-127c-10.667 0 -18.667 5.33301 -24 16s-8 28 -8 52c0 12.667 0.666992 23.334 2 32.001s3.33301 15.834 6 21.501s6 9.66699 10 12
s8.66699 3.5 14 3.5h127v85c0 62 6 115.167 18 159.5s30 80.833 54 109.5s53.833 49.834 89.5 63.501s77.167 20.5 124.5 20.5c29.333 0 55 -2.5 77 -7.5s38.167 -9.66699 48.5 -14s17.5 -8.5 21.5 -12.5s7.33301 -9.16699 10 -15.5s4.5 -14 5.5 -23s1.5 -19.833 1.5 -32.5
c0 -21.333 -1.66699 -36.833 -5 -46.5s-9.33301 -14.5 -18 -14.5c-5.33301 0 -11.5 1.5 -18.5 4.5s-15.833 6.33301 -26.5 10s-22.667 7 -36 10s-28.666 4.5 -45.999 4.5c-49.333 0 -84 -17 -104 -51s-30 -88.333 -30 -163v-87h404v97c0 62 7 115.167 21 159.5
s35.5 80.833 64.5 109.5s65.833 49.834 110.5 63.501s98 20.5 160 20.5c17.333 0 35.333 -0.666992 54 -2s36.834 -3.16602 54.501 -5.49902s33.167 -4.66602 46.5 -6.99902s23.666 -4.66602 30.999 -6.99902s13.333 -5.16602 18 -8.49902s8.33398 -8 11.001 -14
c0 6.66699 1.16699 12 3.5 16s6.5 7.66699 12.5 11s14.333 5.66602 25 6.99902s24.334 2 41.001 2s30.334 -0.666992 41.001 -2s19.167 -3.33301 25.5 -6s10.833 -6 13.5 -10s4 -8.66699 4 -14v-1336z" />
    <glyph glyph-name="f_b.liga" unicode="fb" horiz-adv-x="1690" 
d="M1594 487c0 -78 -8.33691 -148.174 -25.0039 -210.507s-41.334 -115.5 -74.001 -159.5s-73.167 -77.667 -121.5 -101s-103.5 -35 -165.5 -35c-28.667 0 -55.167 2.83301 -79.5 8.5s-48.166 14.834 -71.499 27.501s-46.5 28.667 -69.5 48s-47.833 42.666 -74.5 69.999
v-110c0 -5.33301 -1.33301 -10 -4 -14s-7 -7.16699 -13 -9.5s-13.667 -4.16602 -23 -5.49902s-20.666 -2 -33.999 -2c-14 0 -25.667 0.666992 -35 2s-16.833 3.16602 -22.5 5.49902s-9.66699 5.5 -12 9.5s-3.5 8.66699 -3.5 14v1221c-2.66699 -2 -5.5 -3.5 -8.5 -4.5
s-6.5 -1.5 -10.5 -1.5c-6 0 -17.5 1.83301 -34.5 5.5s-33.5 6.83398 -49.5 9.50098s-32.167 4.66699 -48.5 6s-32.166 2 -47.499 2c-41.333 0 -75.333 -4.16699 -102 -12.5s-47.667 -21.166 -63 -38.499s-25.833 -39.666 -31.5 -66.999s-8.5 -59.333 -8.5 -96v-98h185
c5.33301 0 10 -1.16699 14 -3.5s7.5 -6.33301 10.5 -12s5.16699 -12.834 6.5 -21.501s2 -19.334 2 -32.001c0 -24 -2.83301 -41.333 -8.5 -52s-13.834 -16 -24.501 -16h-185v-789c0 -5.33301 -1.33301 -9.83301 -4 -13.5s-7.16699 -6.83398 -13.5 -9.50098
s-14.833 -4.66699 -25.5 -6s-24 -2 -40 -2s-29.333 0.666992 -40 2s-19.167 3.33301 -25.5 6s-10.833 5.83398 -13.5 9.50098s-4 8.16699 -4 13.5v789h-127c-10.667 0 -18.667 5.33301 -24 16s-8 28 -8 52c0 12.667 0.666992 23.334 2 32.001s3.33301 15.834 6 21.501
s6 9.66699 10 12s8.66699 3.5 14 3.5h127v96c0 62 7 115.333 21 160s35.5 81.167 64.5 109.5s65.833 49.333 110.5 63s98 20.5 160 20.5c17.333 0 35.333 -0.666992 54 -2s36.5 -3.16602 53.5 -5.49902s32.333 -4.66602 46 -6.99902s24.334 -4.66602 32.001 -6.99902
s13.834 -5.16602 18.501 -8.49902s8 -7.66602 10 -12.999c0.666992 6.66699 2.16699 12 4.5 16s6.33301 7.66699 12 11s13.834 5.66602 24.501 6.99902s24.667 2 42 2c16 0 29.333 -0.666992 40 -2s19.167 -3.33301 25.5 -6s10.833 -6 13.5 -10s4 -8.66699 4 -14v-539
c27.333 27.333 53.333 50.333 78 69s49 33.834 73 45.501s48.167 20.167 72.5 25.5s49.5 8 75.5 8c65.333 0 121 -13 167 -39s83.5 -60.833 112.5 -104.5s50.167 -94.834 63.5 -153.501s20 -120.667 20 -186zM1422 467.993c0 46 -3.66602 90.6689 -10.999 134.002
s-19.666 81.666 -36.999 114.999s-40.333 60.166 -69 80.499s-64.334 30.5 -107.001 30.5c-21.333 0 -42.166 -3 -62.499 -9s-41.333 -16 -63 -30s-44 -32 -67 -54s-47.5 -49.667 -73.5 -83v-359c44.667 -55.333 87.667 -97.5 129 -126.5s84.666 -43.5 129.999 -43.5
c41.333 0 76.666 10 105.999 30s53.333 46.5 72 79.5s32.167 70 40.5 111s12.5 82.5 12.5 124.5z" />
    <glyph glyph-name="f_f_b.liga" unicode="ffb" horiz-adv-x="2261" 
d="M1992 468c0 46 -3.66602 90.6689 -10.999 134.002s-19.666 81.666 -36.999 114.999s-40.333 60.166 -69 80.499s-64.334 30.5 -107.001 30.5c-21.333 0 -42.166 -3 -62.499 -9s-41.333 -16 -63 -30s-44 -32 -67 -54s-47.167 -49.667 -72.5 -83v-359
c44.667 -55.333 87.667 -97.5 129 -126.5s84.333 -43.5 129 -43.5c41.333 0 76.666 10 105.999 30s53.166 46.5 71.499 79.5s31.833 70 40.5 111s13 82.5 13 124.5zM766.001 951.002l-0.00585938 96.9941c0 62 7 115.167 21 159.5s35.5 80.833 64.5 109.5
s65.833 49.834 110.5 63.501s98 20.5 160 20.5c18 0 36.333 -0.666992 55 -2s36.5 -3.16602 53.5 -5.49902s32.333 -4.66602 46 -6.99902s24.167 -4.66602 31.5 -6.99902s13.333 -5.16602 18 -8.49902s8.33398 -8 11.001 -14c0 6.66699 1.16699 12 3.5 16
s6.5 7.66699 12.5 11s14.333 5.66602 25 6.99902s24.334 2 41.001 2s30.334 -0.666992 41.001 -2s19.167 -3.33301 25.5 -6s10.833 -6 13.5 -10s4 -8.66699 4 -14v-539c26.667 27.333 52.334 50.333 77.001 69s49 33.834 73 45.501s48.167 20.167 72.5 25.5s49.5 8 75.5 8
c65.333 0 121.166 -13 167.499 -39s84 -60.833 113 -104.5s50.167 -94.834 63.5 -153.501s20 -120.667 20 -186c0 -78 -8.5 -148.167 -25.5 -210.5s-41.833 -115.5 -74.5 -159.5s-73.167 -77.667 -121.5 -101s-103.5 -35 -165.5 -35c-28.667 0 -55.167 2.83301 -79.5 8.5
s-48 14.834 -71 27.501s-46.333 28.667 -70 48s-48.5 42.666 -74.5 69.999v-110c0 -6 -1.16699 -10.833 -3.5 -14.5s-6.66602 -6.66699 -12.999 -9s-14 -4.16602 -23 -5.49902s-20.5 -2 -34.5 -2c-13.333 0 -24.666 0.666992 -33.999 2s-16.833 3.16602 -22.5 5.49902
s-9.66699 5.33301 -12 9s-3.5 8.5 -3.5 14.5v1222c-2.66699 -2 -5.5 -3.5 -8.5 -4.5s-6.5 -1.5 -10.5 -1.5c-6.66699 0 -18.5 1.83301 -35.5 5.5s-33.5 6.83398 -49.5 9.50098s-32.167 4.66699 -48.5 6s-31.833 2 -46.5 2c-41.333 0 -75.333 -4.16699 -102 -12.5
s-47.667 -21.333 -63 -39s-26 -40 -32 -67s-9 -58.833 -9 -95.5v-99h186c5.33301 0 9.83301 -1.16699 13.5 -3.5s7 -6.33301 10 -12s5.16699 -12.834 6.5 -21.501s2 -19.334 2 -32.001c0 -24 -2.83301 -41.333 -8.5 -52s-13.5 -16 -23.5 -16h-186v-789
c0 -5.33301 -1.33301 -9.83301 -4 -13.5s-7.16699 -6.83398 -13.5 -9.50098s-14.833 -4.66699 -25.5 -6s-24 -2 -40 -2s-29.333 0.666992 -40 2s-19.167 3.33301 -25.5 6s-10.833 5.83398 -13.5 9.50098s-4 8.16699 -4 13.5v789h-404v-789
c0 -5.33301 -1.33301 -9.83301 -4 -13.5s-7.16699 -6.83398 -13.5 -9.50098s-14.833 -4.66699 -25.5 -6s-24 -2 -40 -2s-29.333 0.666992 -40 2s-19.167 3.33301 -25.5 6s-10.833 5.83398 -13.5 9.50098s-4 8.16699 -4 13.5v789h-127c-10.667 0 -18.667 5.33301 -24 16
s-8 28 -8 52c0 12.667 0.666992 23.334 2 32.001s3.33301 15.834 6 21.501s6 9.66699 10 12s8.66699 3.5 14 3.5h127v85c0 62 6 115.167 18 159.5s30 80.833 54 109.5s53.833 49.834 89.5 63.501s77.167 20.5 124.5 20.5c29.333 0 55 -2.5 77 -7.5s40 -10.5 54 -16.5
c6.66699 -2.66699 12 -6 16 -10s7.33301 -9.16699 10 -15.5s4.5 -14 5.5 -23s1.5 -19.833 1.5 -32.5c0 -21.333 -1.66699 -36.833 -5 -46.5s-9.33301 -14.5 -18 -14.5c-5.33301 0 -11.5 1.5 -18.5 4.5s-15.833 6.33301 -26.5 10s-22.667 7 -36 10s-28.666 4.5 -45.999 4.5
c-49.333 0 -84 -17 -104 -51s-30 -88.333 -30 -163v-87h404z" />
    <glyph glyph-name="f_h.liga" unicode="fh" horiz-adv-x="1691" 
d="M1542 25c0 -5.33301 -1.33398 -9.83789 -4.00098 -13.5049s-7.16699 -6.83398 -13.5 -9.50098s-14.833 -4.66699 -25.5 -6s-24 -2 -40 -2s-29.333 0.666992 -40 2s-19.334 3.33301 -26.001 6s-11.167 5.83398 -13.5 9.50098s-3.5 8.16699 -3.5 13.5v527
c0 51.333 -3.66699 92.666 -11 123.999s-19 58.333 -35 81s-35.833 40 -59.5 52s-51.834 18 -84.501 18c-41.333 0 -82.5 -14.667 -123.5 -44s-84.5 -72.333 -130.5 -129v-629c0 -5.33301 -1.33301 -9.83301 -4 -13.5s-7.16699 -6.83398 -13.5 -9.50098
s-14.833 -4.66699 -25.5 -6s-24 -2 -40 -2s-29.333 0.666992 -40 2s-19.167 3.33301 -25.5 6s-10.833 5.83398 -13.5 9.50098s-4 8.16699 -4 13.5v1221c-2.66699 -2 -5.5 -3.5 -8.5 -4.5s-6.5 -1.5 -10.5 -1.5c-6 0 -17.5 1.83301 -34.5 5.5s-33.5 6.83398 -49.5 9.50098
s-32.167 4.66699 -48.5 6s-32.166 2 -47.499 2c-41.333 0 -75.333 -4.16699 -102 -12.5s-47.667 -21.166 -63 -38.499s-25.833 -39.666 -31.5 -66.999s-8.5 -59.333 -8.5 -96v-98h185c5.33301 0 10 -1.16699 14 -3.5s7.5 -6.33301 10.5 -12s5.16699 -12.834 6.5 -21.501
s2 -19.334 2 -32.001c0 -24 -2.83301 -41.333 -8.5 -52s-13.834 -16 -24.501 -16h-185v-789c0 -5.33301 -1.33301 -9.83301 -4 -13.5s-7.16699 -6.83398 -13.5 -9.50098s-14.833 -4.66699 -25.5 -6s-24 -2 -40 -2s-29.333 0.666992 -40 2s-19.167 3.33301 -25.5 6
s-10.833 5.83398 -13.5 9.50098s-4 8.16699 -4 13.5v789h-127c-10.667 0 -18.667 5.33301 -24 16s-8 28 -8 52c0 12.667 0.666992 23.334 2 32.001s3.33301 15.834 6 21.501s6 9.66699 10 12s8.66699 3.5 14 3.5h127v96c0 62 7 115.333 21 160s35.5 81.167 64.5 109.5
s65.833 49.333 110.5 63s98 20.5 160 20.5c17.333 0 35.333 -0.666992 54 -2s36.5 -3.16602 53.5 -5.49902s32.333 -4.66602 46 -6.99902s24.334 -4.66602 32.001 -6.99902s13.834 -5.16602 18.501 -8.49902s8 -7.66602 10 -12.999c0.666992 6.66699 2.16699 12 4.5 16
s6.33301 7.66699 12 11s13.834 5.66602 24.501 6.99902s24.667 2 42 2c16 0 29.333 -0.666992 40 -2s19.167 -3.33301 25.5 -6s10.833 -6 13.5 -10s4 -8.66699 4 -14v-539c47.333 50 94.833 87.167 142.5 111.5s96.5 36.5 146.5 36.5c59.333 0 109.5 -10.167 150.5 -30.5
s74.167 -47.5 99.5 -81.5s43.5 -73.833 54.5 -119.5s16.5 -100.834 16.5 -165.501v-548z" />
    <glyph glyph-name="f_f_h.liga" unicode="ffh" horiz-adv-x="2261" 
d="M766 1048c0 62 6.99609 115.164 20.9961 159.497s35.5 80.833 64.5 109.5s65.833 49.834 110.5 63.501s98 20.5 160 20.5c18 0 36.333 -0.666992 55 -2s36.5 -3.16602 53.5 -5.49902s32.333 -4.66602 46 -6.99902s24.167 -4.66602 31.5 -6.99902
s13.333 -5.16602 18 -8.49902s8.33398 -8 11.001 -14c0 6.66699 1.16699 12 3.5 16s6.5 7.66699 12.5 11s14.333 5.66602 25 6.99902s24.334 2 41.001 2s30.334 -0.666992 41.001 -2s19.167 -3.33301 25.5 -6s10.833 -6 13.5 -10s4 -8.66699 4 -14v-539
c47.333 50 94.833 87.167 142.5 111.5s96.167 36.5 145.5 36.5c59.333 0 109.666 -10.167 150.999 -30.5s74.5 -47.5 99.5 -81.5s43 -73.833 54 -119.5s16.5 -100.834 16.5 -165.501v-548c0 -5.33301 -1.33301 -9.83301 -4 -13.5s-7 -6.83398 -13 -9.50098
s-14.333 -4.66699 -25 -6s-24 -2 -40 -2c-16.667 0 -30.334 0.666992 -41.001 2s-19 3.33301 -25 6s-10.333 5.83398 -13 9.50098s-4 8.16699 -4 13.5v527c0 51.333 -4 92.666 -12 123.999s-19.667 58.333 -35 81s-35.166 40 -59.499 52s-52.5 18 -84.5 18
c-41.333 0 -82.5 -14.667 -123.5 -44s-84.167 -72.333 -129.5 -129v-629c0 -5.33301 -1.33301 -9.83301 -4 -13.5s-7.16699 -6.83398 -13.5 -9.50098s-14.833 -4.66699 -25.5 -6s-24.334 -2 -41.001 -2c-15.333 0 -28.5 0.666992 -39.5 2s-19.667 3.33301 -26 6
s-10.666 5.83398 -12.999 9.50098s-3.5 8.16699 -3.5 13.5v1222c-2.66699 -2 -5.5 -3.5 -8.5 -4.5s-6.5 -1.5 -10.5 -1.5c-6 0 -16.5 1.66699 -31.5 5s-31.667 6.5 -50 9.5s-35.666 5.16699 -51.999 6.5s-31.833 2 -46.5 2c-41.333 0 -75.333 -4.16699 -102 -12.5
s-47.667 -21.333 -63 -39s-26 -40 -32 -67s-9 -58.833 -9 -95.5v-99h186c5.33301 0 9.83301 -1.16699 13.5 -3.5s7 -6.33301 10 -12s5.16699 -12.834 6.5 -21.501s2 -19.334 2 -32.001c0 -24 -2.83301 -41.333 -8.5 -52s-13.5 -16 -23.5 -16h-186v-789
c0 -5.33301 -1.33301 -9.83301 -4 -13.5s-7.16699 -6.83398 -13.5 -9.50098s-14.833 -4.66699 -25.5 -6s-24 -2 -40 -2s-29.333 0.666992 -40 2s-19.167 3.33301 -25.5 6s-10.833 5.83398 -13.5 9.50098s-4 8.16699 -4 13.5v789h-404v-789
c0 -5.33301 -1.33301 -9.83301 -4 -13.5s-7.16699 -6.83398 -13.5 -9.50098s-14.833 -4.66699 -25.5 -6s-24 -2 -40 -2s-29.333 0.666992 -40 2s-19.167 3.33301 -25.5 6s-10.833 5.83398 -13.5 9.50098s-4 8.16699 -4 13.5v789h-127c-10.667 0 -18.667 5.33301 -24 16
s-8 28 -8 52c0 12.667 0.666992 23.334 2 32.001s3.33301 15.834 6 21.501s6 9.66699 10 12s8.66699 3.5 14 3.5h127v85c0 62 6 115.167 18 159.5s30 80.833 54 109.5s53.833 49.834 89.5 63.501s77.167 20.5 124.5 20.5c29.333 0 55 -2.5 77 -7.5s40 -10.5 54 -16.5
c6.66699 -2.66699 12 -6 16 -10s7.33301 -9.16699 10 -15.5s4.5 -14 5.5 -23s1.5 -19.833 1.5 -32.5c0 -21.333 -1.66699 -36.833 -5 -46.5s-9.33301 -14.5 -18 -14.5c-5.33301 0 -11.5 1.5 -18.5 4.5s-15.833 6.33301 -26.5 10s-22.667 7 -36 10s-28.666 4.5 -45.999 4.5
c-49.333 0 -84 -17 -104 -51s-30 -88.333 -30 -163v-87h404v97z" />
    <glyph glyph-name="f_igrave.liga" unicode="f&#xec;" horiz-adv-x="1084" 
d="M932 25c0 -5.33301 -1.33301 -9.83594 -4 -13.5029s-7.16699 -6.83398 -13.5 -9.50098s-14.833 -4.66699 -25.5 -6s-24 -2 -40 -2s-29.333 0.666992 -40 2s-19.167 3.33301 -25.5 6s-10.833 5.83398 -13.5 9.50098s-4 8.16699 -4 13.5v789h-404v-789
c0 -5.33301 -1.33301 -9.83301 -4 -13.5s-7.16699 -6.83398 -13.5 -9.50098s-14.833 -4.66699 -25.5 -6s-24 -2 -40 -2s-29.333 0.666992 -40 2s-19.167 3.33301 -25.5 6s-10.833 5.83398 -13.5 9.50098s-4 8.16699 -4 13.5v789h-127c-10.667 0 -18.667 5.33301 -24 16
s-8 28 -8 52c0 12.667 0.666992 23.334 2 32.001s3.33301 15.834 6 21.501s6 9.66699 10 12s8.66699 3.5 14 3.5h127v112c0 58 6 108.167 18 150.5s29.5 77.166 52.5 104.499s51.333 47.833 85 61.5s72.167 20.5 115.5 20.5c19.333 0 37.833 -1.33301 55.5 -4
s32.334 -6 44.001 -10s19.667 -8.16699 24 -12.5s7.66602 -9.83301 9.99902 -16.5s4 -14.5 5 -23.5s1.5 -19.5 1.5 -31.5c0 -21.333 -1.66699 -36.666 -5 -45.999s-9.33301 -14 -18 -14c-4.66699 0 -10 1 -16 3l-21.5 7c-8.33301 2.66699 -18 5.16699 -29 7.5
s-23.833 3.5 -38.5 3.5c-41.333 0 -71.166 -16.167 -89.499 -48.5s-27.5 -82.166 -27.5 -149.499v-114h519c17.333 0 30.166 -4.5 38.499 -13.5s12.5 -21.5 12.5 -37.5v-875zM925 1132c2.66699 -6.66699 4.00098 -12.834 4.00098 -18.501s-2 -10.167 -6 -13.5
s-10.5 -5.83301 -19.5 -7.5s-20.833 -2.5 -35.5 -2.5c-13.333 0 -24.166 0.333008 -32.499 1s-15.166 2.16699 -20.499 4.5s-9.83301 5.5 -13.5 9.5s-7.16699 9.33301 -10.5 16l-130 233c-4 6.66699 -5.66699 12.834 -5 18.501s4 10.5 10 14.5s15 7.16699 27 9.5
s27.333 3.5 46 3.5c16 0 29.167 -0.5 39.5 -1.5s18.666 -2.83301 24.999 -5.5s11.166 -6.5 14.499 -11.5s6.66602 -10.833 9.99902 -17.5z" />
    <glyph glyph-name="f_iacute.liga" unicode="f&#xed;" horiz-adv-x="1084" 
d="M932 25c0 -5.33301 -1.33203 -9.83691 -3.99902 -13.5039s-7.16699 -6.83398 -13.5 -9.50098s-14.833 -4.66699 -25.5 -6s-24 -2 -40 -2s-29.333 0.666992 -40 2s-19.167 3.33301 -25.5 6s-10.833 5.83398 -13.5 9.50098s-4 8.16699 -4 13.5v789h-404v-789
c0 -5.33301 -1.33301 -9.83301 -4 -13.5s-7.16699 -6.83398 -13.5 -9.50098s-14.833 -4.66699 -25.5 -6s-24 -2 -40 -2s-29.333 0.666992 -40 2s-19.167 3.33301 -25.5 6s-10.833 5.83398 -13.5 9.50098s-4 8.16699 -4 13.5v789h-127c-10.667 0 -18.667 5.33301 -24 16
s-8 28 -8 52c0 12.667 0.666992 23.334 2 32.001s3.33301 15.834 6 21.501s6 9.66699 10 12s8.66699 3.5 14 3.5h127v96c0 62 6 115.167 18 159.5s30 80.833 54 109.5s53.833 49.834 89.5 63.501s77.167 20.5 124.5 20.5c26 0 50 -2.16699 72 -6.5s38.667 -9 50 -14
s19 -9.5 23 -13.5s7.16699 -9.16699 9.5 -15.5s4.16602 -14 5.49902 -23s2 -19.833 2 -32.5c0 -21.333 -1.66699 -36.666 -5 -45.999s-9.33301 -14 -18 -14c-4.66699 0 -10.667 1.33301 -18 4l-26.5 9.5c-10.333 3.66699 -22.166 7 -35.499 10s-28.333 4.5 -45 4.5
c-49.333 0 -84 -17 -104 -51s-30 -88.333 -30 -163v-98h519c17.333 0 30.166 -4.5 38.499 -13.5s12.5 -21.5 12.5 -37.5v-875zM925.001 1364c4 7.33301 8.66602 13.333 13.999 18s11.833 8.33398 19.5 11.001s17.167 4.66699 28.5 6s25 2 41 2
c18.667 0 33.834 -1.16699 45.501 -3.5s19.834 -5.66602 24.501 -9.99902s6.66699 -9.33301 6 -15s-3.66699 -11.5 -9 -17.5l-181 -233c-5.33301 -6.66699 -10.166 -12 -14.499 -16s-9.33301 -7.16699 -15 -9.5s-13 -4 -22 -5s-20.167 -1.5 -33.5 -1.5
c-14.667 0 -26.334 1 -35.001 3s-14.834 4.66699 -18.501 8s-5 7.66602 -4 12.999s3.83301 11.666 8.5 18.999zM639 949.996z" />
    <glyph glyph-name="f_icircumflex.liga" unicode="f&#xee;" horiz-adv-x="1084" 
d="M932 25c0 -5.33301 -1.32812 -9.83496 -3.99512 -13.502s-7.16699 -6.83398 -13.5 -9.50098s-14.833 -4.66699 -25.5 -6s-24 -2 -40 -2s-29.333 0.666992 -40 2s-19.167 3.33301 -25.5 6s-10.833 5.83398 -13.5 9.50098s-4 8.16699 -4 13.5v789h-404v-789
c0 -5.33301 -1.33301 -9.83301 -4 -13.5s-7.16699 -6.83398 -13.5 -9.50098s-14.833 -4.66699 -25.5 -6s-24 -2 -40 -2s-29.333 0.666992 -40 2s-19.167 3.33301 -25.5 6s-10.833 5.83398 -13.5 9.50098s-4 8.16699 -4 13.5v789h-127c-10.667 0 -18.667 5.33301 -24 16
s-8 28 -8 52c0 12.667 0.666992 23.334 2 32.001s3.33301 15.834 6 21.501s6 9.66699 10 12s8.66699 3.5 14 3.5h127v112c0 58 6 108.167 18 150.5s29.5 77.166 52.5 104.499s51.333 47.833 85 61.5s72.167 20.5 115.5 20.5c19.333 0 38.166 -1.33301 56.499 -4
s32.833 -6 43.5 -10s18.167 -8.16699 22.5 -12.5s7.66602 -9.5 9.99902 -15.5s4 -13.5 5 -22.5s1.5 -19.833 1.5 -32.5c0 -20.667 -1.66699 -35.667 -5 -45s-9.33301 -14 -18 -14c-4.66699 0 -10 1 -16 3l-20.5 7c-7.66699 2.66699 -17.334 5.16699 -29.001 7.5
s-24.834 3.5 -39.501 3.5c-40.667 0 -70.167 -16.167 -88.5 -48.5s-27.5 -82.166 -27.5 -149.499v-116h519c17.333 0 30.166 -4.5 38.499 -13.5s12.5 -21.5 12.5 -37.5v-875zM743.005 1118c-3.33301 -6 -7 -10.8359 -11 -14.5029s-8.66699 -6.66699 -14 -9
s-12.333 -3.83301 -21 -4.5s-19.334 -1 -32.001 -1c-16 0 -28.5 1 -37.5 3s-14.833 5.33301 -17.5 10s-2.66699 10.834 0 18.501s7.66699 16.834 15 27.501l153 226c4 5.33301 8 9.5 12 12.5s9.33301 5.5 16 7.5s15.167 3.33301 25.5 4s22.833 1 37.5 1
c14 0 25.667 -0.333008 35 -1s17.333 -2.16699 24 -4.5s12.167 -5.16602 16.5 -8.49902s8.16602 -7 11.499 -11l156 -229c6.66699 -10.667 11.167 -19.5 13.5 -26.5s1.83301 -12.667 -1.5 -17s-9.66602 -7.5 -18.999 -9.5s-22.333 -3 -39 -3
c-13.333 0 -24.333 0.333008 -33 1s-15.667 2.16699 -21 4.5s-9.66602 5.33301 -12.999 9s-7 8.5 -11 14.5l-122 181z" />
    <glyph glyph-name="f_itilde.liga" unicode="f&#x129;" horiz-adv-x="1103" 
d="M951 25c0 -5.33301 -1.33105 -9.83691 -3.99805 -13.5039s-7.16699 -6.83398 -13.5 -9.50098s-14.833 -4.66699 -25.5 -6s-24 -2 -40 -2s-29.333 0.666992 -40 2s-19.334 3.33301 -26.001 6s-11.167 5.83398 -13.5 9.50098s-3.5 8.16699 -3.5 13.5v789h-423v-789
c0 -5.33301 -1.33301 -9.83301 -4 -13.5s-7.16699 -6.83398 -13.5 -9.50098s-14.833 -4.66699 -25.5 -6s-24 -2 -40 -2s-29.333 0.666992 -40 2s-19.167 3.33301 -25.5 6s-10.833 5.83398 -13.5 9.50098s-4 8.16699 -4 13.5v789h-127c-10.667 0 -18.667 5.33301 -24 16
s-8 28 -8 52c0 12.667 0.666992 23.334 2 32.001s3.33301 15.834 6 21.501s6 9.66699 10 12s8.66699 3.5 14 3.5h127v117c0 57.333 6 106.833 18 148.5s29.333 76 52 103s50.667 47.167 84 60.5s71.333 20 114 20c10 0 19.833 -0.333008 29.5 -1s19 -1.66699 28 -3
s17.333 -3 25 -5s14.334 -4.16699 20.001 -6.5s10.167 -5.16602 13.5 -8.49902s6 -7.66602 8 -12.999s3.5 -12.333 4.5 -21s1.5 -19.334 1.5 -32.001c0 -21.333 -1.66699 -37.166 -5 -47.499s-9 -15.5 -17 -15.5c-4.66699 0 -9.5 0.666992 -14.5 2l-18.5 5
c-7.33301 2 -16 3.83301 -26 5.5s-22.333 2.5 -37 2.5c-40.667 0 -69.834 -16 -87.501 -48s-26.5 -81.667 -26.5 -149v-114h538c17.333 0 30.166 -4.5 38.499 -13.5s12.5 -21.5 12.5 -37.5v-875zM1154 1292c0 -35.333 -3.99902 -66.499 -11.999 -93.499
s-19.5 -49.667 -34.5 -68s-32.833 -32.333 -53.5 -42s-43.667 -14.5 -69 -14.5c-32 0 -59.333 6.83301 -82 20.5s-42.667 28.834 -60 45.501l-47.5 45.5c-14.333 13.667 -29.166 20.5 -44.499 20.5c-20 0 -34.5 -9.83301 -43.5 -29.5s-13.5 -44.834 -13.5 -75.501
c0 -10 -3.83301 -17 -11.5 -21s-22.834 -6 -45.501 -6c-18 0 -31.667 2.66699 -41 8s-14 16.666 -14 33.999c0 66.667 15 119.667 45 159s71.667 59 125 59c21.333 0 40.5 -3.16699 57.5 -9.5s32.5 -14.5 46.5 -24.5s26.833 -20.667 38.5 -32l33 -32
c10.333 -10 20.166 -18.167 29.499 -24.5s19 -9.5 29 -9.5c18 0 32 8.66699 42 26s15 43.666 15 78.999c0 10 4.16699 17 12.5 21s21.833 6 40.5 6c21.333 0 36.333 -2.66699 45 -8s13 -16.666 13 -33.999z" />
    <glyph glyph-name="f_idieresis.liga" unicode="f&#xef;" horiz-adv-x="1103" 
d="M951 25c0 -5.33301 -1.33105 -9.83691 -3.99805 -13.5039s-7.16699 -6.83398 -13.5 -9.50098s-14.833 -4.66699 -25.5 -6s-24 -2 -40 -2s-29.333 0.666992 -40 2s-19.334 3.33301 -26.001 6s-11.167 5.83398 -13.5 9.50098s-3.5 8.16699 -3.5 13.5v789h-423v-789
c0 -5.33301 -1.33301 -9.83301 -4 -13.5s-7.16699 -6.83398 -13.5 -9.50098s-14.833 -4.66699 -25.5 -6s-24 -2 -40 -2s-29.333 0.666992 -40 2s-19.167 3.33301 -25.5 6s-10.833 5.83398 -13.5 9.50098s-4 8.16699 -4 13.5v789h-127c-10.667 0 -18.667 5.33301 -24 16
s-8 28 -8 52c0 12.667 0.666992 23.334 2 32.001s3.33301 15.834 6 21.501s6 9.66699 10 12s8.66699 3.5 14 3.5h127v117c0 57.333 6 106.833 18 148.5s29.333 76 52 103s50.667 47.167 84 60.5s71.333 20 114 20c10 0 19.833 -0.333008 29.5 -1s19 -1.66699 28 -3
s17.333 -3 25 -5s14.334 -4.16699 20.001 -6.5s10.167 -5.16602 13.5 -8.49902s6 -7.66602 8 -12.999s3.5 -12.333 4.5 -21s1.5 -19.334 1.5 -32.001c0 -21.333 -1.66699 -37.166 -5 -47.499s-9 -15.5 -17 -15.5c-4.66699 0 -9.5 0.666992 -14.5 2l-18.5 5
c-7.33301 2 -16 3.83301 -26 5.5s-22.333 2.5 -37 2.5c-40.667 0 -69.834 -16 -87.501 -48s-26.5 -81.667 -26.5 -149v-114h538c17.333 0 30.166 -4.5 38.499 -13.5s12.5 -21.5 12.5 -37.5v-875zM646.002 1228c0 18 1.5 33 4.5 45s8 21.667 15 29s16.333 12.5 28 15.5
s25.834 4.5 42.501 4.5s30.667 -1.5 42 -4.5s20.5 -8.16699 27.5 -15.5s12 -17 15 -29s4.5 -27 4.5 -45s-1.5 -33 -4.5 -45s-8 -21.667 -15 -29s-16.167 -12.666 -27.5 -15.999s-25.333 -5 -42 -5s-30.834 1.66699 -42.501 5s-21 8.66602 -28 15.999s-12 17 -15 29
s-4.5 27 -4.5 45zM935.002 1228c0 18 1.5 33 4.5 45s8 21.667 15 29s16.333 12.5 28 15.5s25.5 4.5 41.5 4.5c17.333 0 31.666 -1.5 42.999 -4.5s20.333 -8.16699 27 -15.5s11.5 -17 14.5 -29s4.5 -27 4.5 -45s-1.5 -33 -4.5 -45s-7.83301 -21.667 -14.5 -29
s-15.667 -12.666 -27 -15.999s-25.666 -5 -42.999 -5c-16 0 -29.833 1.66699 -41.5 5s-21 8.66602 -28 15.999s-12 17 -15 29s-4.5 27 -4.5 45z" />
    <glyph glyph-name="f_imacron.liga" unicode="f&#x12b;" horiz-adv-x="1103" 
d="M951 25c0 -5.33301 -1.33203 -9.83691 -3.99902 -13.5039s-7.16699 -6.83398 -13.5 -9.50098s-14.833 -4.66699 -25.5 -6s-24 -2 -40 -2s-29.333 0.666992 -40 2s-19.334 3.33301 -26.001 6s-11.167 5.83398 -13.5 9.50098s-3.5 8.16699 -3.5 13.5v789h-423v-789
c0 -5.33301 -1.33301 -9.83301 -4 -13.5s-7.16699 -6.83398 -13.5 -9.50098s-14.833 -4.66699 -25.5 -6s-24 -2 -40 -2s-29.333 0.666992 -40 2s-19.167 3.33301 -25.5 6s-10.833 5.83398 -13.5 9.50098s-4 8.16699 -4 13.5v789h-127c-10.667 0 -18.667 5.33301 -24 16
s-8 28 -8 52c0 12.667 0.666992 23.334 2 32.001s3.33301 15.834 6 21.501s6 9.66699 10 12s8.66699 3.5 14 3.5h127v117c0 57.333 6 106.833 18 148.5s29.333 76 52 103s50.667 47.167 84 60.5s71.333 20 114 20c10 0 19.833 -0.333008 29.5 -1s19 -1.66699 28 -3
s17.333 -3 25 -5s14.334 -4.16699 20.001 -6.5s10.167 -5.16602 13.5 -8.49902s6 -7.66602 8 -12.999s3.5 -12.333 4.5 -21s1.5 -19.334 1.5 -32.001c0 -21.333 -1.66699 -37.166 -5 -47.499s-9 -15.5 -17 -15.5c-4.66699 0 -9.5 0.666992 -14.5 2l-18.5 5
c-7.33301 2 -16 3.83301 -26 5.5s-22.333 2.5 -37 2.5c-40.667 0 -70 -16 -88 -48s-26.667 -81.667 -26 -149v-114h538c17.333 0 30.166 -4.5 38.499 -13.5s12.5 -21.5 12.5 -37.5v-875zM1087 1293c4.66699 0 9.16699 -1.16699 13.5 -3.5s7.83301 -6 10.5 -11
s4.5 -11.667 5.5 -20s1.5 -18.5 1.5 -30.5c0 -11.333 -0.5 -20.833 -1.5 -28.5s-2.83301 -14.167 -5.5 -19.5s-6.16699 -9.33301 -10.5 -12s-8.83301 -4 -13.5 -4h-428c-5.33301 0 -10.333 1.33301 -15 4s-8.33398 6.66699 -11.001 12s-4.5 11.833 -5.5 19.5
s-1.5 17.167 -1.5 28.5c0 12 0.5 22.167 1.5 30.5s2.83301 15 5.5 20s6.33398 8.66699 11.001 11s9.66699 3.5 15 3.5h428z" />
    <glyph glyph-name="f_ibreve.liga" unicode="f&#x12d;" horiz-adv-x="1103" 
d="M951 25c0 -5.33301 -1.33105 -9.83691 -3.99805 -13.5039s-7.16699 -6.83398 -13.5 -9.50098s-14.833 -4.66699 -25.5 -6s-24 -2 -40 -2s-29.333 0.666992 -40 2s-19.334 3.33301 -26.001 6s-11.167 5.83398 -13.5 9.50098s-3.5 8.16699 -3.5 13.5v789h-423v-789
c0 -5.33301 -1.33301 -9.83301 -4 -13.5s-7.16699 -6.83398 -13.5 -9.50098s-14.833 -4.66699 -25.5 -6s-24 -2 -40 -2s-29.333 0.666992 -40 2s-19.167 3.33301 -25.5 6s-10.833 5.83398 -13.5 9.50098s-4 8.16699 -4 13.5v789h-127c-10.667 0 -18.667 5.33301 -24 16
s-8 28 -8 52c0 12.667 0.666992 23.334 2 32.001s3.33301 15.834 6 21.501s6 9.66699 10 12s8.66699 3.5 14 3.5h127v117c0 57.333 6 106.833 18 148.5s29.333 76 52 103s50.667 47.167 84 60.5s71.333 20 114 20c10 0 19.833 -0.333008 29.5 -1s19 -1.66699 28 -3
s17.333 -3 25 -5s14.334 -4.16699 20.001 -6.5s10.167 -5.16602 13.5 -8.49902s6 -7.66602 8 -12.999s3.5 -12.333 4.5 -21s1.5 -19.334 1.5 -32.001c0 -21.333 -1.66699 -37.166 -5 -47.499s-9 -15.5 -17 -15.5c-4.66699 0 -9.5 0.666992 -14.5 2l-18.5 5
c-7.33301 2 -16 3.83301 -26 5.5s-22.333 2.5 -37 2.5c-40.667 0 -69.834 -16 -87.501 -48s-26.5 -81.667 -26.5 -149v-114h538c17.333 0 30.166 -4.5 38.499 -13.5s12.5 -21.5 12.5 -37.5v-875zM999.002 1356c0 9.33301 4.16504 16.501 12.498 21.501s23.5 7.5 45.5 7.5
c24 0 39.667 -2 47 -6s11 -11.333 11 -22c0 -45.333 -5 -84.833 -15 -118.5s-25 -61.667 -45 -84s-45.167 -39.333 -75.5 -51s-66.166 -17.5 -107.499 -17.5c-44 0 -81.5 6 -112.5 18s-56.167 29.5 -75.5 52.5s-33.333 51 -42 84s-13 70.833 -13 113.5
c0 10.667 3.83301 18.5 11.5 23.5s22.5 7.5 44.5 7.5c11.333 0 21 -0.5 29 -1.5s14.167 -2.66699 18.5 -5s7.5 -5.5 9.5 -9.5s3 -8.33301 3 -13c1.33301 -24 4.5 -45.333 9.5 -64s12.333 -34.667 22 -48s22.334 -23.666 38.001 -30.999s34.834 -11 57.501 -11
c18.667 0 35.667 3 51 9s28.333 15.167 39 27.5s19.167 28.166 25.5 47.499s10.166 42.666 11.499 69.999z" />
    <glyph glyph-name="f_iogonek.liga" unicode="f&#x12f;" horiz-adv-x="1084" 
d="M950 1228c0 -18.667 -1.5 -34.334 -4.5 -47.001s-8.16699 -22.834 -15.5 -30.501s-17.5 -13.167 -30.5 -16.5s-29.5 -5 -49.5 -5c-19.333 0 -35.5 1.66699 -48.5 5s-23.333 8.83301 -31 16.5s-13.167 17.834 -16.5 30.501s-5 28.334 -5 47.001s1.66699 34.167 5 46.5
s8.83301 22.666 16.5 30.999s18 14 31 17s29.167 4.5 48.5 4.5c20 0 36.5 -1.5 49.5 -4.5s23.167 -8.66699 30.5 -17s12.5 -18.666 15.5 -30.999s4.5 -27.833 4.5 -46.5zM932 25c0 -13.333 -1.83398 -24.5078 -5.50098 -33.5078s-8.5 -16.833 -14.5 -23.5l-73 -73
c-10.667 -10.667 -19.167 -20 -25.5 -28s-11 -15.333 -14 -22s-5.16699 -12.834 -6.5 -18.501s-2 -11.5 -2 -17.5c0 -17.333 6 -30.333 18 -39s30.333 -13 55 -13h108c4.66699 0 8.83398 -0.666992 12.501 -2s6.66699 -3.66602 9 -6.99902s4 -8.16602 5 -14.499
s1.5 -14.5 1.5 -24.5s-0.666992 -18.167 -2 -24.5s-3 -11.666 -5 -15.999s-5.33301 -7.5 -10 -9.5s-10 -4 -16 -6c-22 -6 -44.333 -10.5 -67 -13.5s-48 -4.5 -76 -4.5c-30 0 -56.833 3.33301 -80.5 10s-44 16.167 -61 28.5s-29.833 27.833 -38.5 46.5s-13 40.334 -13 65.001
c0 10.667 0.833008 21.834 2.5 33.501s5.33398 23.834 11.001 36.501s13.5 26.167 23.5 40.5s23.667 30.166 41 47.499l57 57v814h-404v-789c0 -5.33301 -1.33301 -9.83301 -4 -13.5s-7.16699 -6.83398 -13.5 -9.50098s-14.833 -4.66699 -25.5 -6s-24 -2 -40 -2
s-29.333 0.666992 -40 2s-19.167 3.33301 -25.5 6s-10.833 5.83398 -13.5 9.50098s-4 8.16699 -4 13.5v789h-127c-10.667 0 -18.667 5.33301 -24 16s-8 28 -8 52c0 12.667 0.666992 23.334 2 32.001s3.33301 15.834 6 21.501s6 9.66699 10 12s8.66699 3.5 14 3.5h127v97
c0 62 6 115.167 18 159.5s29.833 80.833 53.5 109.5s53 49.834 88 63.501s75.167 20.5 120.5 20.5c14.667 0 29.334 -0.666992 44.001 -2s28 -3.33301 40 -6s22.5 -5.5 31.5 -8.5s15.167 -6.16699 18.5 -9.5s6 -6.83301 8 -10.5s3.66699 -8.16699 5 -13.5s2.33301 -12 3 -20
s1 -17.667 1 -29c0 -21.333 -1.66699 -36.666 -5 -45.999s-9 -14 -17 -14c-5.33301 0 -10.833 1.16699 -16.5 3.5s-12.834 4.83301 -21.501 7.5s-19.167 5.16699 -31.5 7.5s-27.833 3.5 -46.5 3.5c-46 0 -78.833 -17 -98.5 -51s-29.167 -88.333 -28.5 -163v-99h519
c17.333 0 30.166 -4.5 38.499 -13.5s12.5 -21.5 12.5 -37.5v-875z" />
    <glyph glyph-name="f_dotlessi.liga" unicode="f&#x131;" horiz-adv-x="1084" 
d="M932 25c0 -5.33301 -1.33203 -9.83691 -3.99902 -13.5039s-7.16699 -6.83398 -13.5 -9.50098s-14.833 -4.66699 -25.5 -6s-24 -2 -40 -2s-29.333 0.666992 -40 2s-19.167 3.33301 -25.5 6s-10.833 5.83398 -13.5 9.50098s-4 8.16699 -4 13.5v789h-404v-789
c0 -5.33301 -1.33301 -9.83301 -4 -13.5s-7.16699 -6.83398 -13.5 -9.50098s-14.833 -4.66699 -25.5 -6s-24 -2 -40 -2s-29.333 0.666992 -40 2s-19.167 3.33301 -25.5 6s-10.833 5.83398 -13.5 9.50098s-4 8.16699 -4 13.5v789h-127c-10.667 0 -18.667 5.33301 -24 16
s-8 28 -8 52c0 12.667 0.666992 23.334 2 32.001s3.33301 15.834 6 21.501s6 9.66699 10 12s8.66699 3.5 14 3.5h127v96c0 62 6 115.167 18 159.5s30 80.833 54 109.5s53.833 49.834 89.5 63.501s77.167 20.5 124.5 20.5c26 0 50 -2.16699 72 -6.5s38.667 -9 50 -14
s19 -9.5 23 -13.5s7.16699 -9.16699 9.5 -15.5s4.16602 -14 5.49902 -23s2 -19.833 2 -32.5c0 -21.333 -1.66699 -36.666 -5 -45.999s-9.33301 -14 -18 -14c-4.66699 0 -10.667 1.33301 -18 4l-26.5 9.5c-10.333 3.66699 -22.166 7 -35.499 10s-28.333 4.5 -45 4.5
c-49.333 0 -84 -17 -104 -51s-30 -88.333 -30 -163v-98h519c17.333 0 30.166 -4.5 38.499 -13.5s12.5 -21.5 12.5 -37.5v-875z" />
    <glyph glyph-name="f_f_igrave.liga" unicode="ff&#xec;" horiz-adv-x="1654" 
d="M1503 25c0 -5.33301 -1.33203 -9.83594 -3.99902 -13.5029s-7.16699 -6.83398 -13.5 -9.50098s-14.833 -4.66699 -25.5 -6s-24.334 -2 -41.001 -2c-15.333 0 -28.5 0.666992 -39.5 2s-19.667 3.33301 -26 6s-10.666 5.83398 -12.999 9.50098s-3.5 8.16699 -3.5 13.5v789
h-405v-789c0 -5.33301 -1.33301 -9.83301 -4 -13.5s-7.16699 -6.83398 -13.5 -9.50098s-14.833 -4.66699 -25.5 -6s-24 -2 -40 -2s-29.333 0.666992 -40 2s-19.167 3.33301 -25.5 6s-10.833 5.83398 -13.5 9.50098s-4 8.16699 -4 13.5v789h-404v-789
c0 -5.33301 -1.33301 -9.83301 -4 -13.5s-7.16699 -6.83398 -13.5 -9.50098s-14.833 -4.66699 -25.5 -6s-24 -2 -40 -2s-29.333 0.666992 -40 2s-19.167 3.33301 -25.5 6s-10.833 5.83398 -13.5 9.50098s-4 8.16699 -4 13.5v789h-127c-10.667 0 -18.667 5.33301 -24 16
s-8 28 -8 52c0 12.667 0.666992 23.334 2 32.001s3.33301 15.834 6 21.501s6 9.66699 10 12s8.66699 3.5 14 3.5h127v85c0 62 6 115.167 18 159.5s30 80.833 54 109.5s53.833 49.834 89.5 63.501s77.167 20.5 124.5 20.5c29.333 0 55 -2.5 77 -7.5s38.167 -9.66699 48.5 -14
s17.5 -8.5 21.5 -12.5s7.33301 -9.16699 10 -15.5s4.5 -14 5.5 -23s1.5 -19.833 1.5 -32.5c0 -21.333 -1.66699 -36.833 -5 -46.5s-9.33301 -14.5 -18 -14.5c-5.33301 0 -11.5 1.5 -18.5 4.5s-15.833 6.33301 -26.5 10s-22.667 7 -36 10s-28.666 4.5 -45.999 4.5
c-49.333 0 -84 -17 -104 -51s-30 -88.333 -30 -163v-87h404v113c0 58 6 108.167 18 150.5s29.5 77.166 52.5 104.499s51.333 47.833 85 61.5s72.167 20.5 115.5 20.5c19.333 0 39.166 -1.5 59.499 -4.5s35 -6.33301 44 -10s15.667 -7.66699 20 -12
s7.66602 -9.83301 9.99902 -16.5s4 -14.5 5 -23.5s1.5 -19.833 1.5 -32.5c0 -20.667 -1.66699 -35.667 -5 -45s-9 -14 -17 -14c-5.33301 0 -10.833 1 -16.5 3s-12.667 4.33301 -21 7s-18.166 5.16699 -29.499 7.5s-24.333 3.5 -39 3.5
c-40.667 0 -70.334 -16.167 -89.001 -48.5s-28 -82.166 -28 -149.499v-115h519c17.333 0 30.333 -4.5 39 -13.5s13 -21.5 13 -37.5v-875zM1495 1132c2 -6.66699 3.16602 -12.834 3.49902 -18.501s-1.5 -10.167 -5.5 -13.5s-10.333 -5.83301 -19 -7.5
s-20.334 -2.5 -35.001 -2.5c-13.333 0 -24.333 0.333008 -33 1s-15.667 2.16699 -21 4.5s-9.66602 5.5 -12.999 9.5s-6.66602 9.33301 -9.99902 16l-131 233c-3.33301 6.66699 -4.83301 12.834 -4.5 18.501s3.5 10.5 9.5 14.5s15 7.16699 27 9.5s27.333 3.5 46 3.5
c16 0 29.167 -0.5 39.5 -1.5s18.666 -2.83301 24.999 -5.5s11.333 -6.5 15 -11.5s6.83398 -10.833 9.50098 -17.5z" />
    <glyph glyph-name="f_f_iacute.liga" unicode="ff&#xed;" horiz-adv-x="1654" 
d="M1503 25c0 -5.33301 -1.33203 -9.83691 -3.99902 -13.5039s-7.16699 -6.83398 -13.5 -9.50098s-14.833 -4.66699 -25.5 -6s-24.334 -2 -41.001 -2c-15.333 0 -28.5 0.666992 -39.5 2s-19.667 3.33301 -26 6s-10.666 5.83398 -12.999 9.50098s-3.5 8.16699 -3.5 13.5v789
h-405v-789c0 -5.33301 -1.33301 -9.83301 -4 -13.5s-7.16699 -6.83398 -13.5 -9.50098s-14.833 -4.66699 -25.5 -6s-24 -2 -40 -2s-29.333 0.666992 -40 2s-19.167 3.33301 -25.5 6s-10.833 5.83398 -13.5 9.50098s-4 8.16699 -4 13.5v789h-404v-789
c0 -5.33301 -1.33301 -9.83301 -4 -13.5s-7.16699 -6.83398 -13.5 -9.50098s-14.833 -4.66699 -25.5 -6s-24 -2 -40 -2s-29.333 0.666992 -40 2s-19.167 3.33301 -25.5 6s-10.833 5.83398 -13.5 9.50098s-4 8.16699 -4 13.5v789h-127c-10.667 0 -18.667 5.33301 -24 16
s-8 28 -8 52c0 12.667 0.666992 23.334 2 32.001s3.33301 15.834 6 21.501s6 9.66699 10 12s8.66699 3.5 14 3.5h127v85c0 62 6 115.167 18 159.5s30 80.833 54 109.5s53.833 49.834 89.5 63.501s77.167 20.5 124.5 20.5c28 0 53.333 -2.33301 76 -7
s39.167 -9.33398 49.5 -14.001s17.5 -9 21.5 -13s7.33301 -9.16699 10 -15.5s4.5 -14 5.5 -23s1.5 -19.833 1.5 -32.5c0 -21.333 -1.66699 -36.833 -5 -46.5s-9.33301 -14.5 -18 -14.5c-5.33301 0 -11.5 1.5 -18.5 4.5s-15.833 6.33301 -26.5 10s-22.667 7 -36 10
s-28.666 4.5 -45.999 4.5c-49.333 0 -84 -17 -104 -51s-30 -88.333 -30 -163v-87h404v97c0 62 6.16699 115.167 18.5 159.5s30.5 80.833 54.5 109.5s53.833 49.834 89.5 63.501s76.5 20.5 122.5 20.5c28 0 53.5 -2.5 76.5 -7.5s39.333 -9.66699 49 -14s16.667 -8.5 21 -12.5
s7.66602 -9.16699 9.99902 -15.5s4 -14 5 -23s1.5 -19.833 1.5 -32.5c0 -21.333 -1.66699 -36.666 -5 -45.999s-9.33301 -14 -18 -14c-4.66699 0 -10.5 1.33301 -17.5 4l-26 9.5c-10.333 3.66699 -22.333 7 -36 10s-28.834 4.5 -45.501 4.5
c-48.667 0 -83.167 -17 -103.5 -51s-30.5 -88.333 -30.5 -163v-99h519c17.333 0 30.333 -4.5 39 -13.5s13 -21.5 13 -37.5v-875zM1495 1364c4 7.33301 8.66602 13.333 13.999 18s11.833 8.33398 19.5 11.001s17.167 4.66699 28.5 6s25 2 41 2
c18.667 0 33.834 -1.16699 45.501 -3.5s19.834 -5.66602 24.501 -9.99902s6.66699 -9.33301 6 -15s-3.66699 -11.5 -9 -17.5l-181 -233c-5.33301 -6.66699 -10.166 -12 -14.499 -16s-9.33301 -7.16699 -15 -9.5s-13 -4 -22 -5s-20.167 -1.5 -33.5 -1.5
c-14.667 0 -26.334 1 -35.001 3s-14.834 4.66699 -18.501 8s-5 7.66602 -4 12.999s3.83301 11.666 8.5 18.999zM1209 949.996z" />
    <glyph glyph-name="f_f_icircumflex.liga" unicode="ff&#xee;" horiz-adv-x="1654" 
d="M1503 25c0 -5.33301 -1.33203 -9.83496 -3.99902 -13.502s-7.16699 -6.83398 -13.5 -9.50098s-14.833 -4.66699 -25.5 -6s-24.334 -2 -41.001 -2c-15.333 0 -28.5 0.666992 -39.5 2s-19.667 3.33301 -26 6s-10.666 5.83398 -12.999 9.50098s-3.5 8.16699 -3.5 13.5v789
h-405v-789c0 -5.33301 -1.33301 -9.83301 -4 -13.5s-7.16699 -6.83398 -13.5 -9.50098s-14.833 -4.66699 -25.5 -6s-24 -2 -40 -2s-29.333 0.666992 -40 2s-19.167 3.33301 -25.5 6s-10.833 5.83398 -13.5 9.50098s-4 8.16699 -4 13.5v789h-404v-789
c0 -5.33301 -1.33301 -9.83301 -4 -13.5s-7.16699 -6.83398 -13.5 -9.50098s-14.833 -4.66699 -25.5 -6s-24 -2 -40 -2s-29.333 0.666992 -40 2s-19.167 3.33301 -25.5 6s-10.833 5.83398 -13.5 9.50098s-4 8.16699 -4 13.5v789h-127c-10.667 0 -18.667 5.33301 -24 16
s-8 28 -8 52c0 12.667 0.666992 23.334 2 32.001s3.33301 15.834 6 21.501s6 9.66699 10 12s8.66699 3.5 14 3.5h127v85c0 62 6 115.167 18 159.5s30 80.833 54 109.5s53.833 49.834 89.5 63.501s77.167 20.5 124.5 20.5c29.333 0 55 -2.5 77 -7.5s38.167 -9.66699 48.5 -14
s17.5 -8.5 21.5 -12.5s7.33301 -9.16699 10 -15.5s4.5 -14 5.5 -23s1.5 -19.833 1.5 -32.5c0 -21.333 -1.66699 -36.833 -5 -46.5s-9.33301 -14.5 -18 -14.5c-5.33301 0 -11.5 1.5 -18.5 4.5s-15.833 6.33301 -26.5 10s-22.667 7 -36 10s-28.666 4.5 -45.999 4.5
c-49.333 0 -84 -17 -104 -51s-30 -88.333 -30 -163v-87h404v113c0 58 6 108.167 18 150.5s29.5 77.166 52.5 104.499s51.333 47.833 85 61.5s72.167 20.5 115.5 20.5c19.333 0 39.166 -1.5 59.499 -4.5s35 -6.33301 44 -10s15.5 -7.66699 19.5 -12s7.16699 -9.5 9.5 -15.5
s4 -13.5 5 -22.5s1.5 -19.833 1.5 -32.5c0 -20.667 -1.5 -35.667 -4.5 -45s-8.83301 -14 -17.5 -14c-4.66699 0 -10 1 -16 3l-21.5 7c-8.33301 2.66699 -18 5 -29 7s-23.833 3 -38.5 3c-40.667 0 -70.334 -16 -89.001 -48s-28 -81.667 -28 -149v-117h519
c17.333 0 30.333 -4.5 39 -13.5s13 -21.5 13 -37.5v-875zM1314 1118c-4 -6 -7.83203 -10.8359 -11.499 -14.5029s-8.33398 -6.66699 -14.001 -9s-12.667 -3.83301 -21 -4.5s-18.833 -1 -31.5 -1c-16.667 0 -29.334 1 -38.001 3s-14.5 5.33301 -17.5 10
s-3.16699 10.834 -0.5 18.501s7.66699 16.834 15 27.501l153 226c3.33301 5.33301 7.16602 9.5 11.499 12.5s9.83301 5.5 16.5 7.5s15.167 3.33301 25.5 4s23.166 1 38.499 1c13.333 0 24.666 -0.333008 33.999 -1s17.333 -2.16699 24 -4.5s12.167 -5.16602 16.5 -8.49902
s8.16602 -7 11.499 -11l156 -229c6.66699 -10.667 11.334 -19.5 14.001 -26.5s2.33398 -12.667 -0.999023 -17s-9.66602 -7.5 -18.999 -9.5s-22.333 -3 -39 -3c-14 0 -25.167 0.333008 -33.5 1s-15.166 2.16699 -20.499 4.5s-9.66602 5.33301 -12.999 9s-7 8.5 -11 14.5
l-122 181z" />
    <glyph glyph-name="f_f_itilde.liga" unicode="ff&#x129;" horiz-adv-x="1673" 
d="M1521 25c0 -5.33301 -1.33496 -9.83301 -4.00195 -13.5s-7.16699 -6.83398 -13.5 -9.50098s-14.833 -4.66699 -25.5 -6s-24 -2 -40 -2s-29.333 0.666992 -40 2s-19.167 3.33301 -25.5 6s-10.833 5.83398 -13.5 9.50098s-4 8.16699 -4 13.5v789h-423v-789
c0 -5.33301 -1.33301 -9.83301 -4 -13.5s-7.16699 -6.83398 -13.5 -9.50098s-14.833 -4.66699 -25.5 -6s-24 -2 -40 -2s-29.333 0.666992 -40 2s-19.167 3.33301 -25.5 6s-10.833 5.83398 -13.5 9.50098s-4 8.16699 -4 13.5v789h-404v-789
c0 -5.33301 -1.33301 -9.83301 -4 -13.5s-7.16699 -6.83398 -13.5 -9.50098s-14.833 -4.66699 -25.5 -6s-24 -2 -40 -2s-29.333 0.666992 -40 2s-19.167 3.33301 -25.5 6s-10.833 5.83398 -13.5 9.50098s-4 8.16699 -4 13.5v789h-127c-10.667 0 -18.667 5.33301 -24 16
s-8 28 -8 52c0 12.667 0.666992 23.334 2 32.001s3.33301 15.834 6 21.501s6 9.66699 10 12s8.66699 3.5 14 3.5h127v85c0 62 6 115.167 18 159.5s30 80.833 54 109.5s53.833 49.834 89.5 63.501s77.167 20.5 124.5 20.5c29.333 0 55 -2.5 77 -7.5s38.167 -9.66699 48.5 -14
s17.5 -8.5 21.5 -12.5s7.33301 -9.16699 10 -15.5s4.5 -14 5.5 -23s1.5 -19.833 1.5 -32.5c0 -21.333 -1.66699 -36.833 -5 -46.5s-9.33301 -14.5 -18 -14.5c-5.33301 0 -11.5 1.5 -18.5 4.5s-15.833 6.33301 -26.5 10s-22.667 7 -36 10s-28.666 4.5 -45.999 4.5
c-49.333 0 -84 -17 -104 -51s-30 -88.333 -30 -163v-87h404v118c0 57.333 5.83301 106.666 17.5 147.999s29 75.666 52 102.999s51 47.666 84 60.999s71.167 20 114.5 20c19.333 0 38.333 -1.33301 57 -4s32.334 -5.83398 41.001 -9.50098s14.667 -7.16699 18 -10.5
s6 -7.66602 8 -12.999s3.5 -12.333 4.5 -21s1.5 -19.334 1.5 -32.001c0 -21.333 -1.66699 -37.166 -5 -47.499s-8.66602 -15.5 -15.999 -15.5c-4.66699 0 -9.66699 0.666992 -15 2s-11.5 3 -18.5 5s-15.5 3.83301 -25.5 5.5s-22.333 2.5 -37 2.5c-40.667 0 -70 -16 -88 -48
s-27 -81.667 -27 -149v-115h538c17.333 0 30.166 -4.5 38.499 -13.5s12.5 -21.5 12.5 -37.5v-875zM1725 1292c0 -35.333 -4.16602 -66.499 -12.499 -93.499s-19.833 -49.667 -34.5 -68s-32.5 -32.333 -53.5 -42s-43.833 -14.5 -68.5 -14.5
c-32.667 0 -60.167 6.83301 -82.5 20.5s-42.333 28.834 -60 45.501l-47.5 45.5c-14 13.667 -28.667 20.5 -44 20.5c-20 0 -34.5 -9.83301 -43.5 -29.5s-13.5 -44.834 -13.5 -75.501c0 -10 -4 -17 -12 -21s-23 -6 -45 -6c-18.667 0 -32.5 2.66699 -41.5 8
s-13.5 16.666 -13.5 33.999c0 66.667 15 119.667 45 159s71.667 59 125 59c21.333 0 40.333 -3.16699 57 -9.5s32.167 -14.5 46.5 -24.5s27.166 -20.667 38.499 -32l32 -32c10 -10 19.833 -18.167 29.5 -24.5s19.834 -9.5 30.501 -9.5c18 0 31.833 8.66699 41.5 26
s14.5 43.666 14.5 78.999c0 10 4.16699 17 12.5 21s22.166 6 41.499 6c21.333 0 36.333 -2.66699 45 -8s13 -16.666 13 -33.999z" />
    <glyph glyph-name="f_f_idieresis.liga" unicode="ff&#xef;" horiz-adv-x="1673" 
d="M1521 25c0 -5.33301 -1.33301 -9.83301 -4 -13.5s-7.16699 -6.83398 -13.5 -9.50098s-14.833 -4.66699 -25.5 -6s-24 -2 -40 -2s-29.333 0.666992 -40 2s-19.167 3.33301 -25.5 6s-10.833 5.83398 -13.5 9.50098s-4 8.16699 -4 13.5v789h-423v-789
c0 -5.33301 -1.33301 -9.83301 -4 -13.5s-7.16699 -6.83398 -13.5 -9.50098s-14.833 -4.66699 -25.5 -6s-24 -2 -40 -2s-29.333 0.666992 -40 2s-19.167 3.33301 -25.5 6s-10.833 5.83398 -13.5 9.50098s-4 8.16699 -4 13.5v789h-404v-789
c0 -5.33301 -1.33301 -9.83301 -4 -13.5s-7.16699 -6.83398 -13.5 -9.50098s-14.833 -4.66699 -25.5 -6s-24 -2 -40 -2s-29.333 0.666992 -40 2s-19.167 3.33301 -25.5 6s-10.833 5.83398 -13.5 9.50098s-4 8.16699 -4 13.5v789h-127c-10.667 0 -18.667 5.33301 -24 16
s-8 28 -8 52c0 12.667 0.666992 23.334 2 32.001s3.33301 15.834 6 21.501s6 9.66699 10 12s8.66699 3.5 14 3.5h127v85c0 62 6 115.167 18 159.5s30 80.833 54 109.5s53.833 49.834 89.5 63.501s77.167 20.5 124.5 20.5c29.333 0 55 -2.5 77 -7.5s38.167 -9.66699 48.5 -14
s17.5 -8.5 21.5 -12.5s7.33301 -9.16699 10 -15.5s4.5 -14 5.5 -23s1.5 -19.833 1.5 -32.5c0 -21.333 -1.66699 -36.833 -5 -46.5s-9.33301 -14.5 -18 -14.5c-5.33301 0 -11.5 1.5 -18.5 4.5s-15.833 6.33301 -26.5 10s-22.667 7 -36 10s-28.666 4.5 -45.999 4.5
c-49.333 0 -84 -17 -104 -51s-30 -88.333 -30 -163v-87h404v118c0 57.333 5.83301 106.666 17.5 147.999s29 75.666 52 102.999s51 47.666 84 60.999s71.167 20 114.5 20c19.333 0 38.5 -1.33301 57.5 -4s32.667 -5.83398 41 -9.50098s14.166 -7.16699 17.499 -10.5
s6 -7.66602 8 -12.999s3.5 -12.333 4.5 -21s1.5 -19.334 1.5 -32.001c0 -21.333 -1.66699 -37.166 -5 -47.499s-8.66602 -15.5 -15.999 -15.5c-4.66699 0 -9.66699 0.666992 -15 2s-11.5 3 -18.5 5s-15.5 3.83301 -25.5 5.5s-22.333 2.5 -37 2.5c-40.667 0 -70 -16 -88 -48
s-27 -81.667 -27 -149v-115h538c17.333 0 30.166 -4.5 38.499 -13.5s12.5 -21.5 12.5 -37.5v-875zM1217 1228c0 18 1.5 33 4.5 45s8 21.667 15 29s16.167 12.5 27.5 15.5s25.333 4.5 42 4.5s30.834 -1.5 42.501 -4.5s21 -8.16699 28 -15.5s11.833 -17 14.5 -29s4 -27 4 -45
s-1.33301 -33 -4 -45s-7.5 -21.667 -14.5 -29s-16.333 -12.666 -28 -15.999s-25.834 -5 -42.501 -5s-30.667 1.66699 -42 5s-20.5 8.66602 -27.5 15.999s-12 17 -15 29s-4.5 27 -4.5 45zM1506 1228c0 18 1.5 33 4.5 45s8 21.667 15 29s16 12.5 27 15.5s25.167 4.5 42.5 4.5
c16.667 0 30.667 -1.5 42 -4.5s20.5 -8.16699 27.5 -15.5s12 -17 15 -29s4.5 -27 4.5 -45s-1.5 -33 -4.5 -45s-8 -21.667 -15 -29s-16.167 -12.666 -27.5 -15.999s-25.333 -5 -42 -5c-17.333 0 -31.5 1.66699 -42.5 5s-20 8.66602 -27 15.999s-12 17 -15 29s-4.5 27 -4.5 45
z" />
    <glyph glyph-name="f_f_imacron.liga" unicode="ff&#x12b;" horiz-adv-x="1673" 
d="M1521 25c0 -5.33301 -1.33301 -9.83301 -4 -13.5s-7.16699 -6.83398 -13.5 -9.50098s-14.833 -4.66699 -25.5 -6s-24 -2 -40 -2s-29.333 0.666992 -40 2s-19.167 3.33301 -25.5 6s-10.833 5.83398 -13.5 9.50098s-4 8.16699 -4 13.5v789h-423v-789
c0 -5.33301 -1.33301 -9.83301 -4 -13.5s-7.16699 -6.83398 -13.5 -9.50098s-14.833 -4.66699 -25.5 -6s-24 -2 -40 -2s-29.333 0.666992 -40 2s-19.167 3.33301 -25.5 6s-10.833 5.83398 -13.5 9.50098s-4 8.16699 -4 13.5v789h-404v-789
c0 -5.33301 -1.33301 -9.83301 -4 -13.5s-7.16699 -6.83398 -13.5 -9.50098s-14.833 -4.66699 -25.5 -6s-24 -2 -40 -2s-29.333 0.666992 -40 2s-19.167 3.33301 -25.5 6s-10.833 5.83398 -13.5 9.50098s-4 8.16699 -4 13.5v789h-127c-10.667 0 -18.667 5.33301 -24 16
s-8 28 -8 52c0 12.667 0.666992 23.334 2 32.001s3.33301 15.834 6 21.501s6 9.66699 10 12s8.66699 3.5 14 3.5h127v85c0 62 6 115.167 18 159.5s30 80.833 54 109.5s53.833 49.834 89.5 63.501s77.167 20.5 124.5 20.5c29.333 0 55 -2.5 77 -7.5s38.167 -9.66699 48.5 -14
s17.5 -8.5 21.5 -12.5s7.33301 -9.16699 10 -15.5s4.5 -14 5.5 -23s1.5 -19.833 1.5 -32.5c0 -21.333 -1.66699 -36.833 -5 -46.5s-9.33301 -14.5 -18 -14.5c-5.33301 0 -11.5 1.5 -18.5 4.5s-15.833 6.33301 -26.5 10s-22.667 7 -36 10s-28.666 4.5 -45.999 4.5
c-49.333 0 -84 -17 -104 -51s-30 -88.333 -30 -163v-87h404v118c0 57.333 5.83301 106.666 17.5 147.999s29 75.666 52 102.999s51 47.666 84 60.999s71.167 20 114.5 20c19.333 0 38.5 -1.33301 57.5 -4s32.667 -5.83398 41 -9.50098s14.166 -7.16699 17.499 -10.5
s6 -7.66602 8 -12.999s3.5 -12.333 4.5 -21s1.5 -19.334 1.5 -32.001c0 -21.333 -1.66699 -37.166 -5 -47.499s-8.66602 -15.5 -15.999 -15.5c-4.66699 0 -9.66699 0.666992 -15 2s-11.5 3 -18.5 5s-15.5 3.83301 -25.5 5.5s-22.333 2.5 -37 2.5c-40.667 0 -70 -16 -88 -48
s-27 -81.667 -27 -149v-115h538c17.333 0 30.166 -4.5 38.499 -13.5s12.5 -21.5 12.5 -37.5v-875zM1658 1293c4.66699 0 9 -1.16699 13 -3.5s7.16699 -6 9.5 -11s4.33301 -11.667 6 -20s2.5 -18.5 2.5 -30.5c0 -11.333 -0.833008 -20.833 -2.5 -28.5
s-3.66699 -14.167 -6 -19.5s-5.5 -9.33301 -9.5 -12s-8.33301 -4 -13 -4h-428c-6 0 -11.167 1.33301 -15.5 4s-7.83301 6.66699 -10.5 12s-4.5 11.833 -5.5 19.5s-1.5 17.167 -1.5 28.5c0 22.667 2.5 39.167 7.5 49.5s13.5 15.5 25.5 15.5h428z" />
    <glyph glyph-name="f_f_ibreve.liga" unicode="ff&#x12d;" horiz-adv-x="1673" 
d="M1521 25c0 -5.33301 -1.33301 -9.83301 -4 -13.5s-7.16699 -6.83398 -13.5 -9.50098s-14.833 -4.66699 -25.5 -6s-24 -2 -40 -2s-29.333 0.666992 -40 2s-19.167 3.33301 -25.5 6s-10.833 5.83398 -13.5 9.50098s-4 8.16699 -4 13.5v789h-423v-789
c0 -5.33301 -1.33301 -9.83301 -4 -13.5s-7.16699 -6.83398 -13.5 -9.50098s-14.833 -4.66699 -25.5 -6s-24 -2 -40 -2s-29.333 0.666992 -40 2s-19.167 3.33301 -25.5 6s-10.833 5.83398 -13.5 9.50098s-4 8.16699 -4 13.5v789h-404v-789
c0 -5.33301 -1.33301 -9.83301 -4 -13.5s-7.16699 -6.83398 -13.5 -9.50098s-14.833 -4.66699 -25.5 -6s-24 -2 -40 -2s-29.333 0.666992 -40 2s-19.167 3.33301 -25.5 6s-10.833 5.83398 -13.5 9.50098s-4 8.16699 -4 13.5v789h-127c-10.667 0 -18.667 5.33301 -24 16
s-8 28 -8 52c0 12.667 0.666992 23.334 2 32.001s3.33301 15.834 6 21.501s6 9.66699 10 12s8.66699 3.5 14 3.5h127v85c0 62 6 115.167 18 159.5s30 80.833 54 109.5s53.833 49.834 89.5 63.501s77.167 20.5 124.5 20.5c29.333 0 55 -2.5 77 -7.5s38.167 -9.66699 48.5 -14
s17.5 -8.5 21.5 -12.5s7.33301 -9.16699 10 -15.5s4.5 -14 5.5 -23s1.5 -19.833 1.5 -32.5c0 -21.333 -1.66699 -36.833 -5 -46.5s-9.33301 -14.5 -18 -14.5c-5.33301 0 -11.5 1.5 -18.5 4.5s-15.833 6.33301 -26.5 10s-22.667 7 -36 10s-28.666 4.5 -45.999 4.5
c-49.333 0 -84 -17 -104 -51s-30 -88.333 -30 -163v-87h404v118c0 57.333 5.83301 106.666 17.5 147.999s29 75.666 52 102.999s51 47.666 84 60.999s71.167 20 114.5 20c19.333 0 38.5 -1.33301 57.5 -4s32.667 -5.83398 41 -9.50098s14.166 -7.16699 17.499 -10.5
s6 -7.66602 8 -12.999s3.5 -12.333 4.5 -21s1.5 -19.334 1.5 -32.001c0 -21.333 -1.66699 -37.166 -5 -47.499s-8.66602 -15.5 -15.999 -15.5c-4.66699 0 -9.66699 0.666992 -15 2s-11.5 3 -18.5 5s-15.5 3.83301 -25.5 5.5s-22.333 2.5 -37 2.5c-40.667 0 -70 -16 -88 -48
s-27 -81.667 -27 -149v-115h538c17.333 0 30.166 -4.5 38.499 -13.5s12.5 -21.5 12.5 -37.5v-875zM1569 1356c0.666992 9.33301 5.16699 16.4971 13.5 21.4971s23.5 7.5 45.5 7.5c12 0 21.667 -0.5 29 -1.5s13.166 -2.66699 17.499 -5s7.16602 -5.16602 8.49902 -8.49902
s2 -7.66602 2 -12.999c0 -45.333 -5 -84.833 -15 -118.5s-25 -61.667 -45 -84s-45.167 -39.333 -75.5 -51s-66.166 -17.5 -107.499 -17.5c-44 0 -81.5 6 -112.5 18s-56.167 29.5 -75.5 52.5s-33.333 51 -42 84s-13 70.833 -13 113.5c0 5.33301 0.833008 10 2.5 14
s4.83398 7.33301 9.50098 10s10.5 4.5 17.5 5.5s15.833 1.5 26.5 1.5c24 0 40 -2.16699 48 -6.5s12.333 -11.833 13 -22.5c1.33301 -24 4.5 -45.333 9.5 -64s12.333 -34.667 22 -48s22.167 -23.666 37.5 -30.999s34.333 -11 57 -11c38 0 68 12 90 36s34.333 63.333 37 118z
" />
    <glyph glyph-name="f_f_dotlessi.liga" unicode="ff&#x131;" horiz-adv-x="1654" 
d="M1503 25c0 -5.33301 -1.33203 -9.83691 -3.99902 -13.5039s-7.16699 -6.83398 -13.5 -9.50098s-14.833 -4.66699 -25.5 -6s-24.334 -2 -41.001 -2c-15.333 0 -28.5 0.666992 -39.5 2s-19.667 3.33301 -26 6s-10.666 5.83398 -12.999 9.50098s-3.5 8.16699 -3.5 13.5v789
h-405v-789c0 -5.33301 -1.33301 -9.83301 -4 -13.5s-7.16699 -6.83398 -13.5 -9.50098s-14.833 -4.66699 -25.5 -6s-24 -2 -40 -2s-29.333 0.666992 -40 2s-19.167 3.33301 -25.5 6s-10.833 5.83398 -13.5 9.50098s-4 8.16699 -4 13.5v789h-404v-789
c0 -5.33301 -1.33301 -9.83301 -4 -13.5s-7.16699 -6.83398 -13.5 -9.50098s-14.833 -4.66699 -25.5 -6s-24 -2 -40 -2s-29.333 0.666992 -40 2s-19.167 3.33301 -25.5 6s-10.833 5.83398 -13.5 9.50098s-4 8.16699 -4 13.5v789h-127c-10.667 0 -18.667 5.33301 -24 16
s-8 28 -8 52c0 12.667 0.666992 23.334 2 32.001s3.33301 15.834 6 21.501s6 9.66699 10 12s8.66699 3.5 14 3.5h127v85c0 62 6 115.167 18 159.5s30 80.833 54 109.5s53.833 49.834 89.5 63.501s77.167 20.5 124.5 20.5c28 0 53.333 -2.33301 76 -7
s39.167 -9.33398 49.5 -14.001s17.5 -9 21.5 -13s7.33301 -9.16699 10 -15.5s4.5 -14 5.5 -23s1.5 -19.833 1.5 -32.5c0 -21.333 -1.66699 -36.833 -5 -46.5s-9.33301 -14.5 -18 -14.5c-5.33301 0 -11.5 1.5 -18.5 4.5s-15.833 6.33301 -26.5 10s-22.667 7 -36 10
s-28.666 4.5 -45.999 4.5c-49.333 0 -84 -17 -104 -51s-30 -88.333 -30 -163v-87h404v97c0 62 6.16699 115.167 18.5 159.5s30.5 80.833 54.5 109.5s53.833 49.834 89.5 63.501s76.5 20.5 122.5 20.5c28 0 53.5 -2.5 76.5 -7.5s39.333 -9.66699 49 -14s16.667 -8.5 21 -12.5
s7.66602 -9.16699 9.99902 -15.5s4 -14 5 -23s1.5 -19.833 1.5 -32.5c0 -21.333 -1.66699 -36.666 -5 -45.999s-9.33301 -14 -18 -14c-4.66699 0 -10.5 1.33301 -17.5 4l-26 9.5c-10.333 3.66699 -22.333 7 -36 10s-28.834 4.5 -45.501 4.5
c-48.667 0 -83.167 -17 -103.5 -51s-30.5 -88.333 -30.5 -163v-99h519c17.333 0 30.333 -4.5 39 -13.5s13 -21.5 13 -37.5v-875z" />
    <glyph glyph-name="f_j.liga" unicode="fj" horiz-adv-x="1084" 
d="M950 1228c0 -18.667 -1.5 -34.334 -4.5 -47.001s-8.16699 -22.834 -15.5 -30.501s-17.5 -13.167 -30.5 -16.5s-29.5 -5 -49.5 -5c-19.333 0 -35.5 1.66699 -48.5 5s-23.333 8.83301 -31 16.5s-13.167 17.834 -16.5 30.501s-5 28.334 -5 47.001s1.66699 34.167 5 46.5
s8.83301 22.666 16.5 30.999s18 14 31 17s29.167 4.5 48.5 4.5c20 0 36.5 -1.5 49.5 -4.5s23.167 -8.66699 30.5 -17s12.5 -18.666 15.5 -30.999s4.5 -27.833 4.5 -46.5zM932 -28c0 -61.333 -4.16406 -111.334 -12.4971 -150.001s-22.833 -71.834 -43.5 -99.501
s-48.334 -49.167 -83.001 -64.5s-78.334 -23 -131.001 -23c-13.333 0 -26.833 0.666992 -40.5 2s-26.5 3.33301 -38.5 6s-22.667 6 -32 10s-15.833 7.5 -19.5 10.5s-6.33398 6.33301 -8.00098 10s-3 8.16699 -4 13.5s-1.83301 10.666 -2.5 15.999s-1 13.333 -1 24
c0 12 0.666992 22.5 2 31.5s3 16.167 5 21.5s4.66699 9.16602 8 11.499s7 3.5 11 3.5c6 0 13.167 -1.5 21.5 -4.5s19.333 -6.16699 33 -9.5s30.834 -5 51.501 -5c19.333 0 36.5 3.16699 51.5 9.5s27.333 17 37 32s17 34.667 22 59s7.5 60.833 7.5 109.5v828h-404v-789
c0 -5.33301 -1.33301 -9.83301 -4 -13.5s-7.16699 -6.83398 -13.5 -9.50098s-14.833 -4.66699 -25.5 -6s-24 -2 -40 -2s-29.333 0.666992 -40 2s-19.167 3.33301 -25.5 6s-10.833 5.83398 -13.5 9.50098s-4 8.16699 -4 13.5v789h-127c-10.667 0 -18.667 5.33301 -24 16
s-8 28 -8 52c0 12.667 0.666992 23.334 2 32.001s3.33301 15.834 6 21.501s6 9.66699 10 12s8.66699 3.5 14 3.5h127v97c0 62 6 115.167 18 159.5s29.833 80.833 53.5 109.5s53 49.834 88 63.501s75.167 20.5 120.5 20.5c14.667 0 29.334 -0.666992 44.001 -2
s28 -3.33301 40 -6s22.5 -5.5 31.5 -8.5s15.167 -6.16699 18.5 -9.5s6 -6.83301 8 -10.5s3.66699 -8.16699 5 -13.5s2.33301 -12 3 -20s1 -17.667 1 -29c0 -21.333 -1.66699 -36.666 -5 -45.999s-9 -14 -17 -14c-5.33301 0 -10.833 1.16699 -16.5 3.5
s-12.834 4.83301 -21.501 7.5s-19.167 5.16699 -31.5 7.5s-27.833 3.5 -46.5 3.5c-46 0 -78.667 -17 -98 -51s-29 -88.333 -29 -163v-99h519c17.333 0 30.166 -4.5 38.499 -13.5s12.5 -21.5 12.5 -37.5v-928z" />
    <glyph glyph-name="f_jcircumflex.liga" unicode="f&#x135;" horiz-adv-x="1084" 
d="M932 -48c0 -48 -4.16211 -91.332 -12.4951 -129.999s-22.833 -71.834 -43.5 -99.501s-48.334 -49.167 -83.001 -64.5s-78.334 -23 -131.001 -23c-13.333 0 -26.833 0.666992 -40.5 2s-26.5 3.33301 -38.5 6s-22.667 6 -32 10s-15.833 7.5 -19.5 10.5
s-6.33398 6.33301 -8.00098 10s-3 8.16699 -4 13.5s-1.83301 11 -2.5 17s-1 13.667 -1 23c0 12 0.666992 22.5 2 31.5s3 16.167 5 21.5s4.66699 9.16602 8 11.499s7 3.5 11 3.5c6 0 14.5 -2 25.5 -6s22.833 -7.16699 35.5 -9.5s27.667 -3.5 45 -3.5
c19.333 0 36.5 3.16699 51.5 9.5s27.333 17 37 32s17 34.667 22 59s7.5 54.166 7.5 89.499v848h-404v-789c0 -5.33301 -1.33301 -9.83301 -4 -13.5s-7.16699 -6.83398 -13.5 -9.50098s-14.833 -4.66699 -25.5 -6s-24 -2 -40 -2s-29.333 0.666992 -40 2
s-19.167 3.33301 -25.5 6s-10.833 5.83398 -13.5 9.50098s-4 8.16699 -4 13.5v789h-127c-10.667 0 -18.667 5.33301 -24 16s-8 28 -8 52c0 12.667 0.666992 23.334 2 32.001s3.33301 15.834 6 21.501s6 9.66699 10 12s8.66699 3.5 14 3.5h127v112c0 58 6 108.167 18 150.5
s29.5 77.166 52.5 104.499s51.333 47.833 85 61.5s72.167 20.5 115.5 20.5c19.333 0 38.5 -1.5 57.5 -4.5s33.5 -6.33301 43.5 -10s17.167 -7.66699 21.5 -12s7.66602 -9.5 9.99902 -15.5s4 -13.5 5 -22.5s1.5 -19.833 1.5 -32.5c0 -20.667 -1.66699 -35.667 -5 -45
s-9.33301 -14 -18 -14c-4.66699 0 -10 1 -16 3l-21.5 7c-8.33301 2.66699 -18 5.16699 -29 7.5s-23.833 3.5 -38.5 3.5c-40.667 0 -70.167 -16.167 -88.5 -48.5s-27.5 -82.166 -27.5 -149.499v-116h519c17.333 0 30.166 -4.5 38.499 -13.5s12.5 -21.5 12.5 -37.5v-948z
M743.005 1118c-3.33301 -6 -7 -10.8359 -11 -14.5029s-8.66699 -6.66699 -14 -9s-12.333 -3.83301 -21 -4.5s-19.334 -1 -32.001 -1c-16 0 -28.5 1 -37.5 3s-14.833 5.33301 -17.5 10s-2.66699 10.834 0 18.501s7.66699 16.834 15 27.501l153 226c4 5.33301 8 9.5 12 12.5
s9.33301 5.5 16 7.5s15.167 3.33301 25.5 4s22.833 1 37.5 1c14 0 25.667 -0.333008 35 -1s17.333 -2.16699 24 -4.5s12.167 -5.16602 16.5 -8.49902s8.16602 -7 11.499 -11l156 -229c6.66699 -10.667 11.167 -19.5 13.5 -26.5s1.83301 -12.667 -1.5 -17
s-9.66602 -7.5 -18.999 -9.5s-22.333 -3 -39 -3c-13.333 0 -24.333 0.333008 -33 1s-15.667 2.16699 -21 4.5s-9.66602 5.33301 -12.999 9s-7 8.5 -11 14.5l-122 181z" />
    <glyph glyph-name="f_f_j.liga" unicode="ffj" horiz-adv-x="1654" 
d="M1521 1228c0 -18.667 -1.5 -34.334 -4.5 -47.001s-8.33301 -22.834 -16 -30.501s-18 -13.167 -31 -16.5s-29.5 -5 -49.5 -5c-19.333 0 -35.5 1.66699 -48.5 5s-23.333 8.83301 -31 16.5s-13.167 17.834 -16.5 30.501s-5 28.334 -5 47.001s1.66699 34.167 5 46.5
s8.83301 22.666 16.5 30.999s18 14 31 17s29.167 4.5 48.5 4.5c20 0 36.5 -1.5 49.5 -4.5s23.333 -8.66699 31 -17s13 -18.666 16 -30.999s4.5 -27.833 4.5 -46.5zM766 1048c0 62 6.17188 115.165 18.5049 159.498s30.166 80.833 53.499 109.5s52.5 49.834 87.5 63.501
s75.167 20.5 120.5 20.5c16 0 31.333 -0.666992 46 -2s28 -3.33301 40 -6s22.167 -5.5 30.5 -8.5s14.166 -6.16699 17.499 -9.5s6 -6.83301 8 -10.5s3.66699 -8.16699 5 -13.5s2.33301 -12 3 -20s1 -17.667 1 -29c0 -21.333 -1.66699 -36.666 -5 -45.999
s-9.33301 -14 -18 -14c-4.66699 0 -9.83398 1.16699 -15.501 3.5s-12.667 4.83301 -21 7.5s-18.666 5.16699 -30.999 7.5s-27.833 3.5 -46.5 3.5c-46 0 -78.833 -17 -98.5 -51s-29.5 -88.333 -29.5 -163v-99h519c17.333 0 30.333 -4.5 39 -13.5s13 -21.5 13 -37.5v-948
c0 -48 -4.16699 -91.333 -12.5 -130s-22.833 -71.834 -43.5 -99.501s-48.334 -49.167 -83.001 -64.5s-78.334 -23 -131.001 -23c-14.667 0 -28.667 0.666992 -42 2s-26 3.33301 -38 6s-22.667 6 -32 10s-15.833 7.5 -19.5 10.5s-6.33398 6.33301 -8.00098 10s-3 8 -4 13
s-1.83301 10.5 -2.5 16.5s-1 14 -1 24c0 12 0.5 22.5 1.5 31.5s2.66699 16.167 5 21.5s5.16602 9.16602 8.49902 11.499s7 3.5 11 3.5c6 0 11.5 -1 16.5 -3s11.333 -4.16699 19 -6.5s17 -4.5 28 -6.5s25.167 -3 42.5 -3c19.333 0 36.5 3.16699 51.5 9.5s27.5 17 37.5 32
s17.5 34.667 22.5 59s7.5 54.166 7.5 89.499v848h-405v-789c0 -5.33301 -1.33301 -9.83301 -4 -13.5s-7.16699 -6.83398 -13.5 -9.50098s-14.833 -4.66699 -25.5 -6s-24 -2 -40 -2s-29.333 0.666992 -40 2s-19.167 3.33301 -25.5 6s-10.833 5.83398 -13.5 9.50098
s-4 8.16699 -4 13.5v789h-404v-789c0 -5.33301 -1.33301 -9.83301 -4 -13.5s-7.16699 -6.83398 -13.5 -9.50098s-14.833 -4.66699 -25.5 -6s-24 -2 -40 -2s-29.333 0.666992 -40 2s-19.167 3.33301 -25.5 6s-10.833 5.83398 -13.5 9.50098s-4 8.16699 -4 13.5v789h-127
c-10.667 0 -18.667 5.33301 -24 16s-8 28 -8 52c0 12.667 0.666992 23.334 2 32.001s3.33301 15.834 6 21.501s6 9.66699 10 12s8.66699 3.5 14 3.5h127v85c0 62 6 115.167 18 159.5s30 80.833 54 109.5s53.833 49.834 89.5 63.501s77.167 20.5 124.5 20.5
c29.333 0 55 -2.5 77 -7.5s38.167 -9.66699 48.5 -14s17.5 -8.5 21.5 -12.5s7.33301 -9.16699 10 -15.5s4.5 -14 5.5 -23s1.5 -19.833 1.5 -32.5c0 -21.333 -1.66699 -36.833 -5 -46.5s-9.33301 -14.5 -18 -14.5c-5.33301 0 -11.5 1.5 -18.5 4.5s-15.833 6.33301 -26.5 10
s-22.667 7 -36 10s-28.666 4.5 -45.999 4.5c-49.333 0 -84 -17 -104 -51s-30 -88.333 -30 -163v-87h404v97z" />
    <glyph glyph-name="f_k.liga" unicode="fk" horiz-adv-x="1545" 
d="M849 1393c16 0 29.334 -0.672852 40.001 -2.00586s19.167 -3.33301 25.5 -6s10.833 -6 13.5 -10s4 -8.66699 4 -14v-814l341 374c4.66699 6.66699 10 12.167 16 16.5s13 8 21 11s17.667 5 29 6s25.333 1.5 42 1.5c16 0 29.667 -0.5 41 -1.5s20.666 -2.66699 27.999 -5
s12.666 -5.33301 15.999 -9s5 -8.5 5 -14.5c0 -8 -2.33301 -16 -7 -24s-12 -17.333 -22 -28l-327 -326l368 -475c8 -11.333 13.667 -20.5 17 -27.5s5 -13.5 5 -19.5c0 -5.33301 -1.33301 -10 -4 -14s-7.16699 -7.33301 -13.5 -10s-15 -4.66699 -26 -6s-25.5 -2 -43.5 -2
s-32.833 0.5 -44.5 1.5s-21.5 2.66699 -29.5 5s-14.5 5.66602 -19.5 9.99902s-9.5 9.5 -13.5 15.5l-379 498v-499c0 -5.33301 -1.33301 -9.83301 -4 -13.5s-7.16699 -6.83398 -13.5 -9.50098s-14.833 -4.66699 -25.5 -6s-24 -2 -40 -2s-29.333 0.666992 -40 2
s-19.167 3.33301 -25.5 6s-10.833 5.83398 -13.5 9.50098s-4 8.16699 -4 13.5v1221c-1.33301 -2 -3.33301 -3.5 -6 -4.5s-6.33398 -1.5 -11.001 -1.5c-7.33301 0 -19 1.83301 -35 5.5s-32.833 6.83398 -50.5 9.50098s-34.5 4.66699 -50.5 6s-31.333 2 -46 2
c-41.333 0 -75.333 -4.16699 -102 -12.5s-47.667 -21.166 -63 -38.499s-25.833 -39.666 -31.5 -66.999s-8.5 -59.333 -8.5 -96v-98h185c5.33301 0 10 -1.16699 14 -3.5s7.5 -6.33301 10.5 -12s5.16699 -12.834 6.5 -21.501s2 -19.334 2 -32.001
c0 -24 -2.83301 -41.333 -8.5 -52s-13.834 -16 -24.501 -16h-185v-789c0 -5.33301 -1.33301 -9.83301 -4 -13.5s-7.16699 -6.83398 -13.5 -9.50098s-14.833 -4.66699 -25.5 -6s-24 -2 -40 -2s-29.333 0.666992 -40 2s-19.167 3.33301 -25.5 6s-10.833 5.83398 -13.5 9.50098
s-4 8.16699 -4 13.5v789h-127c-10.667 0 -18.667 5.33301 -24 16s-8 28 -8 52c0 12.667 0.666992 23.334 2 32.001s3.33301 15.834 6 21.501s6 9.66699 10 12s8.66699 3.5 14 3.5h127v96c0 62 7 115.333 21 160s35.5 81.167 64.5 109.5s65.833 49.333 110.5 63
s98 20.5 160 20.5c17.333 0 35.333 -0.666992 54 -2s36.834 -3.16602 54.501 -5.49902s33 -4.66602 46 -6.99902s23.333 -4.66602 31 -6.99902s13.834 -5.16602 18.501 -8.49902s8 -7.66602 10 -12.999c0.666992 6.66699 2.16699 12 4.5 16s6.33301 7.66699 12 11
s13.834 5.66602 24.501 6.99902s24.667 2 42 2z" />
    <glyph glyph-name="f_f_k.liga" unicode="ffk" horiz-adv-x="2115" 
d="M2076 26c0 -5.33301 -1.33594 -10.0059 -4.00293 -14.0059s-7.16699 -7.33301 -13.5 -10s-15.166 -4.66699 -26.499 -6s-25.666 -2 -42.999 -2c-18 0 -32.833 0.5 -44.5 1.5s-21.5 2.66699 -29.5 5s-14.5 5.66602 -19.5 9.99902s-9.5 9.5 -13.5 15.5l-379 498v-499
c0 -5.33301 -1.33301 -9.83301 -4 -13.5s-7.16699 -6.83398 -13.5 -9.50098s-14.833 -4.66699 -25.5 -6s-24.334 -2 -41.001 -2c-15.333 0 -28.5 0.666992 -39.5 2s-19.667 3.33301 -26 6s-10.666 5.83398 -12.999 9.50098s-3.5 8.16699 -3.5 13.5v1222
c-1.33301 -2 -3.33301 -3.5 -6 -4.5s-6.33398 -1.5 -11.001 -1.5c-8 0 -19.833 1.83301 -35.5 5.5s-32.334 6.83398 -50.001 9.50098s-34.5 4.66699 -50.5 6s-31.333 2 -46 2c-41.333 0 -75.333 -4.16699 -102 -12.5s-47.667 -21.333 -63 -39s-26 -40 -32 -67
s-9 -58.833 -9 -95.5v-99h186c5.33301 0 9.83301 -1.16699 13.5 -3.5s7 -6.33301 10 -12s5.16699 -12.834 6.5 -21.501s2 -19.334 2 -32.001c0 -24 -2.83301 -41.333 -8.5 -52s-13.5 -16 -23.5 -16h-186v-789c0 -5.33301 -1.33301 -9.83301 -4 -13.5
s-7.16699 -6.83398 -13.5 -9.50098s-14.833 -4.66699 -25.5 -6s-24 -2 -40 -2s-29.333 0.666992 -40 2s-19.167 3.33301 -25.5 6s-10.833 5.83398 -13.5 9.50098s-4 8.16699 -4 13.5v789h-404v-789c0 -5.33301 -1.33301 -9.83301 -4 -13.5s-7.16699 -6.83398 -13.5 -9.50098
s-14.833 -4.66699 -25.5 -6s-24 -2 -40 -2s-29.333 0.666992 -40 2s-19.167 3.33301 -25.5 6s-10.833 5.83398 -13.5 9.50098s-4 8.16699 -4 13.5v789h-127c-10.667 0 -18.667 5.33301 -24 16s-8 28 -8 52c0 12.667 0.666992 23.334 2 32.001s3.33301 15.834 6 21.501
s6 9.66699 10 12s8.66699 3.5 14 3.5h127v85c0 62 6 115.167 18 159.5s30 80.833 54 109.5s53.833 49.834 89.5 63.501s77.167 20.5 124.5 20.5c29.333 0 55 -2.5 77 -7.5s38.167 -9.66699 48.5 -14s17.5 -8.5 21.5 -12.5s7.33301 -9.16699 10 -15.5s4.5 -14 5.5 -23
s1.5 -19.833 1.5 -32.5c0 -21.333 -1.66699 -36.833 -5 -46.5s-9.33301 -14.5 -18 -14.5c-5.33301 0 -11.5 1.5 -18.5 4.5s-15.833 6.33301 -26.5 10s-22.667 7 -36 10s-28.666 4.5 -45.999 4.5c-49.333 0 -84 -17 -104 -51s-30 -88.333 -30 -163v-87h404v96
c0 62 7 115.333 21 160s35.5 81.334 64.5 110.001s65.833 49.834 110.5 63.501s98 20.5 160 20.5c18 0 36.333 -0.666992 55 -2s36.834 -3.16602 54.501 -5.49902s33 -4.66602 46 -6.99902s23.167 -4.66602 30.5 -6.99902s13.5 -5.16602 18.5 -8.49902s8.5 -8 10.5 -14
c0 6.66699 1.16699 12 3.5 16s6.5 7.66699 12.5 11s14.333 5.66602 25 6.99902s24.334 2 41.001 2s30.334 -0.666992 41.001 -2s19.167 -3.33301 25.5 -6s10.833 -6 13.5 -10s4 -8.66699 4 -14v-814l340 374c4.66699 6.66699 10 12.167 16 16.5s13.167 8 21.5 11
s18.166 5 29.499 6s25.333 1.5 42 1.5c16 0 29.667 -0.5 41 -1.5s20.5 -2.66699 27.5 -5s12.167 -5.33301 15.5 -9s5 -8.5 5 -14.5c0 -8 -2.33301 -16 -7 -24s-11.667 -17.333 -21 -28l-327 -326l367 -475c8 -11.333 13.833 -20.5 17.5 -27.5s5.5 -13.5 5.5 -19.5z" />
    <glyph glyph-name="f_lacute.liga" unicode="f&#x13a;" horiz-adv-x="1084" 
d="M932 25c0 -5.33301 -1.33398 -9.83984 -4.00098 -13.5068s-7.16699 -6.83398 -13.5 -9.50098s-14.833 -4.66699 -25.5 -6s-24 -2 -40 -2s-29.333 0.666992 -40 2s-19.167 3.33301 -25.5 6s-10.833 5.83398 -13.5 9.50098s-4 8.16699 -4 13.5v1221
c-1.33301 -2 -3.33301 -3.5 -6 -4.5s-6.33398 -1.5 -11.001 -1.5c-7.33301 0 -19 1.83301 -35 5.5s-32.833 6.83398 -50.5 9.50098s-34.5 4.66699 -50.5 6s-31.333 2 -46 2c-41.333 0 -75.333 -4.16699 -102 -12.5s-47.667 -21.166 -63 -38.499
s-25.833 -39.666 -31.5 -66.999s-8.5 -59.333 -8.5 -96v-98h185c5.33301 0 10 -1.16699 14 -3.5s7.5 -6.33301 10.5 -12s5.16699 -12.834 6.5 -21.501s2 -19.334 2 -32.001c0 -24 -2.83301 -41.333 -8.5 -52s-13.834 -16 -24.501 -16h-185v-789
c0 -5.33301 -1.33301 -9.83301 -4 -13.5s-7.16699 -6.83398 -13.5 -9.50098s-14.833 -4.66699 -25.5 -6s-24 -2 -40 -2s-29.333 0.666992 -40 2s-19.167 3.33301 -25.5 6s-10.833 5.83398 -13.5 9.50098s-4 8.16699 -4 13.5v789h-127c-10.667 0 -18.667 5.33301 -24 16
s-8 28 -8 52c0 12.667 0.666992 23.334 2 32.001s3.33301 15.834 6 21.501s6 9.66699 10 12s8.66699 3.5 14 3.5h127v96c0 62 7 115.333 21 160s35.5 81.167 64.5 109.5s65.833 49.333 110.5 63s98 20.5 160 20.5c17.333 0 35.333 -0.666992 54 -2
s36.834 -3.16602 54.501 -5.49902s33 -4.66602 46 -6.99902s23.333 -4.66602 31 -6.99902s13.834 -5.16602 18.501 -8.49902s8 -7.66602 10 -12.999c0.666992 6.66699 2.16699 12 4.5 16s6.33301 7.66699 12 11s13.834 5.66602 24.501 6.99902s24.667 2 42 2
c16 0 29.333 -0.666992 40 -2s19.167 -3.33301 25.5 -6s10.833 -6 13.5 -10s4 -8.66699 4 -14v-1336zM987.999 1719.99c7.33301 8.66699 14.501 15.333 21.501 20s14.833 8.33398 23.5 11.001s19 4.5 31 5.5s26.333 1.5 43 1.5c20 0 35.667 -1.5 47 -4.5
s19.333 -6.83301 24 -11.5s6.16699 -10 4.5 -16s-5.5 -12.333 -11.5 -19l-227 -212c-6.66699 -6.66699 -12.834 -11.834 -18.501 -15.501s-12.167 -6.66699 -19.5 -9s-15.833 -4 -25.5 -5s-21.5 -1.5 -35.5 -1.5c-15.333 0 -27.333 0.833008 -36 2.5
s-14.667 4.33398 -18 8.00098s-4.33301 8.16699 -3 13.5s5 11.666 11 18.999zM655 1362.99z" />
    <glyph glyph-name="f_lcaron.liga" unicode="f&#x13e;" horiz-adv-x="1155" 
d="M932 25c0 -5.33301 -1.33398 -9.83984 -4.00098 -13.5068s-7.16699 -6.83398 -13.5 -9.50098s-14.833 -4.66699 -25.5 -6s-24 -2 -40 -2s-29.333 0.666992 -40 2s-19.167 3.33301 -25.5 6s-10.833 5.83398 -13.5 9.50098s-4 8.16699 -4 13.5v1221
c-1.33301 -2 -3.33301 -3.5 -6 -4.5s-6.33398 -1.5 -11.001 -1.5c-7.33301 0 -19 1.83301 -35 5.5s-32.833 6.83398 -50.5 9.50098s-34.5 4.66699 -50.5 6s-31.333 2 -46 2c-41.333 0 -75.333 -4.16699 -102 -12.5s-47.667 -21.166 -63 -38.499
s-25.833 -39.666 -31.5 -66.999s-8.5 -59.333 -8.5 -96v-98h185c5.33301 0 10 -1.16699 14 -3.5s7.5 -6.33301 10.5 -12s5.16699 -12.834 6.5 -21.501s2 -19.334 2 -32.001c0 -24 -2.83301 -41.333 -8.5 -52s-13.834 -16 -24.501 -16h-185v-789
c0 -5.33301 -1.33301 -9.83301 -4 -13.5s-7.16699 -6.83398 -13.5 -9.50098s-14.833 -4.66699 -25.5 -6s-24 -2 -40 -2s-29.333 0.666992 -40 2s-19.167 3.33301 -25.5 6s-10.833 5.83398 -13.5 9.50098s-4 8.16699 -4 13.5v789h-127c-10.667 0 -18.667 5.33301 -24 16
s-8 28 -8 52c0 12.667 0.666992 23.334 2 32.001s3.33301 15.834 6 21.501s6 9.66699 10 12s8.66699 3.5 14 3.5h127v96c0 62 7 115.333 21 160s35.5 81.167 64.5 109.5s65.833 49.333 110.5 63s98 20.5 160 20.5c17.333 0 35.333 -0.666992 54 -2
s36.834 -3.16602 54.501 -5.49902s33 -4.66602 46 -6.99902s23.333 -4.66602 31 -6.99902s13.834 -5.16602 18.501 -8.49902s8 -7.66602 10 -12.999c0.666992 6.66699 2.16699 12 4.5 16s6.33301 7.66699 12 11s13.834 5.66602 24.501 6.99902s24.667 2 42 2
c16 0 29.333 -0.666992 40 -2s19.167 -3.33301 25.5 -6s10.833 -6 13.5 -10s4 -8.66699 4 -14v-1336zM1092 1360.99c2 6.66699 5.00488 12.333 9.00488 17s9.33301 8.33398 16 11.001s15.5 4.66699 26.5 6s24.167 2 39.5 2s27.166 -0.666992 35.499 -2
s14.666 -3.5 18.999 -6.5s6.66602 -6.83301 6.99902 -11.5s-0.5 -10.334 -2.5 -17.001l-125 -312c-1.33301 -4.66699 -3.5 -8.5 -6.5 -11.5s-7.33301 -5.33301 -13 -7s-13 -2.83398 -22 -3.50098s-20.5 -1 -34.5 -1c-10 0 -18 0.666992 -24 2s-10.333 3.33301 -13 6
s-4.33398 5.83398 -5.00098 9.50098s-0.333984 8.16699 0.999023 13.5zM866.004 996.992z" />
    <glyph glyph-name="f_lcommaaccent.liga" unicode="f&#x13c;" horiz-adv-x="1084" 
d="M932 25c0 -5.33301 -1.33398 -9.83984 -4.00098 -13.5068s-7.16699 -6.83398 -13.5 -9.50098s-14.833 -4.66699 -25.5 -6s-24 -2 -40 -2s-29.333 0.666992 -40 2s-19.167 3.33301 -25.5 6s-10.833 5.83398 -13.5 9.50098s-4 8.16699 -4 13.5v1221
c-1.33301 -2 -3.33301 -3.5 -6 -4.5s-6.33398 -1.5 -11.001 -1.5c-7.33301 0 -19 1.83301 -35 5.5s-32.833 6.83398 -50.5 9.50098s-34.5 4.66699 -50.5 6s-31.333 2 -46 2c-41.333 0 -75.333 -4.16699 -102 -12.5s-47.667 -21.166 -63 -38.499
s-25.833 -39.666 -31.5 -66.999s-8.5 -59.333 -8.5 -96v-98h185c5.33301 0 10 -1.16699 14 -3.5s7.5 -6.33301 10.5 -12s5.16699 -12.834 6.5 -21.501s2 -19.334 2 -32.001c0 -24 -2.83301 -41.333 -8.5 -52s-13.834 -16 -24.501 -16h-185v-789
c0 -5.33301 -1.33301 -9.83301 -4 -13.5s-7.16699 -6.83398 -13.5 -9.50098s-14.833 -4.66699 -25.5 -6s-24 -2 -40 -2s-29.333 0.666992 -40 2s-19.167 3.33301 -25.5 6s-10.833 5.83398 -13.5 9.50098s-4 8.16699 -4 13.5v789h-127c-10.667 0 -18.667 5.33301 -24 16
s-8 28 -8 52c0 12.667 0.666992 23.334 2 32.001s3.33301 15.834 6 21.501s6 9.66699 10 12s8.66699 3.5 14 3.5h127v96c0 62 7 115.333 21 160s35.5 81.167 64.5 109.5s65.833 49.333 110.5 63s98 20.5 160 20.5c17.333 0 35.333 -0.666992 54 -2
s36.834 -3.16602 54.501 -5.49902s33 -4.66602 46 -6.99902s23.333 -4.66602 31 -6.99902s13.834 -5.16602 18.501 -8.49902s8 -7.66602 10 -12.999c0.666992 6.66699 2.16699 12 4.5 16s6.33301 7.66699 12 11s13.834 5.66602 24.501 6.99902s24.667 2 42 2
c16 0 29.333 -0.666992 40 -2s19.167 -3.33301 25.5 -6s10.833 -6 13.5 -10s4 -8.66699 4 -14v-1336zM758.999 -121.007c2 7.33301 4.99512 13.501 8.99512 18.501s9.66699 8.83301 17 11.5s16.833 4.66699 28.5 6s26.5 2 44.5 2c17.333 0 31 -1.16699 41 -3.5
s17.167 -5.66602 21.5 -9.99902s6.33301 -9.33301 6 -15s-2.16602 -12.167 -5.49902 -19.5l-97 -203c-2.66699 -6.66699 -6 -12 -10 -16s-9.16699 -7 -15.5 -9s-14.166 -3.5 -23.499 -4.5s-20.666 -1.5 -33.999 -1.5c-14 0 -24.667 0.833008 -32 2.5
s-12.666 4.16699 -15.999 7.5s-4.66602 7.66602 -3.99902 12.999s2 11.666 4 18.999z" />
    <glyph glyph-name="f_t.liga" unicode="ft" horiz-adv-x="1261" 
d="M362 814l-0.000976562 -788.999c0 -5.33301 -1.33301 -9.83301 -4 -13.5s-7.16699 -6.83398 -13.5 -9.50098s-14.833 -4.66699 -25.5 -6s-24 -2 -40 -2s-29.333 0.666992 -40 2s-19.167 3.33301 -25.5 6s-10.833 5.83398 -13.5 9.50098s-4 8.16699 -4 13.5v789h-127
c-10.667 0 -18.667 5.33301 -24 16s-8 28 -8 52c0 12.667 0.666992 23.334 2 32.001s3.33301 15.834 6 21.501s6 9.66699 10 12s8.66699 3.5 14 3.5h127v93c0 62.667 5.83301 116.5 17.5 161.5s29.334 81.833 53.001 110.5s53.667 49.834 90 63.501
s79.166 20.5 128.499 20.5c24.667 0 48.667 -2.5 72 -7.5s40 -9.66699 50 -14s17 -8.5 21 -12.5s7.16699 -9.16699 9.5 -15.5s4 -14 5 -23s1.5 -19.833 1.5 -32.5s-0.5 -22.834 -1.5 -30.501s-2.5 -13.834 -4.5 -18.501s-4.33301 -7.83398 -7 -9.50098
s-5.66699 -2.5 -9 -2.5c-5.33301 0 -11.333 1.5 -18 4.5s-15 6.33301 -25 10s-21.833 7 -35.5 10s-29.5 4.5 -47.5 4.5c-24.667 0 -45.5 -4 -62.5 -12s-30.833 -20.5 -41.5 -37.5s-18.5 -39 -23.5 -66s-7.5 -59.833 -7.5 -98.5v-98h406v214c0 4.66699 1.33301 9 4 13
s7 7.5 13 10.5s14.333 5.16699 25 6.5s24.334 2 41.001 2c16 0 29.333 -0.666992 40 -2s19 -3.5 25 -6.5s10.333 -6.5 13 -10.5s4 -8.33301 4 -13v-214h230c5.33301 0 10.166 -1.16699 14.499 -3.5s7.83301 -6.33301 10.5 -12s4.83398 -12.834 6.50098 -21.501
s2.5 -19.334 2.5 -32.001c0 -24 -3 -41.333 -9 -52s-14 -16 -24 -16h-231v-502c0 -62 9 -108.833 27 -140.5s51 -47.5 99 -47.5c14.667 0 28.167 1.5 40.5 4.5s23.166 6.16699 32.499 9.5s17.5 6.5 24.5 9.5s12.833 4.5 17.5 4.5c4 0 7.33301 -0.833008 10 -2.5
s4.83398 -4.83398 6.50098 -9.50098s3.16699 -11 4.5 -19s2 -18 2 -30c0 -19.333 -1.5 -34.666 -4.5 -45.999s-7.16699 -19.666 -12.5 -24.999s-13 -10.333 -23 -15s-21.833 -8.5 -35.5 -11.5s-28.334 -5.5 -44.001 -7.5s-30.834 -3 -45.501 -3
c-47.333 0 -87.666 6.16699 -120.999 18.5s-60.666 31 -81.999 56s-36.833 56.667 -46.5 95s-14.5 83.5 -14.5 135.5v526h-405z" />
    <glyph glyph-name="f_tcommaaccent.liga" unicode="f&#x163;" horiz-adv-x="1261" 
d="M362 814l-0.000976562 -788.999c0 -5.33301 -1.33301 -9.83301 -4 -13.5s-7.16699 -6.83398 -13.5 -9.50098s-14.833 -4.66699 -25.5 -6s-24 -2 -40 -2s-29.333 0.666992 -40 2s-19.167 3.33301 -25.5 6s-10.833 5.83398 -13.5 9.50098s-4 8.16699 -4 13.5v789h-127
c-10.667 0 -18.667 5.33301 -24 16s-8 28 -8 52c0 12.667 0.666992 23.334 2 32.001s3.33301 15.834 6 21.501s6 9.66699 10 12s8.66699 3.5 14 3.5h127v93c0 62.667 5.83301 116.5 17.5 161.5s29.334 81.833 53.001 110.5s53.667 49.834 90 63.501
s79.166 20.5 128.499 20.5c24.667 0 48.667 -2.5 72 -7.5s40 -9.66699 50 -14s17 -8.5 21 -12.5s7.16699 -9.16699 9.5 -15.5s4 -14 5 -23s1.5 -19.833 1.5 -32.5s-0.5 -22.834 -1.5 -30.501s-2.5 -13.834 -4.5 -18.501s-4.33301 -7.83398 -7 -9.50098
s-5.66699 -2.5 -9 -2.5c-5.33301 0 -11.333 1.5 -18 4.5s-15 6.33301 -25 10s-21.833 7 -35.5 10s-29.5 4.5 -47.5 4.5c-24.667 0 -45.5 -4 -62.5 -12s-30.833 -20.5 -41.5 -37.5s-18.5 -39 -23.5 -66s-7.5 -59.833 -7.5 -98.5v-98h406v214c0 4.66699 1.33301 9 4 13
s7 7.5 13 10.5s14.333 5.16699 25 6.5s24.334 2 41.001 2c16 0 29.333 -0.666992 40 -2s19 -3.5 25 -6.5s10.333 -6.5 13 -10.5s4 -8.33301 4 -13v-214h230c5.33301 0 10.166 -1.16699 14.499 -3.5s7.83301 -6.33301 10.5 -12s4.83398 -12.834 6.50098 -21.501
s2.5 -19.334 2.5 -32.001c0 -24 -3 -41.333 -9 -52s-14 -16 -24 -16h-231v-502c0 -62 9 -108.833 27 -140.5s51 -47.5 99 -47.5c14.667 0 28.167 1.5 40.5 4.5s23.166 6.16699 32.499 9.5s17.5 6.5 24.5 9.5s12.833 4.5 17.5 4.5c4 0 7.33301 -0.833008 10 -2.5
s4.83398 -4.83398 6.50098 -9.50098s3.16699 -11 4.5 -19s2 -18 2 -30c0 -19.333 -1.5 -34.666 -4.5 -45.999s-7.16699 -19.666 -12.5 -24.999s-13 -10.333 -23 -15s-21.833 -8.5 -35.5 -11.5s-28.334 -5.5 -44.001 -7.5s-30.834 -3 -45.501 -3
c-47.333 0 -87.666 6.16699 -120.999 18.5s-60.666 31 -81.999 56s-36.833 56.667 -46.5 95s-14.5 83.5 -14.5 135.5v526h-405zM894.999 -120.999c2 7.33301 4.99512 13.501 8.99512 18.501s9.66699 8.83301 17 11.5s16.833 4.66699 28.5 6s26.5 2 44.5 2
c17.333 0 31 -1.16699 41 -3.5s17.167 -5.66602 21.5 -9.99902s6.33301 -9.33301 6 -15s-2.16602 -12.167 -5.49902 -19.5l-97 -203c-2.66699 -6.66699 -6 -12 -10 -16s-9.16699 -7 -15.5 -9s-14.166 -3.5 -23.499 -4.5s-20.666 -1.5 -33.999 -1.5
c-14 0 -24.667 0.833008 -32 2.5s-12.666 4.16699 -15.999 7.5s-4.66602 7.66602 -3.99902 12.999s2 11.666 4 18.999z" />
    <glyph glyph-name="f_tcaron.liga" unicode="f&#x165;" horiz-adv-x="1299" 
d="M362 814l-0.000976562 -788.999c0 -5.33301 -1.33301 -9.83301 -4 -13.5s-7.16699 -6.83398 -13.5 -9.50098s-14.833 -4.66699 -25.5 -6s-24 -2 -40 -2s-29.333 0.666992 -40 2s-19.167 3.33301 -25.5 6s-10.833 5.83398 -13.5 9.50098s-4 8.16699 -4 13.5v789h-127
c-10.667 0 -18.667 5.33301 -24 16s-8 28 -8 52c0 12.667 0.666992 23.334 2 32.001s3.33301 15.834 6 21.501s6 9.66699 10 12s8.66699 3.5 14 3.5h127v93c0 62.667 5.83301 116.5 17.5 161.5s29.334 81.833 53.001 110.5s53.667 49.834 90 63.501
s79.166 20.5 128.499 20.5c24.667 0 48.667 -2.5 72 -7.5s40 -9.66699 50 -14s17 -8.5 21 -12.5s7.16699 -9.16699 9.5 -15.5s4 -14 5 -23s1.5 -19.833 1.5 -32.5s-0.5 -22.834 -1.5 -30.501s-2.5 -13.834 -4.5 -18.501s-4.33301 -7.83398 -7 -9.50098
s-5.66699 -2.5 -9 -2.5c-5.33301 0 -11.333 1.5 -18 4.5s-15 6.33301 -25 10s-21.833 7 -35.5 10s-29.5 4.5 -47.5 4.5c-24.667 0 -45.5 -4 -62.5 -12s-30.833 -20.5 -41.5 -37.5s-18.5 -39 -23.5 -66s-7.5 -59.833 -7.5 -98.5v-98h406v214c0 4.66699 1.33301 9 4 13
s7 7.5 13 10.5s14.333 5.16699 25 6.5s24.334 2 41.001 2c16 0 29.333 -0.666992 40 -2s19 -3.5 25 -6.5s10.333 -6.5 13 -10.5s4 -8.33301 4 -13v-214h230c5.33301 0 10.166 -1.16699 14.499 -3.5s7.83301 -6.33301 10.5 -12s4.83398 -12.834 6.50098 -21.501
s2.5 -19.334 2.5 -32.001c0 -24 -3 -41.333 -9 -52s-14 -16 -24 -16h-231v-502c0 -62 9 -108.833 27 -140.5s51 -47.5 99 -47.5c14.667 0 28.167 1.5 40.5 4.5s23.166 6.16699 32.499 9.5s17.5 6.5 24.5 9.5s12.833 4.5 17.5 4.5c4 0 7.33301 -0.833008 10 -2.5
s4.83398 -4.83398 6.50098 -9.50098s3.16699 -11 4.5 -19s2 -18 2 -30c0 -19.333 -1.5 -34.666 -4.5 -45.999s-7.16699 -19.666 -12.5 -24.999s-13 -10.333 -23 -15s-21.833 -8.5 -35.5 -11.5s-28.334 -5.5 -44.001 -7.5s-30.834 -3 -45.501 -3
c-47.333 0 -87.666 6.16699 -120.999 18.5s-60.666 31 -81.999 56s-36.833 56.667 -46.5 95s-14.5 83.5 -14.5 135.5v526h-405zM1149 1439c2 6.66699 5.00488 12.333 9.00488 17s9.33301 8.33398 16 11.001s15.5 4.66699 26.5 6s24.167 2 39.5 2s27.166 -0.666992 35.499 -2
s14.666 -3.5 18.999 -6.5s6.66602 -6.83301 6.99902 -11.5s-0.5 -10.334 -2.5 -17.001l-125 -312c-1.33301 -4.66699 -3.5 -8.5 -6.5 -11.5s-7.33301 -5.33301 -13 -7s-13 -2.83398 -22 -3.50098s-20.5 -1 -34.5 -1c-10 0 -18 0.666992 -24 2s-10.333 3.33301 -13 6
s-4.33398 5.83398 -5.00098 9.50098s-0.333984 8.16699 0.999023 13.5zM923.004 1075z" />
    <glyph glyph-name="t_f.liga" unicode="tf" horiz-adv-x="1254" 
d="M826 951l-0.000976562 93.0039c0 62.667 5.83301 116.5 17.5 161.5s29.5 81.833 53.5 110.5s54.167 49.834 90.5 63.501s78.833 20.5 127.5 20.5c22.667 0 45.167 -2.16699 67.5 -6.5s39.5 -9 51.5 -14s20 -9.5 24 -13.5s7.33301 -9.16699 10 -15.5s4.5 -14 5.5 -23
s1.5 -19.833 1.5 -32.5s-0.5 -22.834 -1.5 -30.501s-2.5 -13.834 -4.5 -18.501s-4.33301 -7.83398 -7 -9.50098s-5.66699 -2.5 -9 -2.5c-5.33301 0 -15.166 3 -29.499 9s-29.5 10.833 -45.5 14.5s-33 5.5 -51 5.5c-24.667 0 -45.667 -4 -63 -12s-31.333 -20.5 -42 -37.5
s-18.5 -39 -23.5 -66s-7.5 -59.833 -7.5 -98.5v-98h201c5.33301 0 10.166 -1.16699 14.499 -3.5s7.83301 -6.33301 10.5 -12s4.83398 -12.834 6.50098 -21.501s2.5 -19.334 2.5 -32.001c0 -24 -3 -41.333 -9 -52s-14 -16 -24 -16h-202v-789
c0 -5.33301 -1.33301 -9.83301 -4 -13.5s-7 -6.83398 -13 -9.50098s-14.333 -4.66699 -25 -6s-24.334 -2 -41.001 -2c-16 0 -29.333 0.666992 -40 2s-19.167 3.33301 -25.5 6s-10.666 5.83398 -12.999 9.50098s-3.5 8.16699 -3.5 13.5v789h-469v-502
c0 -62 9.16699 -108.833 27.5 -140.5s51.166 -47.5 98.499 -47.5c15.333 0 29 1.5 41 4.5s22.667 6.16699 32 9.5s17.333 6.5 24 9.5s12.667 4.5 18 4.5c3.33301 0 6.5 -0.833008 9.5 -2.5s5.33301 -4.83398 7 -9.50098s3.16699 -11 4.5 -19s2 -18 2 -30
c0 -19.333 -1.33301 -34.5 -4 -45.5s-6.66699 -19.333 -12 -25s-13.333 -10.834 -24 -15.501s-22.834 -8.5 -36.501 -11.5s-28.167 -5.5 -43.5 -7.5s-30.666 -3 -45.999 -3c-46.667 0 -86.667 6.16699 -120 18.5s-60.666 31 -81.999 56s-36.833 56.667 -46.5 95
s-14.5 83.5 -14.5 135.5v526h-126c-10 0 -18 5.33301 -24 16s-9 28 -9 52c0 12.667 0.833008 23.334 2.5 32.001s3.83398 15.834 6.50098 21.501s6.16699 9.66699 10.5 12s9.16602 3.5 14.499 3.5h125v214c0 4.66699 1.16699 9 3.5 13s6.66602 7.5 12.999 10.5
s14.833 5.16699 25.5 6.5s24 2 40 2c16.667 0 30.334 -0.666992 41.001 -2s19 -3.5 25 -6.5s10.333 -6.5 13 -10.5s4 -8.33301 4 -13v-214h469z" />
    <glyph glyph-name="t_i.liga" unicode="ti" horiz-adv-x="1141" 
d="M936 951c20 0 33.668 -4.5 41.001 -13.5s11 -22.167 11 -39.5v-873c0 -5.33301 -1.33301 -9.83301 -4 -13.5s-7.16699 -6.83398 -13.5 -9.50098s-14.833 -4.66699 -25.5 -6s-23.667 -2 -39 -2c-16.667 0 -30.334 0.666992 -41.001 2s-19.167 3.33301 -25.5 6
s-10.833 5.83398 -13.5 9.50098s-4 8.16699 -4 13.5v789h-465v-502c0 -62 9.16699 -108.833 27.5 -140.5s51.166 -47.5 98.499 -47.5c15.333 0 29 1.5 41 4.5s22.667 6.16699 32 9.5s17.333 6.5 24 9.5s12.667 4.5 18 4.5c3.33301 0 6.5 -0.833008 9.5 -2.5
s5.33301 -4.83398 7 -9.50098s3.16699 -11 4.5 -19s2 -18 2 -30c0 -19.333 -1.33301 -34.5 -4 -45.5s-6.66699 -19.333 -12 -25s-13.333 -10.834 -24 -15.501s-22.834 -8.5 -36.501 -11.5s-28.167 -5.5 -43.5 -7.5s-30.666 -3 -45.999 -3
c-46.667 0 -86.667 6.16699 -120 18.5s-60.666 31 -81.999 56s-36.833 56.667 -46.5 95s-14.5 83.5 -14.5 135.5v526h-126c-10 0 -18 5.33301 -24 16s-9 28 -9 52c0 12.667 0.833008 23.334 2.5 32.001s3.83398 15.834 6.50098 21.501s6.16699 9.66699 10.5 12
s9.16602 3.5 14.499 3.5h125v214c0 4.66699 1.16699 9 3.5 13s6.66602 7.5 12.999 10.5s14.833 5.16699 25.5 6.5s24 2 40 2c16.667 0 30.334 -0.666992 41.001 -2s19 -3.5 25 -6.5s10.333 -6.5 13 -10.5s4 -8.33301 4 -13v-214h579zM1007 1229
c0 -38.667 -7.33301 -65 -22 -79s-41.667 -21 -81 -21c-38.667 0 -65.167 6.83301 -79.5 20.5s-21.5 39.5 -21.5 77.5c0 38.667 7.33301 65 22 79s41.667 21 81 21c38.667 0 65.167 -6.83301 79.5 -20.5s21.5 -39.5 21.5 -77.5zM670.001 951z" />
    <glyph glyph-name="t_igrave.liga" unicode="t&#xec;" horiz-adv-x="1141" 
d="M936 951c20 0 33.668 -4.5 41.001 -13.5s11 -22.167 11 -39.5v-873c0 -5.33301 -1.33301 -9.83301 -4 -13.5s-7.16699 -6.83398 -13.5 -9.50098s-14.833 -4.66699 -25.5 -6s-23.667 -2 -39 -2c-16.667 0 -30.334 0.666992 -41.001 2s-19.167 3.33301 -25.5 6
s-10.833 5.83398 -13.5 9.50098s-4 8.16699 -4 13.5v789h-465v-502c0 -62 9.16699 -108.833 27.5 -140.5s51.166 -47.5 98.499 -47.5c15.333 0 29 1.5 41 4.5s22.667 6.16699 32 9.5s17.333 6.5 24 9.5s12.667 4.5 18 4.5c3.33301 0 6.5 -0.833008 9.5 -2.5
s5.33301 -4.83398 7 -9.50098s3.16699 -11 4.5 -19s2 -18 2 -30c0 -19.333 -1.33301 -34.5 -4 -45.5s-6.66699 -19.333 -12 -25s-13.333 -10.834 -24 -15.501s-22.834 -8.5 -36.501 -11.5s-28.167 -5.5 -43.5 -7.5s-30.666 -3 -45.999 -3
c-46.667 0 -86.667 6.16699 -120 18.5s-60.666 31 -81.999 56s-36.833 56.667 -46.5 95s-14.5 83.5 -14.5 135.5v526h-126c-10 0 -18 5.33301 -24 16s-9 28 -9 52c0 12.667 0.833008 23.334 2.5 32.001s3.83398 15.834 6.50098 21.501s6.16699 9.66699 10.5 12
s9.16602 3.5 14.499 3.5h125v214c0 4.66699 1.16699 9 3.5 13s6.66602 7.5 12.999 10.5s14.833 5.16699 25.5 6.5s24 2 40 2c16.667 0 30.334 -0.666992 41.001 -2s19 -3.5 25 -6.5s10.333 -6.5 13 -10.5s4 -8.33301 4 -13v-214h579zM962.001 1134
c4.66699 -7.33301 7.66895 -13.666 9.00195 -18.999s0.166016 -9.66602 -3.50098 -12.999s-9.66699 -6 -18 -8s-19.833 -3 -34.5 -3c-13.333 0 -24.333 0.5 -33 1.5s-16.167 2.66699 -22.5 5s-11.833 5.5 -16.5 9.5s-9.33398 9.33301 -14.001 16l-181 233
c-5.33301 6 -8.33301 11.833 -9 17.5s1.33301 10.667 6 15s12.834 7.66602 24.501 9.99902s26.834 3.5 45.501 3.5c16 0 29.5 -0.666992 40.5 -2s20.167 -3.33301 27.5 -6s13.666 -6.33398 18.999 -11.001s10.666 -10.667 15.999 -18zM507.003 951z" />
    <glyph glyph-name="t_iacute.liga" unicode="t&#xed;" horiz-adv-x="1141" 
d="M936 951c20 0 33.668 -4.5 41.001 -13.5s11 -22.167 11 -39.5v-873c0 -5.33301 -1.33301 -9.83301 -4 -13.5s-7.16699 -6.83398 -13.5 -9.50098s-14.833 -4.66699 -25.5 -6s-23.667 -2 -39 -2c-16.667 0 -30.334 0.666992 -41.001 2s-19.167 3.33301 -25.5 6
s-10.833 5.83398 -13.5 9.50098s-4 8.16699 -4 13.5v789h-465v-502c0 -62 9.16699 -108.833 27.5 -140.5s51.166 -47.5 98.499 -47.5c15.333 0 29 1.5 41 4.5s22.667 6.16699 32 9.5s17.333 6.5 24 9.5s12.667 4.5 18 4.5c3.33301 0 6.5 -0.833008 9.5 -2.5
s5.33301 -4.83398 7 -9.50098s3.16699 -11 4.5 -19s2 -18 2 -30c0 -19.333 -1.33301 -34.5 -4 -45.5s-6.66699 -19.333 -12 -25s-13.333 -10.834 -24 -15.501s-22.834 -8.5 -36.501 -11.5s-28.167 -5.5 -43.5 -7.5s-30.666 -3 -45.999 -3
c-46.667 0 -86.667 6.16699 -120 18.5s-60.666 31 -81.999 56s-36.833 56.667 -46.5 95s-14.5 83.5 -14.5 135.5v526h-126c-10 0 -18 5.33301 -24 16s-9 28 -9 52c0 12.667 0.833008 23.334 2.5 32.001s3.83398 15.834 6.50098 21.501s6.16699 9.66699 10.5 12
s9.16602 3.5 14.499 3.5h125v214c0 4.66699 1.16699 9 3.5 13s6.66602 7.5 12.999 10.5s14.833 5.16699 25.5 6.5s24 2 40 2c16.667 0 30.334 -0.666992 41.001 -2s19 -3.5 25 -6.5s10.333 -6.5 13 -10.5s4 -8.33301 4 -13v-214h579zM974.001 1365
c4 7.33301 8.66602 13.333 13.999 18s11.833 8.33398 19.5 11.001s17.167 4.66699 28.5 6s25 2 41 2c18.667 0 33.834 -1.16699 45.501 -3.5s19.834 -5.66602 24.501 -9.99902s6.66699 -9.33301 6 -15s-3.66699 -11.5 -9 -17.5l-181 -233
c-5.33301 -6.66699 -10.166 -12 -14.499 -16s-9.33301 -7.16699 -15 -9.5s-13 -4 -22 -5s-20.167 -1.5 -33.5 -1.5c-14.667 0 -26.334 1 -35.001 3s-14.834 4.66699 -18.501 8s-5 7.66602 -4 12.999s3.83301 11.666 8.5 18.999zM688 951z" />
    <glyph glyph-name="t_icircumflex.liga" unicode="t&#xee;" horiz-adv-x="1141" 
d="M936 951c20 0 33.668 -4.5 41.001 -13.5s11 -22.167 11 -39.5v-873c0 -5.33301 -1.33301 -9.83301 -4 -13.5s-7.16699 -6.83398 -13.5 -9.50098s-14.833 -4.66699 -25.5 -6s-23.667 -2 -39 -2c-16.667 0 -30.334 0.666992 -41.001 2s-19.167 3.33301 -25.5 6
s-10.833 5.83398 -13.5 9.50098s-4 8.16699 -4 13.5v789h-465v-502c0 -62 9.16699 -108.833 27.5 -140.5s51.166 -47.5 98.499 -47.5c15.333 0 29 1.5 41 4.5s22.667 6.16699 32 9.5s17.333 6.5 24 9.5s12.667 4.5 18 4.5c3.33301 0 6.5 -0.833008 9.5 -2.5
s5.33301 -4.83398 7 -9.50098s3.16699 -11 4.5 -19s2 -18 2 -30c0 -19.333 -1.33301 -34.5 -4 -45.5s-6.66699 -19.333 -12 -25s-13.333 -10.834 -24 -15.501s-22.834 -8.5 -36.501 -11.5s-28.167 -5.5 -43.5 -7.5s-30.666 -3 -45.999 -3
c-46.667 0 -86.667 6.16699 -120 18.5s-60.666 31 -81.999 56s-36.833 56.667 -46.5 95s-14.5 83.5 -14.5 135.5v526h-126c-10 0 -18 5.33301 -24 16s-9 28 -9 52c0 12.667 0.833008 23.334 2.5 32.001s3.83398 15.834 6.50098 21.501s6.16699 9.66699 10.5 12
s9.16602 3.5 14.499 3.5h125v214c0 4.66699 1.16699 9 3.5 13s6.66602 7.5 12.999 10.5s14.833 5.16699 25.5 6.5s24 2 40 2c16.667 0 30.334 -0.666992 41.001 -2s19 -3.5 25 -6.5s10.333 -6.5 13 -10.5s4 -8.33301 4 -13v-214h579zM764.001 1121
c-4 -6.66699 -8.00195 -11.833 -12.002 -15.5s-8.83301 -6.5 -14.5 -8.5s-12.667 -3.5 -21 -4.5s-18.833 -1.5 -31.5 -1.5c-18 0 -31.833 1.16699 -41.5 3.5s-16.167 5.66602 -19.5 9.99902s-3.66602 10 -0.999023 17s8 15.5 16 25.5l165 229
c3.33301 5.33301 7.33301 9.5 12 12.5s10.5 5.5 17.5 7.5s15.667 3.5 26 4.5s22.833 1.5 37.5 1.5c14 0 25.667 -0.5 35 -1.5s17.333 -2.66699 24 -5s12.167 -5 16.5 -8s8.16602 -6.83301 11.499 -11.5l165 -229c7.33301 -10 12.333 -18.5 15 -25.5s2.5 -12.667 -0.5 -17
s-9.5 -7.66602 -19.5 -9.99902s-23.667 -3.5 -41 -3.5c-14 0 -25.167 0.5 -33.5 1.5s-15.166 2.5 -20.499 4.5s-9.66602 5 -12.999 9l-12 15l-130 180zM489.999 951.001z" />
    <glyph glyph-name="t_idieresis.liga" unicode="t&#xef;" horiz-adv-x="1141" 
d="M936 951c20 0 33.668 -4.5 41.001 -13.5s11 -22.167 11 -39.5v-873c0 -5.33301 -1.33301 -9.83301 -4 -13.5s-7.16699 -6.83398 -13.5 -9.50098s-14.833 -4.66699 -25.5 -6s-23.667 -2 -39 -2c-16.667 0 -30.334 0.666992 -41.001 2s-19.167 3.33301 -25.5 6
s-10.833 5.83398 -13.5 9.50098s-4 8.16699 -4 13.5v789h-465v-502c0 -62 9.16699 -108.833 27.5 -140.5s51.166 -47.5 98.499 -47.5c15.333 0 29 1.5 41 4.5s22.667 6.16699 32 9.5s17.333 6.5 24 9.5s12.667 4.5 18 4.5c3.33301 0 6.5 -0.833008 9.5 -2.5
s5.33301 -4.83398 7 -9.50098s3.16699 -11 4.5 -19s2 -18 2 -30c0 -19.333 -1.33301 -34.5 -4 -45.5s-6.66699 -19.333 -12 -25s-13.333 -10.834 -24 -15.501s-22.834 -8.5 -36.501 -11.5s-28.167 -5.5 -43.5 -7.5s-30.666 -3 -45.999 -3
c-46.667 0 -86.667 6.16699 -120 18.5s-60.666 31 -81.999 56s-36.833 56.667 -46.5 95s-14.5 83.5 -14.5 135.5v526h-126c-10 0 -18 5.33301 -24 16s-9 28 -9 52c0 12.667 0.833008 23.334 2.5 32.001s3.83398 15.834 6.50098 21.501s6.16699 9.66699 10.5 12
s9.16602 3.5 14.499 3.5h125v214c0 4.66699 1.16699 9 3.5 13s6.66602 7.5 12.999 10.5s14.833 5.16699 25.5 6.5s24 2 40 2c16.667 0 30.334 -0.666992 41.001 -2s19 -3.5 25 -6.5s10.333 -6.5 13 -10.5s4 -8.33301 4 -13v-214h579zM835.001 1217
c0 -36 -6.66602 -60.835 -19.999 -74.502s-37.333 -20.5 -72 -20.5s-58.334 6.5 -71.001 19.5s-19 37.167 -19 72.5c0 36.667 6.5 61.834 19.5 75.501s36.833 20.5 71.5 20.5s58.5 -6.66699 71.5 -20s19.5 -37.666 19.5 -72.999zM1146 1217
c0 -36 -6.66602 -60.835 -19.999 -74.502s-37.333 -20.5 -72 -20.5s-58.334 6.5 -71.001 19.5s-19 37.167 -19 72.5c0 36.667 6.5 61.834 19.5 75.501s36.5 20.5 70.5 20.5c35.333 0 59.5 -6.66699 72.5 -20s19.5 -37.666 19.5 -72.999zM521.003 950.996z" />
    <glyph glyph-name="t_imacron.liga" unicode="t&#x12b;" horiz-adv-x="1141" 
d="M936 951c20 0 33.668 -4.5 41.001 -13.5s11 -22.167 11 -39.5v-873c0 -5.33301 -1.33301 -9.83301 -4 -13.5s-7.16699 -6.83398 -13.5 -9.50098s-14.833 -4.66699 -25.5 -6s-23.667 -2 -39 -2c-16.667 0 -30.334 0.666992 -41.001 2s-19.167 3.33301 -25.5 6
s-10.833 5.83398 -13.5 9.50098s-4 8.16699 -4 13.5v789h-465v-502c0 -62 9.16699 -108.833 27.5 -140.5s51.166 -47.5 98.499 -47.5c15.333 0 29 1.5 41 4.5s22.667 6.16699 32 9.5s17.333 6.5 24 9.5s12.667 4.5 18 4.5c3.33301 0 6.5 -0.833008 9.5 -2.5
s5.33301 -4.83398 7 -9.50098s3.16699 -11 4.5 -19s2 -18 2 -30c0 -19.333 -1.33301 -34.5 -4 -45.5s-6.66699 -19.333 -12 -25s-13.333 -10.834 -24 -15.501s-22.834 -8.5 -36.501 -11.5s-28.167 -5.5 -43.5 -7.5s-30.666 -3 -45.999 -3
c-46.667 0 -86.667 6.16699 -120 18.5s-60.666 31 -81.999 56s-36.833 56.667 -46.5 95s-14.5 83.5 -14.5 135.5v526h-126c-10 0 -18 5.33301 -24 16s-9 28 -9 52c0 12.667 0.833008 23.334 2.5 32.001s3.83398 15.834 6.50098 21.501s6.16699 9.66699 10.5 12
s9.16602 3.5 14.499 3.5h125v214c0 4.66699 1.16699 9 3.5 13s6.66602 7.5 12.999 10.5s14.833 5.16699 25.5 6.5s24 2 40 2c16.667 0 30.334 -0.666992 41.001 -2s19 -3.5 25 -6.5s10.333 -6.5 13 -10.5s4 -8.33301 4 -13v-214h579zM1137 1293
c5.33301 0 10 -1.16699 14 -3.5s7.16699 -6 9.5 -11s4.33301 -11.667 6 -20s2.5 -18.5 2.5 -30.5c0 -11.333 -0.833008 -20.833 -2.5 -28.5s-3.66699 -14.167 -6 -19.5s-5.5 -9.33301 -9.5 -12s-8.66699 -4 -14 -4h-479c-5.33301 0 -10.166 1.33301 -14.499 4
s-7.83301 6.66699 -10.5 12s-4.66699 11.833 -6 19.5s-2 17.167 -2 28.5c0 12 0.666992 22.167 2 30.5s3.33301 15 6 20s6.16699 8.66699 10.5 11s9.16602 3.5 14.499 3.5h479zM493.001 951z" />
    <glyph glyph-name="t_itilde.liga" unicode="t&#x129;" horiz-adv-x="1141" 
d="M936 951c20 0 33.668 -4.5 41.001 -13.5s11 -22.167 11 -39.5v-873c0 -5.33301 -1.33301 -9.83301 -4 -13.5s-7.16699 -6.83398 -13.5 -9.50098s-14.833 -4.66699 -25.5 -6s-23.667 -2 -39 -2c-16.667 0 -30.334 0.666992 -41.001 2s-19.167 3.33301 -25.5 6
s-10.833 5.83398 -13.5 9.50098s-4 8.16699 -4 13.5v789h-465v-502c0 -62 9.16699 -108.833 27.5 -140.5s51.166 -47.5 98.499 -47.5c15.333 0 29 1.5 41 4.5s22.667 6.16699 32 9.5s17.333 6.5 24 9.5s12.667 4.5 18 4.5c3.33301 0 6.5 -0.833008 9.5 -2.5
s5.33301 -4.83398 7 -9.50098s3.16699 -11 4.5 -19s2 -18 2 -30c0 -19.333 -1.33301 -34.5 -4 -45.5s-6.66699 -19.333 -12 -25s-13.333 -10.834 -24 -15.501s-22.834 -8.5 -36.501 -11.5s-28.167 -5.5 -43.5 -7.5s-30.666 -3 -45.999 -3
c-46.667 0 -86.667 6.16699 -120 18.5s-60.666 31 -81.999 56s-36.833 56.667 -46.5 95s-14.5 83.5 -14.5 135.5v526h-126c-10 0 -18 5.33301 -24 16s-9 28 -9 52c0 12.667 0.833008 23.334 2.5 32.001s3.83398 15.834 6.50098 21.501s6.16699 9.66699 10.5 12
s9.16602 3.5 14.499 3.5h125v214c0 4.66699 1.16699 9 3.5 13s6.66602 7.5 12.999 10.5s14.833 5.16699 25.5 6.5s24 2 40 2c16.667 0 30.334 -0.666992 41.001 -2s19 -3.5 25 -6.5s10.333 -6.5 13 -10.5s4 -8.33301 4 -13v-214h579zM1216 1314
c0 -70.667 -17.333 -124.669 -52 -162.002s-81.667 -56 -141 -56c-24.667 0 -46.667 3.16699 -66 9.5s-37 14.5 -53 24.5s-30.667 20.667 -44 32s-26.5 22 -39.5 32s-25.833 18.167 -38.5 24.5s-26.334 9.5 -41.001 9.5c-26.667 0 -45.334 -9.66699 -56.001 -29
s-16 -45 -16 -77c0 -4.66699 -0.666992 -8.83398 -2 -12.501s-4.16602 -6.5 -8.49902 -8.5s-10.666 -3.33301 -18.999 -4s-18.833 -1 -31.5 -1c-10.667 0 -19.667 0.5 -27 1.5s-13.166 3 -17.499 6s-7.5 7.33301 -9.5 13s-3 12.834 -3 21.501c0 66 16.667 118.667 50 158
s81 59 143 59c36 0 67 -6.83301 93 -20.5s49.5 -28.667 70.5 -45l59 -45.5c18.333 -14 38.166 -21 59.499 -21c24 0 42.167 8.83301 54.5 26.5s18.5 43.834 18.5 78.501c0 10.667 3.5 17.834 10.5 21.501s22.167 5.5 45.5 5.5c24.667 0 41 -2.5 49 -7.5s12 -16.167 12 -33.5
zM422.001 950.998z" />
    <glyph glyph-name="t_ibreve.liga" unicode="t&#x12d;" horiz-adv-x="1141" 
d="M936 951c20 0 33.668 -4.5 41.001 -13.5s11 -22.167 11 -39.5v-873c0 -5.33301 -1.33301 -9.83301 -4 -13.5s-7.16699 -6.83398 -13.5 -9.50098s-14.833 -4.66699 -25.5 -6s-23.667 -2 -39 -2c-16.667 0 -30.334 0.666992 -41.001 2s-19.167 3.33301 -25.5 6
s-10.833 5.83398 -13.5 9.50098s-4 8.16699 -4 13.5v789h-465v-502c0 -62 9.16699 -108.833 27.5 -140.5s51.166 -47.5 98.499 -47.5c15.333 0 29 1.5 41 4.5s22.667 6.16699 32 9.5s17.333 6.5 24 9.5s12.667 4.5 18 4.5c3.33301 0 6.5 -0.833008 9.5 -2.5
s5.33301 -4.83398 7 -9.50098s3.16699 -11 4.5 -19s2 -18 2 -30c0 -19.333 -1.33301 -34.5 -4 -45.5s-6.66699 -19.333 -12 -25s-13.333 -10.834 -24 -15.501s-22.834 -8.5 -36.501 -11.5s-28.167 -5.5 -43.5 -7.5s-30.666 -3 -45.999 -3
c-46.667 0 -86.667 6.16699 -120 18.5s-60.666 31 -81.999 56s-36.833 56.667 -46.5 95s-14.5 83.5 -14.5 135.5v526h-126c-10 0 -18 5.33301 -24 16s-9 28 -9 52c0 12.667 0.833008 23.334 2.5 32.001s3.83398 15.834 6.50098 21.501s6.16699 9.66699 10.5 12
s9.16602 3.5 14.499 3.5h125v214c0 4.66699 1.16699 9 3.5 13s6.66602 7.5 12.999 10.5s14.833 5.16699 25.5 6.5s24 2 40 2c16.667 0 30.334 -0.666992 41.001 -2s19 -3.5 25 -6.5s10.333 -6.5 13 -10.5s4 -8.33301 4 -13v-214h579zM1039 1365c0 10 4 17.501 12 22.501
s23.333 7.5 46 7.5c12.667 0 22.834 -0.5 30.501 -1.5s13.667 -2.66699 18 -5s7.33301 -5.33301 9 -9s2.5 -7.83398 2.5 -12.501c0 -45.333 -5.5 -84.833 -16.5 -118.5s-27.333 -61.834 -49 -84.501s-48.667 -39.667 -81 -51s-69.833 -17 -112.5 -17
c-45.333 0 -84.166 6 -116.499 18s-59 29.333 -80 52s-36.333 50.667 -46 84s-14.5 71.333 -14.5 114c0 10.667 4 18.5 12 23.5s23.333 7.5 46 7.5c12 0 21.833 -0.666992 29.5 -2s13.667 -3.16602 18 -5.49902s7.5 -5.33301 9.5 -9s3 -8.16699 3 -13.5
c2 -22.667 5.83301 -43.5 11.5 -62.5s14 -35.167 25 -48.5s25 -23.5 42 -30.5s37.167 -10.5 60.5 -10.5c20 0 38.333 2.83301 55 8.5s31.167 14.667 43.5 27s22.166 28 29.499 47s11.666 42.167 12.999 69.5zM509.001 951.001z" />
    <glyph glyph-name="t_iogonek.liga" unicode="t&#x12f;" horiz-adv-x="1141" 
d="M933 951c21.333 0 35.8291 -4.50293 43.4961 -13.5029s11.5 -23.5 11.5 -43.5v-869c0 -8 -1.83301 -17.833 -5.5 -29.5s-8.5 -20.834 -14.5 -27.501l-73 -73c-10.667 -10.667 -19 -20 -25 -28s-10.667 -15.333 -14 -22s-5.66602 -12.834 -6.99902 -18.501
s-2 -11.5 -2 -17.5c0 -17.333 5.83301 -30.333 17.5 -39s30.167 -13 55.5 -13h108c4.66699 0 8.83398 -0.666992 12.501 -2s6.66699 -3.66602 9 -6.99902s4 -8.16602 5 -14.499s1.5 -14.5 1.5 -24.5s-0.5 -18.167 -1.5 -24.5s-2.66699 -11.666 -5 -15.999
s-5.66602 -7.5 -9.99902 -9.5s-9.83301 -4 -16.5 -6c-21.333 -6 -43.5 -10.5 -66.5 -13.5s-48.5 -4.5 -76.5 -4.5c-30 0 -56.833 3.33301 -80.5 10s-44 16.167 -61 28.5s-29.833 27.833 -38.5 46.5s-13 40.334 -13 65.001c0 10.667 0.833008 21.834 2.5 33.501
s5.33398 23.834 11.001 36.501s13.5 26.167 23.5 40.5s23.667 30.166 41 47.499l57 57v814h-465v-502c0 -62 9.16699 -108.833 27.5 -140.5s51.166 -47.5 98.499 -47.5c15.333 0 29 1.5 41 4.5s22.667 6.16699 32 9.5s17.333 6.5 24 9.5s12.667 4.5 18 4.5
c3.33301 0 6.5 -0.833008 9.5 -2.5s5.33301 -4.83398 7 -9.50098s3.16699 -11 4.5 -19s2 -18 2 -30c0 -19.333 -1.33301 -34.5 -4 -45.5s-6.66699 -19.333 -12 -25s-13.333 -10.834 -24 -15.501s-22.834 -8.5 -36.501 -11.5s-28.167 -5.5 -43.5 -7.5s-30.666 -3 -45.999 -3
c-46.667 0 -86.667 6.16699 -120 18.5s-60.666 31 -81.999 56s-36.833 56.667 -46.5 95s-14.5 83.5 -14.5 135.5v526h-126c-10 0 -18 5.33301 -24 16s-9 28 -9 52c0 12.667 0.833008 23.334 2.5 32.001s3.83398 15.834 6.50098 21.501s6.16699 9.66699 10.5 12
s9.16602 3.5 14.499 3.5h125v214c0 4.66699 1.16699 9 3.5 13s6.66602 7.5 12.999 10.5s14.833 5.16699 25.5 6.5s24 2 40 2c16.667 0 30.334 -0.666992 41.001 -2s19 -3.5 25 -6.5s10.333 -6.5 13 -10.5s4 -8.33301 4 -13v-214h576zM1006 1228
c0 -18.667 -1.5 -34.334 -4.5 -47.001s-8.33301 -22.834 -16 -30.501s-18 -13.167 -31 -16.5s-29.167 -5 -48.5 -5c-20 0 -36.5 1.66699 -49.5 5s-23.5 8.83301 -31.5 16.5s-13.5 17.834 -16.5 30.501s-4.5 28.334 -4.5 47.001s1.5 34.167 4.5 46.5s8.5 22.666 16.5 30.999
s18.5 14 31.5 17s29.5 4.5 49.5 4.5c19.333 0 35.5 -1.5 48.5 -4.5s23.333 -8.66699 31 -17s13 -18.666 16 -30.999s4.5 -27.833 4.5 -46.5z" />
    <glyph glyph-name="t_dotlessi.liga" unicode="t&#x131;" horiz-adv-x="1141" 
d="M936 951c20 0 33.668 -4.5 41.001 -13.5s11 -22.167 11 -39.5v-873c0 -5.33301 -1.33301 -9.83301 -4 -13.5s-7.16699 -6.83398 -13.5 -9.50098s-14.833 -4.66699 -25.5 -6s-23.667 -2 -39 -2c-16.667 0 -30.334 0.666992 -41.001 2s-19.167 3.33301 -25.5 6
s-10.833 5.83398 -13.5 9.50098s-4 8.16699 -4 13.5v789h-465v-502c0 -62 9.16699 -108.833 27.5 -140.5s51.166 -47.5 98.499 -47.5c15.333 0 29 1.5 41 4.5s22.667 6.16699 32 9.5s17.333 6.5 24 9.5s12.667 4.5 18 4.5c3.33301 0 6.5 -0.833008 9.5 -2.5
s5.33301 -4.83398 7 -9.50098s3.16699 -11 4.5 -19s2 -18 2 -30c0 -19.333 -1.33301 -34.5 -4 -45.5s-6.66699 -19.333 -12 -25s-13.333 -10.834 -24 -15.501s-22.834 -8.5 -36.501 -11.5s-28.167 -5.5 -43.5 -7.5s-30.666 -3 -45.999 -3
c-46.667 0 -86.667 6.16699 -120 18.5s-60.666 31 -81.999 56s-36.833 56.667 -46.5 95s-14.5 83.5 -14.5 135.5v526h-126c-10 0 -18 5.33301 -24 16s-9 28 -9 52c0 12.667 0.833008 23.334 2.5 32.001s3.83398 15.834 6.50098 21.501s6.16699 9.66699 10.5 12
s9.16602 3.5 14.499 3.5h125v214c0 4.66699 1.16699 9 3.5 13s6.66602 7.5 12.999 10.5s14.833 5.16699 25.5 6.5s24 2 40 2c16.667 0 30.334 -0.666992 41.001 -2s19 -3.5 25 -6.5s10.333 -6.5 13 -10.5s4 -8.33301 4 -13v-214h579z" />
    <glyph glyph-name="t_t.liga" unicode="tt" horiz-adv-x="1299" 
d="M1233 91c0 -19.333 -1.33301 -34.499 -4 -45.499s-6.83398 -19.167 -12.501 -24.5s-13.5 -10.333 -23.5 -15s-21.833 -8.66699 -35.5 -12s-28.334 -6 -44.001 -8s-30.834 -3 -45.501 -3c-47.333 0 -87.666 6.16699 -120.999 18.5s-60.5 31 -81.5 56
s-36.5 56.667 -46.5 95s-15 83.5 -15 135.5v526h-447v-502c0 -62 9.16699 -108.833 27.5 -140.5s51.166 -47.5 98.499 -47.5c15.333 0 29 1.5 41 4.5s22.667 6.16699 32 9.5s17.333 6.5 24 9.5s12.667 4.5 18 4.5c3.33301 0 6.5 -0.833008 9.5 -2.5
s5.33301 -4.83398 7 -9.50098s3.16699 -11 4.5 -19s2 -18 2 -30c0 -11.333 -0.333008 -20.333 -1 -27s-1.5 -12.834 -2.5 -18.501s-2.66699 -10.667 -5 -15s-6 -8.66602 -11 -12.999s-12.5 -8.66602 -22.5 -12.999s-21.667 -8 -35 -11s-27.666 -5.5 -42.999 -7.5
s-30.666 -3 -45.999 -3c-46.667 0 -86.667 6.16699 -120 18.5s-60.666 31 -81.999 56s-36.833 56.667 -46.5 95s-14.5 83.5 -14.5 135.5v526h-126c-10 0 -18 5.33301 -24 16s-9 28 -9 52c0 12.667 0.833008 23.334 2.5 32.001s3.83398 15.834 6.50098 21.501
s6.16699 9.66699 10.5 12s9.16602 3.5 14.499 3.5h125v214c0 4.66699 1.16699 9 3.5 13s6.66602 7.5 12.999 10.5s14.833 5.16699 25.5 6.5s24 2 40 2c16.667 0 30.334 -0.666992 41.001 -2s19 -3.5 25 -6.5s10.333 -6.5 13 -10.5s4 -8.33301 4 -13v-214h447v257
c0 5.33301 1.33301 10 4 14s7.16699 7.16699 13.5 9.5s14.833 4.33301 25.5 6s24 2.5 40 2.5s29.333 -0.833008 40 -2.5s19.167 -3.66699 25.5 -6s10.833 -5.5 13.5 -9.5s4 -8.66699 4 -14v-257h230c5.33301 0 10 -1.16699 14 -3.5s7.5 -6.33301 10.5 -12
s5.16699 -12.834 6.5 -21.501s2 -19.334 2 -32.001c0 -24 -3 -41.333 -9 -52s-13.667 -16 -23 -16h-231v-502c0 -62 9 -108.833 27 -140.5s50.667 -47.5 98 -47.5c14.667 0 28.167 1.5 40.5 4.5s23.166 6.16699 32.499 9.5s17.5 6.5 24.5 9.5s12.833 4.5 17.5 4.5
c4 0 7.33301 -0.833008 10 -2.5s4.83398 -4.83398 6.50098 -9.50098s3.16699 -11 4.5 -19s2 -18 2 -30z" />
    <glyph glyph-name="t_t_f.liga" unicode="ttf" horiz-adv-x="1867" 
d="M1888 1295c0 -12.667 -0.667969 -22.8271 -2.00098 -30.4941s-2.83301 -13.834 -4.5 -18.501s-4 -7.83398 -7 -9.50098s-6.5 -2.5 -10.5 -2.5c-4.66699 0 -10.5 1.5 -17.5 4.5s-15.333 6.33301 -25 10s-21.334 7 -35.001 10s-29.5 4.5 -47.5 4.5
c-24.667 0 -45.667 -4 -63 -12s-31.166 -20.5 -41.499 -37.5s-18 -39 -23 -66s-7.5 -59.833 -7.5 -98.5v-98h201c5.33301 0 9.83301 -1.16699 13.5 -3.5s7 -6.33301 10 -12s5.33301 -12.834 7 -21.501s2.5 -19.334 2.5 -32.001c0 -24 -3 -41.333 -9 -52s-14 -16 -24 -16
h-201v-789c0 -5.33301 -1.33301 -9.83301 -4 -13.5s-7 -6.83398 -13 -9.50098s-14.5 -4.66699 -25.5 -6s-24.5 -2 -40.5 -2s-29.333 0.666992 -40 2s-19.167 3.33301 -25.5 6s-10.833 5.83398 -13.5 9.50098s-4 8.16699 -4 13.5v789h-468v-502c0 -62 9 -108.833 27 -140.5
s50.667 -47.5 98 -47.5c14.667 0 28.167 1.5 40.5 4.5s23.166 6.16699 32.499 9.5s17.5 6.5 24.5 9.5s12.833 4.5 17.5 4.5c4 0 7.33301 -0.833008 10 -2.5s4.83398 -4.83398 6.50098 -9.50098s3.16699 -11 4.5 -19s2 -18 2 -30c0 -19.333 -1.16699 -34.5 -3.5 -45.5
s-6.33301 -19.333 -12 -25s-14 -10.834 -25 -15.501s-23 -8.5 -36 -11.5s-27.333 -5.5 -43 -7.5s-30.834 -3 -45.501 -3c-47.333 0 -87.666 6.16699 -120.999 18.5s-60.5 31 -81.5 56s-36.5 56.667 -46.5 95s-15 83.5 -15 135.5v526h-447v-502
c0 -62 9.16699 -108.833 27.5 -140.5s51.166 -47.5 98.499 -47.5c15.333 0 29 1.5 41 4.5s22.667 6.16699 32 9.5s17.333 6.5 24 9.5s12.667 4.5 18 4.5c3.33301 0 6.5 -0.833008 9.5 -2.5s5.33301 -4.83398 7 -9.50098s3.16699 -11 4.5 -19s2 -18 2 -30
c0 -19.333 -1.33301 -34.5 -4 -45.5s-6.66699 -19.333 -12 -25s-13.5 -10.834 -24.5 -15.501s-23.167 -8.5 -36.5 -11.5s-27.666 -5.5 -42.999 -7.5s-30.666 -3 -45.999 -3c-46.667 0 -86.667 6.16699 -120 18.5s-60.666 31 -81.999 56s-36.833 56.667 -46.5 95
s-14.5 83.5 -14.5 135.5v526h-126c-10 0 -18 5.33301 -24 16s-9 28 -9 52c0 12.667 0.833008 23.334 2.5 32.001s3.83398 15.834 6.50098 21.501s6.16699 9.66699 10.5 12s9.16602 3.5 14.499 3.5h125v214c0 4.66699 1.16699 9 3.5 13s6.66602 7.5 12.999 10.5
s14.833 5.16699 25.5 6.5s24 2 40 2c16.667 0 30.334 -0.666992 41.001 -2s19 -3.5 25 -6.5s10.333 -6.5 13 -10.5s4 -8.33301 4 -13v-214h447v257c0 5.33301 1.33301 10 4 14s7.16699 7.16699 13.5 9.5s14.833 4.33301 25.5 6s24 2.5 40 2.5s29.333 -0.833008 40 -2.5
s19.167 -3.66699 25.5 -6s10.833 -5.5 13.5 -9.5s4 -8.66699 4 -14v-257h468v93c0 62.667 5.83301 116.5 17.5 161.5s29.5 81.833 53.5 110.5s54.167 49.834 90.5 63.501s79.166 20.5 128.499 20.5c24.667 0 47.834 -2.33301 69.501 -7s38.167 -9.33398 49.5 -14.001
s19.166 -9 23.499 -13s7.83301 -9.16699 10.5 -15.5s4.5 -14 5.5 -23s1.5 -19.833 1.5 -32.5z" />
    <glyph glyph-name="t_t_i.liga" unicode="tti" horiz-adv-x="1753" 
d="M357 814l0.00390625 -502.004c0 -62 9.16699 -108.833 27.5 -140.5s51.166 -47.5 98.499 -47.5c15.333 0 29 1.5 41 4.5s22.667 6.16699 32 9.5s17.333 6.5 24 9.5s12.667 4.5 18 4.5c3.33301 0 6.5 -0.833008 9.5 -2.5s5.33301 -4.83398 7 -9.50098s3.16699 -11 4.5 -19
s2 -18 2 -30c0 -19.333 -1.33301 -34.666 -4 -45.999s-6.83398 -19.666 -12.501 -24.999s-13.667 -10.333 -24 -15s-22.333 -8.5 -36 -11.5s-28.167 -5.5 -43.5 -7.5s-30.666 -3 -45.999 -3c-46.667 0 -86.667 6.16699 -120 18.5s-60.666 31 -81.999 56
s-36.833 56.667 -46.5 95s-14.5 83.5 -14.5 135.5v526h-126c-10 0 -18 5.33301 -24 16s-9 28 -9 52c0 12.667 0.833008 23.334 2.5 32.001s3.83398 15.834 6.50098 21.501s6.16699 9.66699 10.5 12s9.16602 3.5 14.499 3.5h125v214c0 4.66699 1.16699 9 3.5 13
s6.66602 7.5 12.999 10.5s14.833 5.16699 25.5 6.5s24 2 40 2c16.667 0 30.334 -0.666992 41.001 -2s19 -3.5 25 -6.5s10.333 -6.5 13 -10.5s4 -8.33301 4 -13v-214h447v257c0 5.33301 1.33301 10 4 14s7.16699 7.16699 13.5 9.5s14.833 4.33301 25.5 6s24 2.5 40 2.5
s29.333 -0.833008 40 -2.5s19.167 -3.66699 25.5 -6s10.833 -5.5 13.5 -9.5s4 -8.66699 4 -14v-257h579c19.333 0 32.833 -4.5 40.5 -13.5s11.5 -22.167 11.5 -39.5v-873c0 -5.33301 -1.33301 -9.83301 -4 -13.5s-7.16699 -6.83398 -13.5 -9.50098
s-14.833 -4.66699 -25.5 -6s-24.334 -2 -41.001 -2c-15.333 0 -28.333 0.666992 -39 2s-19.334 3.33301 -26.001 6s-11.167 5.83398 -13.5 9.50098s-3.5 8.16699 -3.5 13.5v789h-465v-502c0 -62 9 -108.833 27 -140.5s50.667 -47.5 98 -47.5c14.667 0 28.167 1.5 40.5 4.5
s23.166 6.16699 32.499 9.5s17.5 6.5 24.5 9.5s12.833 4.5 17.5 4.5c4 0 7.33301 -0.833008 10 -2.5s4.83398 -4.83398 6.50098 -9.50098s3.16699 -11 4.5 -19s2 -18 2 -30c0 -19.333 -1.33301 -34.666 -4 -45.999s-6.83398 -19.666 -12.501 -24.999
s-13.5 -10.333 -23.5 -15s-21.833 -8.5 -35.5 -11.5s-28.334 -5.5 -44.001 -7.5s-30.834 -3 -45.501 -3c-47.333 0 -87.666 6.16699 -120.999 18.5s-60.5 31 -81.5 56s-36.5 56.667 -46.5 95s-15 83.5 -15 135.5v526h-447zM1619 1229c0 -38.667 -7.33301 -65 -22 -79
s-41.667 -21 -81 -21c-38.667 0 -65.167 6.83301 -79.5 20.5s-21.5 39.5 -21.5 77.5c0 38.667 7.33301 65 22 79s41.667 21 81 21c38.667 0 65.167 -6.83301 79.5 -20.5s21.5 -39.5 21.5 -77.5zM1282 950.996z" />
    <glyph glyph-name="t_t_igrave.liga" unicode="tt&#xec;" horiz-adv-x="1753" 
d="M357 814l0.00390625 -502.004c0 -62 9.16699 -108.833 27.5 -140.5s51.166 -47.5 98.499 -47.5c15.333 0 29 1.5 41 4.5s22.667 6.16699 32 9.5s17.333 6.5 24 9.5s12.667 4.5 18 4.5c3.33301 0 6.5 -0.833008 9.5 -2.5s5.33301 -4.83398 7 -9.50098s3.16699 -11 4.5 -19
s2 -18 2 -30c0 -19.333 -1.33301 -34.666 -4 -45.999s-6.83398 -19.666 -12.501 -24.999s-13.667 -10.333 -24 -15s-22.333 -8.5 -36 -11.5s-28.167 -5.5 -43.5 -7.5s-30.666 -3 -45.999 -3c-46.667 0 -86.667 6.16699 -120 18.5s-60.666 31 -81.999 56
s-36.833 56.667 -46.5 95s-14.5 83.5 -14.5 135.5v526h-126c-10 0 -18 5.33301 -24 16s-9 28 -9 52c0 12.667 0.833008 23.334 2.5 32.001s3.83398 15.834 6.50098 21.501s6.16699 9.66699 10.5 12s9.16602 3.5 14.499 3.5h125v214c0 4.66699 1.16699 9 3.5 13
s6.66602 7.5 12.999 10.5s14.833 5.16699 25.5 6.5s24 2 40 2c16.667 0 30.334 -0.666992 41.001 -2s19 -3.5 25 -6.5s10.333 -6.5 13 -10.5s4 -8.33301 4 -13v-214h447v257c0 5.33301 1.33301 10 4 14s7.16699 7.16699 13.5 9.5s14.833 4.33301 25.5 6s24 2.5 40 2.5
s29.333 -0.833008 40 -2.5s19.167 -3.66699 25.5 -6s10.833 -5.5 13.5 -9.5s4 -8.66699 4 -14v-257h579c19.333 0 32.833 -4.5 40.5 -13.5s11.5 -22.167 11.5 -39.5v-873c0 -5.33301 -1.33301 -9.83301 -4 -13.5s-7.16699 -6.83398 -13.5 -9.50098
s-14.833 -4.66699 -25.5 -6s-24.334 -2 -41.001 -2c-15.333 0 -28.333 0.666992 -39 2s-19.334 3.33301 -26.001 6s-11.167 5.83398 -13.5 9.50098s-3.5 8.16699 -3.5 13.5v789h-465v-502c0 -62 9 -108.833 27 -140.5s50.667 -47.5 98 -47.5c14.667 0 28.167 1.5 40.5 4.5
s23.166 6.16699 32.499 9.5s17.5 6.5 24.5 9.5s12.833 4.5 17.5 4.5c4 0 7.33301 -0.833008 10 -2.5s4.83398 -4.83398 6.50098 -9.50098s3.16699 -11 4.5 -19s2 -18 2 -30c0 -19.333 -1.33301 -34.666 -4 -45.999s-6.83398 -19.666 -12.501 -24.999
s-13.5 -10.333 -23.5 -15s-21.833 -8.5 -35.5 -11.5s-28.334 -5.5 -44.001 -7.5s-30.834 -3 -45.501 -3c-47.333 0 -87.666 6.16699 -120.999 18.5s-60.5 31 -81.5 56s-36.5 56.667 -46.5 95s-15 83.5 -15 135.5v526h-447zM1575 1134
c4.66699 -7.33301 7.66895 -13.666 9.00195 -18.999s0.166016 -9.66602 -3.50098 -12.999s-9.66699 -6 -18 -8s-19.833 -3 -34.5 -3c-13.333 0 -24.333 0.5 -33 1.5s-16.167 2.66699 -22.5 5s-11.833 5.5 -16.5 9.5s-9.33398 9.33301 -14.001 16l-181 233
c-5.33301 6 -8.33301 11.833 -9 17.5s1.33301 10.667 6 15s12.834 7.66602 24.501 9.99902s26.834 3.5 45.501 3.5c16 0 29.5 -0.666992 40.5 -2s20.167 -3.33301 27.5 -6s13.666 -6.33398 18.999 -11.001s10.666 -10.667 15.999 -18zM1120.01 950.996z" />
    <glyph glyph-name="t_t_iacute.liga" unicode="tt&#xed;" horiz-adv-x="1753" 
d="M357 814l0.00390625 -502.004c0 -62 9.16699 -108.833 27.5 -140.5s51.166 -47.5 98.499 -47.5c15.333 0 29 1.5 41 4.5s22.667 6.16699 32 9.5s17.333 6.5 24 9.5s12.667 4.5 18 4.5c3.33301 0 6.5 -0.833008 9.5 -2.5s5.33301 -4.83398 7 -9.50098s3.16699 -11 4.5 -19
s2 -18 2 -30c0 -19.333 -1.33301 -34.666 -4 -45.999s-6.83398 -19.666 -12.501 -24.999s-13.667 -10.333 -24 -15s-22.333 -8.5 -36 -11.5s-28.167 -5.5 -43.5 -7.5s-30.666 -3 -45.999 -3c-46.667 0 -86.667 6.16699 -120 18.5s-60.666 31 -81.999 56
s-36.833 56.667 -46.5 95s-14.5 83.5 -14.5 135.5v526h-126c-10 0 -18 5.33301 -24 16s-9 28 -9 52c0 12.667 0.833008 23.334 2.5 32.001s3.83398 15.834 6.50098 21.501s6.16699 9.66699 10.5 12s9.16602 3.5 14.499 3.5h125v214c0 4.66699 1.16699 9 3.5 13
s6.66602 7.5 12.999 10.5s14.833 5.16699 25.5 6.5s24 2 40 2c16.667 0 30.334 -0.666992 41.001 -2s19 -3.5 25 -6.5s10.333 -6.5 13 -10.5s4 -8.33301 4 -13v-214h447v257c0 5.33301 1.33301 10 4 14s7.16699 7.16699 13.5 9.5s14.833 4.33301 25.5 6s24 2.5 40 2.5
s29.333 -0.833008 40 -2.5s19.167 -3.66699 25.5 -6s10.833 -5.5 13.5 -9.5s4 -8.66699 4 -14v-257h579c19.333 0 32.833 -4.5 40.5 -13.5s11.5 -22.167 11.5 -39.5v-873c0 -5.33301 -1.33301 -9.83301 -4 -13.5s-7.16699 -6.83398 -13.5 -9.50098
s-14.833 -4.66699 -25.5 -6s-24.334 -2 -41.001 -2c-15.333 0 -28.333 0.666992 -39 2s-19.334 3.33301 -26.001 6s-11.167 5.83398 -13.5 9.50098s-3.5 8.16699 -3.5 13.5v789h-465v-502c0 -62 9 -108.833 27 -140.5s50.667 -47.5 98 -47.5c14.667 0 28.167 1.5 40.5 4.5
s23.166 6.16699 32.499 9.5s17.5 6.5 24.5 9.5s12.833 4.5 17.5 4.5c4 0 7.33301 -0.833008 10 -2.5s4.83398 -4.83398 6.50098 -9.50098s3.16699 -11 4.5 -19s2 -18 2 -30c0 -19.333 -1.33301 -34.666 -4 -45.999s-6.83398 -19.666 -12.501 -24.999
s-13.5 -10.333 -23.5 -15s-21.833 -8.5 -35.5 -11.5s-28.334 -5.5 -44.001 -7.5s-30.834 -3 -45.501 -3c-47.333 0 -87.666 6.16699 -120.999 18.5s-60.5 31 -81.5 56s-36.5 56.667 -46.5 95s-15 83.5 -15 135.5v526h-447zM1587 1365c4 7.33301 8.66602 13.333 13.999 18
s11.833 8.33398 19.5 11.001s17.167 4.66699 28.5 6s25 2 41 2c18.667 0 33.834 -1.16699 45.501 -3.5s19.834 -5.66602 24.501 -9.99902s6.66699 -9.33301 6 -15s-3.66699 -11.5 -9 -17.5l-181 -233c-5.33301 -6.66699 -10.166 -12 -14.499 -16s-9.33301 -7.16699 -15 -9.5
s-13 -4 -22 -5s-20.167 -1.5 -33.5 -1.5c-14.667 0 -26.334 1 -35.001 3s-14.834 4.66699 -18.501 8s-5 7.66602 -4 12.999s3.83301 11.666 8.5 18.999zM1301 950.996z" />
    <glyph glyph-name="t_t_icircumflex.liga" unicode="tt&#xee;" horiz-adv-x="1753" 
d="M357 814l0.00390625 -502.004c0 -62 9.16699 -108.833 27.5 -140.5s51.166 -47.5 98.499 -47.5c15.333 0 29 1.5 41 4.5s22.667 6.16699 32 9.5s17.333 6.5 24 9.5s12.667 4.5 18 4.5c3.33301 0 6.5 -0.833008 9.5 -2.5s5.33301 -4.83398 7 -9.50098s3.16699 -11 4.5 -19
s2 -18 2 -30c0 -19.333 -1.33301 -34.666 -4 -45.999s-6.83398 -19.666 -12.501 -24.999s-13.667 -10.333 -24 -15s-22.333 -8.5 -36 -11.5s-28.167 -5.5 -43.5 -7.5s-30.666 -3 -45.999 -3c-46.667 0 -86.667 6.16699 -120 18.5s-60.666 31 -81.999 56
s-36.833 56.667 -46.5 95s-14.5 83.5 -14.5 135.5v526h-126c-10 0 -18 5.33301 -24 16s-9 28 -9 52c0 12.667 0.833008 23.334 2.5 32.001s3.83398 15.834 6.50098 21.501s6.16699 9.66699 10.5 12s9.16602 3.5 14.499 3.5h125v214c0 4.66699 1.16699 9 3.5 13
s6.66602 7.5 12.999 10.5s14.833 5.16699 25.5 6.5s24 2 40 2c16.667 0 30.334 -0.666992 41.001 -2s19 -3.5 25 -6.5s10.333 -6.5 13 -10.5s4 -8.33301 4 -13v-214h447v257c0 5.33301 1.33301 10 4 14s7.16699 7.16699 13.5 9.5s14.833 4.33301 25.5 6s24 2.5 40 2.5
s29.333 -0.833008 40 -2.5s19.167 -3.66699 25.5 -6s10.833 -5.5 13.5 -9.5s4 -8.66699 4 -14v-257h579c19.333 0 32.833 -4.5 40.5 -13.5s11.5 -22.167 11.5 -39.5v-873c0 -5.33301 -1.33301 -9.83301 -4 -13.5s-7.16699 -6.83398 -13.5 -9.50098
s-14.833 -4.66699 -25.5 -6s-24.334 -2 -41.001 -2c-15.333 0 -28.333 0.666992 -39 2s-19.334 3.33301 -26.001 6s-11.167 5.83398 -13.5 9.50098s-3.5 8.16699 -3.5 13.5v789h-465v-502c0 -62 9 -108.833 27 -140.5s50.667 -47.5 98 -47.5c14.667 0 28.167 1.5 40.5 4.5
s23.166 6.16699 32.499 9.5s17.5 6.5 24.5 9.5s12.833 4.5 17.5 4.5c4 0 7.33301 -0.833008 10 -2.5s4.83398 -4.83398 6.50098 -9.50098s3.16699 -11 4.5 -19s2 -18 2 -30c0 -19.333 -1.33301 -34.666 -4 -45.999s-6.83398 -19.666 -12.501 -24.999
s-13.5 -10.333 -23.5 -15s-21.833 -8.5 -35.5 -11.5s-28.334 -5.5 -44.001 -7.5s-30.834 -3 -45.501 -3c-47.333 0 -87.666 6.16699 -120.999 18.5s-60.5 31 -81.5 56s-36.5 56.667 -46.5 95s-15 83.5 -15 135.5v526h-447zM1376 1121
c-4 -6.66699 -8.00195 -11.833 -12.002 -15.5s-8.83301 -6.5 -14.5 -8.5s-12.667 -3.5 -21 -4.5s-18.833 -1.5 -31.5 -1.5c-18 0 -31.833 1.16699 -41.5 3.5s-16.167 5.66602 -19.5 9.99902s-3.66602 10 -0.999023 17s8 15.5 16 25.5l165 229
c3.33301 5.33301 7.33301 9.5 12 12.5s10.5 5.5 17.5 7.5s15.667 3.5 26 4.5s22.833 1.5 37.5 1.5c14 0 25.667 -0.5 35 -1.5s17.333 -2.66699 24 -5s12.167 -5 16.5 -8s8.16602 -6.83301 11.499 -11.5l165 -229c7.33301 -10 12.333 -18.5 15 -25.5s2.5 -12.667 -0.5 -17
s-9.5 -7.66602 -19.5 -9.99902s-23.667 -3.5 -41 -3.5c-14 0 -25.167 0.5 -33.5 1.5s-15.166 2.5 -20.499 4.5s-9.66602 5 -12.999 9l-12 15l-130 180zM1102 950.997z" />
    <glyph glyph-name="t_t_idieresis.liga" unicode="tt&#xef;" horiz-adv-x="1753" 
d="M357 814l0.00390625 -502.004c0 -62 9.16699 -108.833 27.5 -140.5s51.166 -47.5 98.499 -47.5c15.333 0 29 1.5 41 4.5s22.667 6.16699 32 9.5s17.333 6.5 24 9.5s12.667 4.5 18 4.5c3.33301 0 6.5 -0.833008 9.5 -2.5s5.33301 -4.83398 7 -9.50098s3.16699 -11 4.5 -19
s2 -18 2 -30c0 -19.333 -1.33301 -34.666 -4 -45.999s-6.83398 -19.666 -12.501 -24.999s-13.667 -10.333 -24 -15s-22.333 -8.5 -36 -11.5s-28.167 -5.5 -43.5 -7.5s-30.666 -3 -45.999 -3c-46.667 0 -86.667 6.16699 -120 18.5s-60.666 31 -81.999 56
s-36.833 56.667 -46.5 95s-14.5 83.5 -14.5 135.5v526h-126c-10 0 -18 5.33301 -24 16s-9 28 -9 52c0 12.667 0.833008 23.334 2.5 32.001s3.83398 15.834 6.50098 21.501s6.16699 9.66699 10.5 12s9.16602 3.5 14.499 3.5h125v214c0 4.66699 1.16699 9 3.5 13
s6.66602 7.5 12.999 10.5s14.833 5.16699 25.5 6.5s24 2 40 2c16.667 0 30.334 -0.666992 41.001 -2s19 -3.5 25 -6.5s10.333 -6.5 13 -10.5s4 -8.33301 4 -13v-214h447v257c0 5.33301 1.33301 10 4 14s7.16699 7.16699 13.5 9.5s14.833 4.33301 25.5 6s24 2.5 40 2.5
s29.333 -0.833008 40 -2.5s19.167 -3.66699 25.5 -6s10.833 -5.5 13.5 -9.5s4 -8.66699 4 -14v-257h579c19.333 0 32.833 -4.5 40.5 -13.5s11.5 -22.167 11.5 -39.5v-873c0 -5.33301 -1.33301 -9.83301 -4 -13.5s-7.16699 -6.83398 -13.5 -9.50098
s-14.833 -4.66699 -25.5 -6s-24.334 -2 -41.001 -2c-15.333 0 -28.333 0.666992 -39 2s-19.334 3.33301 -26.001 6s-11.167 5.83398 -13.5 9.50098s-3.5 8.16699 -3.5 13.5v789h-465v-502c0 -62 9 -108.833 27 -140.5s50.667 -47.5 98 -47.5c14.667 0 28.167 1.5 40.5 4.5
s23.166 6.16699 32.499 9.5s17.5 6.5 24.5 9.5s12.833 4.5 17.5 4.5c4 0 7.33301 -0.833008 10 -2.5s4.83398 -4.83398 6.50098 -9.50098s3.16699 -11 4.5 -19s2 -18 2 -30c0 -19.333 -1.33301 -34.666 -4 -45.999s-6.83398 -19.666 -12.501 -24.999
s-13.5 -10.333 -23.5 -15s-21.833 -8.5 -35.5 -11.5s-28.334 -5.5 -44.001 -7.5s-30.834 -3 -45.501 -3c-47.333 0 -87.666 6.16699 -120.999 18.5s-60.5 31 -81.5 56s-36.5 56.667 -46.5 95s-15 83.5 -15 135.5v526h-447zM1448 1217
c0 -36 -6.66602 -60.835 -19.999 -74.502s-37.333 -20.5 -72 -20.5s-58.334 6.5 -71.001 19.5s-19 37.167 -19 72.5c0 36.667 6.5 61.834 19.5 75.501s36.833 20.5 71.5 20.5s58.5 -6.66699 71.5 -20s19.5 -37.666 19.5 -72.999zM1759 1216.99
c0 -36 -6.66602 -60.835 -19.999 -74.502s-37.333 -20.5 -72 -20.5s-58.334 6.5 -71.001 19.5s-19 37.167 -19 72.5c0 36.667 6.5 61.834 19.5 75.501s36.5 20.5 70.5 20.5c35.333 0 59.5 -6.66699 72.5 -20s19.5 -37.666 19.5 -72.999zM1134.01 950.992z" />
    <glyph glyph-name="t_t_imacron.liga" unicode="tt&#x12b;" horiz-adv-x="1753" 
d="M357 814l0.00390625 -502.004c0 -62 9.16699 -108.833 27.5 -140.5s51.166 -47.5 98.499 -47.5c15.333 0 29 1.5 41 4.5s22.667 6.16699 32 9.5s17.333 6.5 24 9.5s12.667 4.5 18 4.5c3.33301 0 6.5 -0.833008 9.5 -2.5s5.33301 -4.83398 7 -9.50098s3.16699 -11 4.5 -19
s2 -18 2 -30c0 -19.333 -1.33301 -34.666 -4 -45.999s-6.83398 -19.666 -12.501 -24.999s-13.667 -10.333 -24 -15s-22.333 -8.5 -36 -11.5s-28.167 -5.5 -43.5 -7.5s-30.666 -3 -45.999 -3c-46.667 0 -86.667 6.16699 -120 18.5s-60.666 31 -81.999 56
s-36.833 56.667 -46.5 95s-14.5 83.5 -14.5 135.5v526h-126c-10 0 -18 5.33301 -24 16s-9 28 -9 52c0 12.667 0.833008 23.334 2.5 32.001s3.83398 15.834 6.50098 21.501s6.16699 9.66699 10.5 12s9.16602 3.5 14.499 3.5h125v214c0 4.66699 1.16699 9 3.5 13
s6.66602 7.5 12.999 10.5s14.833 5.16699 25.5 6.5s24 2 40 2c16.667 0 30.334 -0.666992 41.001 -2s19 -3.5 25 -6.5s10.333 -6.5 13 -10.5s4 -8.33301 4 -13v-214h447v257c0 5.33301 1.33301 10 4 14s7.16699 7.16699 13.5 9.5s14.833 4.33301 25.5 6s24 2.5 40 2.5
s29.333 -0.833008 40 -2.5s19.167 -3.66699 25.5 -6s10.833 -5.5 13.5 -9.5s4 -8.66699 4 -14v-257h579c19.333 0 32.833 -4.5 40.5 -13.5s11.5 -22.167 11.5 -39.5v-873c0 -5.33301 -1.33301 -9.83301 -4 -13.5s-7.16699 -6.83398 -13.5 -9.50098
s-14.833 -4.66699 -25.5 -6s-24.334 -2 -41.001 -2c-15.333 0 -28.333 0.666992 -39 2s-19.334 3.33301 -26.001 6s-11.167 5.83398 -13.5 9.50098s-3.5 8.16699 -3.5 13.5v789h-465v-502c0 -62 9 -108.833 27 -140.5s50.667 -47.5 98 -47.5c14.667 0 28.167 1.5 40.5 4.5
s23.166 6.16699 32.499 9.5s17.5 6.5 24.5 9.5s12.833 4.5 17.5 4.5c4 0 7.33301 -0.833008 10 -2.5s4.83398 -4.83398 6.50098 -9.50098s3.16699 -11 4.5 -19s2 -18 2 -30c0 -19.333 -1.33301 -34.666 -4 -45.999s-6.83398 -19.666 -12.501 -24.999
s-13.5 -10.333 -23.5 -15s-21.833 -8.5 -35.5 -11.5s-28.334 -5.5 -44.001 -7.5s-30.834 -3 -45.501 -3c-47.333 0 -87.666 6.16699 -120.999 18.5s-60.5 31 -81.5 56s-36.5 56.667 -46.5 95s-15 83.5 -15 135.5v526h-447zM1750 1293c5.33301 0 10 -1.16699 14 -3.5
s7.16699 -6 9.5 -11s4.33301 -11.667 6 -20s2.5 -18.5 2.5 -30.5c0 -11.333 -0.833008 -20.833 -2.5 -28.5s-3.66699 -14.167 -6 -19.5s-5.5 -9.33301 -9.5 -12s-8.66699 -4 -14 -4h-479c-5.33301 0 -10.166 1.33301 -14.499 4s-7.83301 6.66699 -10.5 12
s-4.66699 11.833 -6 19.5s-2 17.167 -2 28.5c0 12 0.666992 22.167 2 30.5s3.33301 15 6 20s6.16699 8.66699 10.5 11s9.16602 3.5 14.499 3.5h479zM1106 950.996z" />
    <glyph glyph-name="t_t_itilde.liga" unicode="tt&#x129;" horiz-adv-x="1753" 
d="M357 814l0.00390625 -502.004c0 -62 9.16699 -108.833 27.5 -140.5s51.166 -47.5 98.499 -47.5c15.333 0 29 1.5 41 4.5s22.667 6.16699 32 9.5s17.333 6.5 24 9.5s12.667 4.5 18 4.5c3.33301 0 6.5 -0.833008 9.5 -2.5s5.33301 -4.83398 7 -9.50098s3.16699 -11 4.5 -19
s2 -18 2 -30c0 -19.333 -1.33301 -34.666 -4 -45.999s-6.83398 -19.666 -12.501 -24.999s-13.667 -10.333 -24 -15s-22.333 -8.5 -36 -11.5s-28.167 -5.5 -43.5 -7.5s-30.666 -3 -45.999 -3c-46.667 0 -86.667 6.16699 -120 18.5s-60.666 31 -81.999 56
s-36.833 56.667 -46.5 95s-14.5 83.5 -14.5 135.5v526h-126c-10 0 -18 5.33301 -24 16s-9 28 -9 52c0 12.667 0.833008 23.334 2.5 32.001s3.83398 15.834 6.50098 21.501s6.16699 9.66699 10.5 12s9.16602 3.5 14.499 3.5h125v214c0 4.66699 1.16699 9 3.5 13
s6.66602 7.5 12.999 10.5s14.833 5.16699 25.5 6.5s24 2 40 2c16.667 0 30.334 -0.666992 41.001 -2s19 -3.5 25 -6.5s10.333 -6.5 13 -10.5s4 -8.33301 4 -13v-214h447v257c0 5.33301 1.33301 10 4 14s7.16699 7.16699 13.5 9.5s14.833 4.33301 25.5 6s24 2.5 40 2.5
s29.333 -0.833008 40 -2.5s19.167 -3.66699 25.5 -6s10.833 -5.5 13.5 -9.5s4 -8.66699 4 -14v-257h579c19.333 0 32.833 -4.5 40.5 -13.5s11.5 -22.167 11.5 -39.5v-873c0 -5.33301 -1.33301 -9.83301 -4 -13.5s-7.16699 -6.83398 -13.5 -9.50098
s-14.833 -4.66699 -25.5 -6s-24.334 -2 -41.001 -2c-15.333 0 -28.333 0.666992 -39 2s-19.334 3.33301 -26.001 6s-11.167 5.83398 -13.5 9.50098s-3.5 8.16699 -3.5 13.5v789h-465v-502c0 -62 9 -108.833 27 -140.5s50.667 -47.5 98 -47.5c14.667 0 28.167 1.5 40.5 4.5
s23.166 6.16699 32.499 9.5s17.5 6.5 24.5 9.5s12.833 4.5 17.5 4.5c4 0 7.33301 -0.833008 10 -2.5s4.83398 -4.83398 6.50098 -9.50098s3.16699 -11 4.5 -19s2 -18 2 -30c0 -19.333 -1.33301 -34.666 -4 -45.999s-6.83398 -19.666 -12.501 -24.999
s-13.5 -10.333 -23.5 -15s-21.833 -8.5 -35.5 -11.5s-28.334 -5.5 -44.001 -7.5s-30.834 -3 -45.501 -3c-47.333 0 -87.666 6.16699 -120.999 18.5s-60.5 31 -81.5 56s-36.5 56.667 -46.5 95s-15 83.5 -15 135.5v526h-447zM1829 1314
c0 -70.667 -17.333 -124.669 -52 -162.002s-81.667 -56 -141 -56c-24.667 0 -46.667 3.16699 -66 9.5s-37 14.5 -53 24.5s-30.667 20.667 -44 32s-26.5 22 -39.5 32s-25.833 18.167 -38.5 24.5s-26.334 9.5 -41.001 9.5c-26.667 0 -45.334 -9.66699 -56.001 -29
s-16 -45 -16 -77c0 -4.66699 -0.666992 -8.83398 -2 -12.501s-4.16602 -6.5 -8.49902 -8.5s-10.666 -3.33301 -18.999 -4s-18.833 -1 -31.5 -1c-10.667 0 -19.667 0.5 -27 1.5s-13.166 3 -17.499 6s-7.5 7.33301 -9.5 13s-3 12.834 -3 21.501c0 66 16.667 118.667 50 158
s81 59 143 59c36 0 67 -6.83301 93 -20.5s49.5 -28.667 70.5 -45l59 -45.5c18.333 -14 38.166 -21 59.499 -21c24 0 42.167 8.83301 54.5 26.5s18.5 43.834 18.5 78.501c0 10.667 3.5 17.834 10.5 21.501s22.167 5.5 45.5 5.5c24.667 0 41 -2.5 49 -7.5s12 -16.167 12 -33.5
zM1035 950.994z" />
    <glyph glyph-name="t_t_ibreve.liga" unicode="tt&#x12d;" horiz-adv-x="1753" 
d="M357 814l0.00390625 -502.004c0 -62 9.16699 -108.833 27.5 -140.5s51.166 -47.5 98.499 -47.5c15.333 0 29 1.5 41 4.5s22.667 6.16699 32 9.5s17.333 6.5 24 9.5s12.667 4.5 18 4.5c3.33301 0 6.5 -0.833008 9.5 -2.5s5.33301 -4.83398 7 -9.50098s3.16699 -11 4.5 -19
s2 -18 2 -30c0 -19.333 -1.33301 -34.666 -4 -45.999s-6.83398 -19.666 -12.501 -24.999s-13.667 -10.333 -24 -15s-22.333 -8.5 -36 -11.5s-28.167 -5.5 -43.5 -7.5s-30.666 -3 -45.999 -3c-46.667 0 -86.667 6.16699 -120 18.5s-60.666 31 -81.999 56
s-36.833 56.667 -46.5 95s-14.5 83.5 -14.5 135.5v526h-126c-10 0 -18 5.33301 -24 16s-9 28 -9 52c0 12.667 0.833008 23.334 2.5 32.001s3.83398 15.834 6.50098 21.501s6.16699 9.66699 10.5 12s9.16602 3.5 14.499 3.5h125v214c0 4.66699 1.16699 9 3.5 13
s6.66602 7.5 12.999 10.5s14.833 5.16699 25.5 6.5s24 2 40 2c16.667 0 30.334 -0.666992 41.001 -2s19 -3.5 25 -6.5s10.333 -6.5 13 -10.5s4 -8.33301 4 -13v-214h447v257c0 5.33301 1.33301 10 4 14s7.16699 7.16699 13.5 9.5s14.833 4.33301 25.5 6s24 2.5 40 2.5
s29.333 -0.833008 40 -2.5s19.167 -3.66699 25.5 -6s10.833 -5.5 13.5 -9.5s4 -8.66699 4 -14v-257h579c19.333 0 32.833 -4.5 40.5 -13.5s11.5 -22.167 11.5 -39.5v-873c0 -5.33301 -1.33301 -9.83301 -4 -13.5s-7.16699 -6.83398 -13.5 -9.50098
s-14.833 -4.66699 -25.5 -6s-24.334 -2 -41.001 -2c-15.333 0 -28.333 0.666992 -39 2s-19.334 3.33301 -26.001 6s-11.167 5.83398 -13.5 9.50098s-3.5 8.16699 -3.5 13.5v789h-465v-502c0 -62 9 -108.833 27 -140.5s50.667 -47.5 98 -47.5c14.667 0 28.167 1.5 40.5 4.5
s23.166 6.16699 32.499 9.5s17.5 6.5 24.5 9.5s12.833 4.5 17.5 4.5c4 0 7.33301 -0.833008 10 -2.5s4.83398 -4.83398 6.50098 -9.50098s3.16699 -11 4.5 -19s2 -18 2 -30c0 -19.333 -1.33301 -34.666 -4 -45.999s-6.83398 -19.666 -12.501 -24.999
s-13.5 -10.333 -23.5 -15s-21.833 -8.5 -35.5 -11.5s-28.334 -5.5 -44.001 -7.5s-30.834 -3 -45.501 -3c-47.333 0 -87.666 6.16699 -120.999 18.5s-60.5 31 -81.5 56s-36.5 56.667 -46.5 95s-15 83.5 -15 135.5v526h-447zM1652 1365c0 10 4 17.501 12 22.501
s23.333 7.5 46 7.5c12.667 0 22.834 -0.5 30.501 -1.5s13.667 -2.66699 18 -5s7.33301 -5.33301 9 -9s2.5 -7.83398 2.5 -12.501c0 -45.333 -5.5 -84.833 -16.5 -118.5s-27.333 -61.834 -49 -84.501s-48.667 -39.667 -81 -51s-69.833 -17 -112.5 -17
c-45.333 0 -84.166 6 -116.499 18s-59 29.333 -80 52s-36.333 50.667 -46 84s-14.5 71.333 -14.5 114c0 10.667 4 18.5 12 23.5s23.333 7.5 46 7.5c12 0 21.833 -0.666992 29.5 -2s13.667 -3.16602 18 -5.49902s7.5 -5.33301 9.5 -9s3 -8.16699 3 -13.5
c2 -22.667 5.83301 -43.5 11.5 -62.5s14 -35.167 25 -48.5s25 -23.5 42 -30.5s37.167 -10.5 60.5 -10.5c20 0 38.333 2.83301 55 8.5s31.167 14.667 43.5 27s22.166 28 29.499 47s11.666 42.167 12.999 69.5zM1122 950.997z" />
    <glyph glyph-name="t_t_iogonek.liga" unicode="tt&#x12f;" horiz-adv-x="1753" 
d="M1669 -291c0 -10 -0.666016 -18.1748 -1.99902 -24.5078s-3.16602 -11.666 -5.49902 -15.999s-5.66602 -7.5 -9.99902 -9.5s-9.5 -4 -15.5 -6c-22 -6 -44.333 -10.5 -67 -13.5s-48 -4.5 -76 -4.5c-30 0 -57 3.33301 -81 10s-44.333 16.167 -61 28.5
s-29.5 27.833 -38.5 46.5s-13.5 40.334 -13.5 65.001c0 10.667 0.833008 21.834 2.5 33.501s5.33398 23.834 11.001 36.501s13.667 26.167 24 40.5s24.166 30.166 41.499 47.499l57 57v814h-465v-502c0 -62 9 -108.833 27 -140.5s50.667 -47.5 98 -47.5
c14.667 0 28.167 1.5 40.5 4.5s23.166 6.16699 32.499 9.5s17.5 6.5 24.5 9.5s12.833 4.5 17.5 4.5c4 0 7.33301 -0.833008 10 -2.5s4.83398 -4.83398 6.50098 -9.50098s3.16699 -11 4.5 -19s2 -18 2 -30c0 -19.333 -1.33301 -34.666 -4 -45.999
s-6.83398 -19.666 -12.501 -24.999s-13.5 -10.333 -23.5 -15s-21.833 -8.5 -35.5 -11.5s-28.334 -5.5 -44.001 -7.5s-30.834 -3 -45.501 -3c-47.333 0 -87.666 6.16699 -120.999 18.5s-60.5 31 -81.5 56s-36.5 56.667 -46.5 95s-15 83.5 -15 135.5v526h-447v-502
c0 -62 9.16699 -108.833 27.5 -140.5s51.166 -47.5 98.499 -47.5c15.333 0 29 1.5 41 4.5s22.667 6.16699 32 9.5s17.333 6.5 24 9.5s12.667 4.5 18 4.5c3.33301 0 6.5 -0.833008 9.5 -2.5s5.33301 -4.83398 7 -9.50098s3.16699 -11 4.5 -19s2 -18 2 -30
c0 -19.333 -1.33301 -34.666 -4 -45.999s-6.83398 -19.666 -12.501 -24.999s-13.667 -10.333 -24 -15s-22.333 -8.5 -36 -11.5s-28.167 -5.5 -43.5 -7.5s-30.666 -3 -45.999 -3c-46.667 0 -86.667 6.16699 -120 18.5s-60.666 31 -81.999 56s-36.833 56.667 -46.5 95
s-14.5 83.5 -14.5 135.5v526h-126c-10 0 -18 5.33301 -24 16s-9 28 -9 52c0 12.667 0.833008 23.334 2.5 32.001s3.83398 15.834 6.50098 21.501s6.16699 9.66699 10.5 12s9.16602 3.5 14.499 3.5h125v214c0 4.66699 1.16699 9 3.5 13s6.66602 7.5 12.999 10.5
s14.833 5.16699 25.5 6.5s24 2 40 2c16.667 0 30.334 -0.666992 41.001 -2s19 -3.5 25 -6.5s10.333 -6.5 13 -10.5s4 -8.33301 4 -13v-214h447v257c0 5.33301 1.33301 10 4 14s7.16699 7.16699 13.5 9.5s14.833 4.33301 25.5 6s24 2.5 40 2.5s29.333 -0.833008 40 -2.5
s19.167 -3.66699 25.5 -6s10.833 -5.5 13.5 -9.5s4 -8.66699 4 -14v-257h579c19.333 0 32.833 -4.5 40.5 -13.5s11.5 -22.167 11.5 -39.5v-873c0 -8 -2 -17.833 -6 -29.5s-9 -20.834 -15 -27.501l-73 -73c-20.667 -20 -33.834 -36.5 -39.501 -49.5s-8.5 -25.167 -8.5 -36.5
c0 -34.667 24.667 -52 74 -52h107c4.66699 0 9 -0.666992 13 -2s7 -3.66602 9 -6.99902s3.66699 -8.16602 5 -14.499s2 -14.5 2 -24.5zM1619 1227.99c0 -18.667 -1.5 -34.334 -4.5 -47.001s-8.5 -22.834 -16.5 -30.501s-18.5 -13.167 -31.5 -16.5s-29.5 -5 -49.5 -5
c-19.333 0 -35.5 1.66699 -48.5 5s-23.5 8.83301 -31.5 16.5s-13.5 17.834 -16.5 30.501s-4.5 28.334 -4.5 47.001s1.5 34.167 4.5 46.5s8.5 22.666 16.5 30.999s18.5 14 31.5 17s29.167 4.5 48.5 4.5c20 0 36.5 -1.5 49.5 -4.5s23.5 -8.66699 31.5 -17
s13.5 -18.666 16.5 -30.999s4.5 -27.833 4.5 -46.5z" />
    <glyph glyph-name="t_t_dotlessi.liga" unicode="tt&#x131;" horiz-adv-x="1753" 
d="M357 814l0.00390625 -502.004c0 -62 9.16699 -108.833 27.5 -140.5s51.166 -47.5 98.499 -47.5c15.333 0 29 1.5 41 4.5s22.667 6.16699 32 9.5s17.333 6.5 24 9.5s12.667 4.5 18 4.5c3.33301 0 6.5 -0.833008 9.5 -2.5s5.33301 -4.83398 7 -9.50098s3.16699 -11 4.5 -19
s2 -18 2 -30c0 -19.333 -1.33301 -34.666 -4 -45.999s-6.83398 -19.666 -12.501 -24.999s-13.667 -10.333 -24 -15s-22.333 -8.5 -36 -11.5s-28.167 -5.5 -43.5 -7.5s-30.666 -3 -45.999 -3c-46.667 0 -86.667 6.16699 -120 18.5s-60.666 31 -81.999 56
s-36.833 56.667 -46.5 95s-14.5 83.5 -14.5 135.5v526h-126c-10 0 -18 5.33301 -24 16s-9 28 -9 52c0 12.667 0.833008 23.334 2.5 32.001s3.83398 15.834 6.50098 21.501s6.16699 9.66699 10.5 12s9.16602 3.5 14.499 3.5h125v214c0 4.66699 1.16699 9 3.5 13
s6.66602 7.5 12.999 10.5s14.833 5.16699 25.5 6.5s24 2 40 2c16.667 0 30.334 -0.666992 41.001 -2s19 -3.5 25 -6.5s10.333 -6.5 13 -10.5s4 -8.33301 4 -13v-214h447v257c0 5.33301 1.33301 10 4 14s7.16699 7.16699 13.5 9.5s14.833 4.33301 25.5 6s24 2.5 40 2.5
s29.333 -0.833008 40 -2.5s19.167 -3.66699 25.5 -6s10.833 -5.5 13.5 -9.5s4 -8.66699 4 -14v-257h579c19.333 0 32.833 -4.5 40.5 -13.5s11.5 -22.167 11.5 -39.5v-873c0 -5.33301 -1.33301 -9.83301 -4 -13.5s-7.16699 -6.83398 -13.5 -9.50098
s-14.833 -4.66699 -25.5 -6s-24.334 -2 -41.001 -2c-15.333 0 -28.333 0.666992 -39 2s-19.334 3.33301 -26.001 6s-11.167 5.83398 -13.5 9.50098s-3.5 8.16699 -3.5 13.5v789h-465v-502c0 -62 9 -108.833 27 -140.5s50.667 -47.5 98 -47.5c14.667 0 28.167 1.5 40.5 4.5
s23.166 6.16699 32.499 9.5s17.5 6.5 24.5 9.5s12.833 4.5 17.5 4.5c4 0 7.33301 -0.833008 10 -2.5s4.83398 -4.83398 6.50098 -9.50098s3.16699 -11 4.5 -19s2 -18 2 -30c0 -19.333 -1.33301 -34.666 -4 -45.999s-6.83398 -19.666 -12.501 -24.999
s-13.5 -10.333 -23.5 -15s-21.833 -8.5 -35.5 -11.5s-28.334 -5.5 -44.001 -7.5s-30.834 -3 -45.501 -3c-47.333 0 -87.666 6.16699 -120.999 18.5s-60.5 31 -81.5 56s-36.5 56.667 -46.5 95s-15 83.5 -15 135.5v526h-447z" />
    <glyph glyph-name=".notdef" horiz-adv-x="1038" 
d="M978 1294v-1294h-934v1294h934zM891 81v1132h-762v-1132h762zM767 855c0 -39.333 -5.8291 -74.3301 -17.4961 -104.997s-28 -56.5 -49 -77.5s-45.833 -37.5 -74.5 -49.5s-60 -19 -94 -21l-5 -152c0 -6.66699 -5 -11.334 -15 -14.001s-23.667 -4 -41 -4
c-10 0 -18.333 0.333008 -25 1s-12.167 1.66699 -16.5 3s-7.5 3 -9.5 5s-3 5 -3 9l-5 184c-1.33301 20 2.66699 34 12 42s22 12 38 12h18c30 0 55 4.16699 75 12.5s36.167 19.5 48.5 33.5s21.166 30.833 26.499 50.5s8 40.5 8 62.5c0 48.667 -13.833 87.334 -41.5 116.001
s-71.834 43 -132.501 43c-24.667 0 -47 -2.5 -67 -7.5s-37.667 -10.667 -53 -17s-27.833 -12.166 -37.5 -17.499s-16.834 -8 -21.501 -8c-2 0 -4.16699 0.666992 -6.5 2s-4.5 3.83301 -6.5 7.5s-3.5 8.66699 -4.5 15s-1.5 14.833 -1.5 25.5
c0 11.333 0.833008 20.666 2.5 27.999s5.16699 13.666 10.5 18.999c4.66699 4.66699 13.667 10 27 16s29.166 11.833 47.499 17.5s38.5 10.5 60.5 14.5s44.333 6 67 6c50 0 93 -6.66699 129 -20s65.5 -31.333 88.5 -54s40.167 -49.334 51.5 -80.001s17 -63.334 17 -98.001z
M549.004 273.003c0 -14 -1.16699 -25.667 -3.5 -35s-6.33301 -17 -12 -23s-13.334 -10.333 -23.001 -13s-21.5 -4 -35.5 -4c-14.667 0 -26.834 1.33301 -36.501 4s-17.5 7 -23.5 13s-10.333 13.667 -13 23s-4 21 -4 35s1.33301 25.833 4 35.5s7 17.5 13 23.5
s13.833 10.333 23.5 13s21.834 4 36.501 4c14 0 25.833 -1.33301 35.5 -4s17.334 -7 23.001 -13s9.66699 -13.833 12 -23.5s3.5 -21.5 3.5 -35.5zM0.00390625 -396.997z" />
    <glyph glyph-name="space" unicode=" " horiz-adv-x="463" 
 />
    <glyph glyph-name="space" unicode="&#xa0;" horiz-adv-x="463" 
 />
    <glyph glyph-name="exclam" unicode="!" horiz-adv-x="667" 
d="M445 373c0 -5.33301 -1.16797 -10 -3.50098 -14s-6.5 -7.33301 -12.5 -10s-13.667 -4.66699 -23 -6s-21 -2 -35 -2s-25.667 0.666992 -35 2s-17 3.33301 -23 6s-10.167 6 -12.5 10s-3.5 8.66699 -3.5 14l-17 954c-0.666992 8 0.333008 15 3 21s7.5 11 14.5 15
s16.333 6.83301 28 8.5s26.834 2.5 45.501 2.5c18 0 32.833 -1 44.5 -3s21 -5 28 -9s11.833 -8.83301 14.5 -14.5s4 -12.5 4 -20.5zM475.999 104c0 -22 -1.5 -40.167 -4.5 -54.5s-8.66699 -26 -17 -35s-19.166 -15.333 -32.499 -19s-30.333 -5.5 -51 -5.5
s-37.834 1.83301 -51.501 5.5s-24.5 10 -32.5 19s-13.5 20.667 -16.5 35s-4.5 32.5 -4.5 54.5s1.5 40.5 4.5 55.5s8.5 26.667 16.5 35s18.833 14.333 32.5 18s30.834 5.5 51.501 5.5s37.667 -1.83301 51 -5.5s24.166 -9.66699 32.499 -18s14 -20 17 -35s4.5 -33.5 4.5 -55.5
z" />
    <glyph glyph-name="quotedbl" unicode="&#x22;" horiz-adv-x="821" 
d="M643 902c0 -5.33301 -1 -10 -3 -14s-5.66699 -7.33301 -11 -10s-11.833 -4.66699 -19.5 -6s-17.5 -2 -29.5 -2s-22 0.666992 -30 2s-14.5 3.33301 -19.5 6s-8.5 6 -10.5 10s-3 8.66699 -3 14l-23 463c0 5.33301 1.66699 10 5 14s8.33301 7.33301 15 10
s15.5 4.66699 26.5 6s24.167 2 39.5 2c16 0 29.5 -0.666992 40.5 -2s19.833 -3.33301 26.5 -6s11.5 -6 14.5 -10s4.16699 -8.66699 3.5 -14zM288 902c0 -5.33301 -1 -10 -3 -14s-5.66699 -7.33301 -11 -10s-11.833 -4.66699 -19.5 -6s-17.5 -2 -29.5 -2s-22 0.666992 -30 2
s-14.5 3.33301 -19.5 6s-8.5 6 -10.5 10s-3 8.66699 -3 14l-23 463c0 5.33301 1.66699 10 5 14s8.33301 7.33301 15 10s15.5 4.66699 26.5 6s24.167 2 39.5 2c32 0 54.333 -2.66699 67 -8s19 -13.333 19 -24z" />
    <glyph glyph-name="numbersign" unicode="#" horiz-adv-x="1020" 
d="M983 886c0 -11.333 -0.838867 -21.0029 -2.50586 -29.0029s-4 -14.5 -7 -19.5s-6.66699 -8.66699 -11 -11s-8.83301 -3.5 -13.5 -3.5h-131l-40 -332h116c10 0 18.167 -5 24.5 -15s9.5 -26.333 9.5 -49c0 -11.333 -1 -21 -3 -29s-4.33301 -14.5 -7 -19.5
s-6.16699 -8.66699 -10.5 -11s-8.83301 -3.5 -13.5 -3.5h-133l-42 -342c-0.666992 -4.66699 -2 -8.83398 -4 -12.501s-5.66699 -6.66699 -11 -9s-12.666 -4 -21.999 -5s-21.666 -1.5 -36.999 -1.5s-28 0.5 -38 1.5s-17.667 2.66699 -23 5s-9 5.33301 -11 9
s-2.66699 7.83398 -2 12.501l42 342h-278l-42 -342c-1.33301 -4.66699 -2.83301 -8.83398 -4.5 -12.501s-5 -6.66699 -10 -9s-12.167 -4 -21.5 -5s-21.666 -1.5 -36.999 -1.5c-16 0 -29 0.5 -39 1.5s-17.667 2.66699 -23 5s-9 5.33301 -11 9s-2.66699 7.83398 -2 12.501
l41 342h-116c-10 0 -18.167 4.83301 -24.5 14.5s-9.5 25.834 -9.5 48.501c0 11.333 1 21 3 29s4.33301 14.5 7 19.5s6 8.83301 10 11.5s8.66699 4 14 4h134l41 332h-121c-10 0 -18.167 5 -24.5 15s-9.5 25.667 -9.5 47c0 23.333 3.16699 40 9.5 50s14.5 15 24.5 15h136
l41 321c0.666992 4.66699 2.16699 8.83398 4.5 12.501s6.33301 6.66699 12 9s13.5 4.16602 23.5 5.49902s22.667 2 38 2c16 0 28.667 -0.666992 38 -2s16.5 -3.16602 21.5 -5.49902s8.16699 -5.33301 9.5 -9s2 -7.5 2 -11.5l-42 -322h278l39 321
c0.666992 4.66699 2.33398 8.83398 5.00098 12.501s6.66699 6.66699 12 9s13 4.16602 23 5.49902s23 2 39 2c15.333 0 27.833 -0.666992 37.5 -2s16.834 -3.16602 21.501 -5.49902s7.83398 -5.33301 9.50098 -9s2.16699 -7.5 1.5 -11.5l-40 -322h115
c10 0 18.167 -5.16699 24.5 -15.5s9.5 -26.5 9.5 -48.5zM391.994 822.997l-40 -332h277l42 332h-279z" />
    <glyph glyph-name="dollar" unicode="$" horiz-adv-x="1038" 
d="M932 366c0 -53.333 -10.167 -101.831 -30.5 -145.498s-49.166 -81.167 -86.499 -112.5s-83 -56.333 -137 -75s-114.333 -29.667 -181 -33l-22 -217c-0.666992 -4 -1.83398 -7.83301 -3.50098 -11.5s-4.83398 -6.66699 -9.50098 -9s-11.167 -4.16602 -19.5 -5.49902
s-19.166 -2 -32.499 -2c-15.333 0 -27.5 0.833008 -36.5 2.5s-16.167 3.66699 -21.5 6s-8.83301 5.66602 -10.5 9.99902s-1.83398 9.16602 -0.500977 14.499l23 216c-32 4 -61.667 9.16699 -89 15.5s-51.666 13.166 -72.999 20.499s-39.5 15 -54.5 23s-26 15.5 -33 22.5
s-11.833 16.167 -14.5 27.5s-4 27 -4 47c0 14.667 0.666992 26.834 2 36.501s3.33301 17.667 6 24s6.16699 10.666 10.5 12.999s9.5 3.5 15.5 3.5c8.66699 0 21 -4.83301 37 -14.5s37.167 -20.334 63.5 -32.001s58.5 -22.5 96.5 -32.5s83.667 -15 137 -15
c94.667 0 166.5 18.667 215.5 56s73.5 88 73.5 152c0 39.333 -9 72.166 -27 98.499s-41.833 49 -71.5 68s-63.334 35.333 -101.001 49l-115 41.5c-39 14 -77.333 30 -115 48s-71.167 40.333 -100.5 67s-53 59.167 -71 97.5s-27 85.5 -27 141.5
c0 44.667 7.66699 86.334 23 125.001s38.333 72.5 69 101.5s69.334 52.667 116.001 71s101 29.5 163 33.5l20 202c0.666992 4 1.83398 7.83301 3.50098 11.5s4.83398 6.83398 9.50098 9.50098s11 4.5 19 5.5s19 1.5 33 1.5c14.667 0 26.834 -0.666992 36.501 -2
s17 -3.5 22 -6.5s8.16699 -6.5 9.5 -10.5s2 -8.66699 2 -14l-22 -200c20 -2 40.833 -5.5 62.5 -10.5s42 -10.667 61 -17s36.167 -13.333 51.5 -21s25.833 -14.167 31.5 -19.5s9.66699 -10.333 12 -15s4.16602 -10 5.49902 -16s2.5 -13 3.5 -21s1.5 -17 1.5 -27
c0 -12.667 -0.5 -23.667 -1.5 -33s-2.5 -16.666 -4.5 -21.999s-4.66699 -9.33301 -8 -12s-7.33301 -4 -12 -4c-7.33301 0 -19 4.33301 -35 13s-36.167 18 -60.5 28s-52.5 19.333 -84.5 28s-67.667 13 -107 13c-44.667 0 -82.834 -4.33301 -114.501 -13
s-57.334 -20.834 -77.001 -36.501s-34 -34.5 -43 -56.5s-13.5 -46 -13.5 -72c0 -40 9.16699 -73.333 27.5 -100s42.333 -49.334 72 -68.001s63.5 -34.667 101.5 -48l116.5 -41.5c39.667 -14.333 78.5 -30.166 116.5 -47.499s71.833 -39.333 101.5 -66
s53.667 -59.167 72 -97.5s27.5 -85.5 27.5 -141.5z" />
    <glyph glyph-name="percent" unicode="%" horiz-adv-x="1464" 
d="M629 974c0 -51.333 -5.66992 -97.999 -17.0029 -139.999s-28.666 -77.833 -51.999 -107.5s-52.833 -52.834 -88.5 -69.501s-77.5 -25 -125.5 -25c-48.667 0 -90.334 7.66699 -125.001 23s-63 37.5 -85 66.5s-38.167 64.333 -48.5 106s-15.5 89.167 -15.5 142.5
c0 48.667 5.5 93.667 16.5 135s27.833 77 50.5 107s51.834 53.667 87.501 71s77.834 26 126.501 26c52.667 0 96.834 -9 132.501 -27s64.167 -42.167 85.5 -72.5s36.333 -65.833 45 -106.5s13 -83.667 13 -129zM488.997 969.001c0 37.333 -2.66895 70.499 -8.00195 99.499
s-13.5 53.167 -24.5 72.5s-25.5 33.833 -43.5 43.5s-39.333 14.5 -64 14.5c-23.333 0 -43.666 -4.66699 -60.999 -14s-31.5 -23.333 -42.5 -42s-19.167 -41.834 -24.5 -69.501s-8 -60.167 -8 -97.5c0 -45.333 3.16699 -83.166 9.5 -113.499s15.333 -54.333 27 -72
s26.334 -30 44.001 -37s37.834 -10.5 60.501 -10.5c26.667 0 48.5 5 65.5 15s30.667 24.833 41 44.5s17.666 43.334 21.999 71.001s6.5 59.5 6.5 95.5zM1392 327c0 -51.333 -5.66992 -97.999 -17.0029 -139.999s-28.666 -77.833 -51.999 -107.5
s-52.833 -52.834 -88.5 -69.501s-77.5 -25 -125.5 -25c-48.667 0 -90.334 7.66699 -125.001 23s-63 37.5 -85 66.5s-38.167 64.333 -48.5 106s-15.5 89.167 -15.5 142.5c0 48.667 5.5 93.667 16.5 135s27.833 77 50.5 107s51.834 53.667 87.501 71s77.834 26 126.501 26
c52.667 0 96.834 -9 132.501 -27s64.167 -42.167 85.5 -72.5s36.333 -65.833 45 -106.5s13 -83.667 13 -129zM1251.99 322.001c0 37.333 -2.66895 70.499 -8.00195 99.499s-13.5 53.167 -24.5 72.5s-25.5 33.833 -43.5 43.5s-39.333 14.5 -64 14.5
c-23.333 0 -43.666 -4.66699 -60.999 -14s-31.5 -23.333 -42.5 -42s-19.167 -41.834 -24.5 -69.501s-8 -60.167 -8 -97.5c0 -45.333 3.16699 -83.166 9.5 -113.499s15.333 -54.333 27 -72s26.334 -30 44.001 -37s37.834 -10.5 60.501 -10.5c26.667 0 48.5 5 65.5 15
s30.667 24.833 41 44.5s17.666 43.334 21.999 71.001s6.5 59.5 6.5 95.5zM345.99 -8c-3.33301 -6 -7.33301 -10.498 -12 -13.498s-10.334 -5.66699 -17.001 -8s-14.667 -4 -24 -5s-20.666 -1.5 -33.999 -1.5c-14.667 0 -26.5 1.33301 -35.5 4s-15.333 6.16699 -19 10.5
s-5 9.66602 -4 15.999s4.16699 13.5 9.5 21.5l900 1289c3.33301 5.33301 7.33301 9.83301 12 13.5s10.5 6.5 17.5 8.5s15 3.5 24 4.5s20.5 1.5 34.5 1.5s25.5 -1.16699 34.5 -3.5s15.5 -5.83301 19.5 -10.5s5.5 -10.334 4.5 -17.001s-4.16699 -13.667 -9.5 -21z" />
    <glyph glyph-name="ampersand" unicode="&#x26;" horiz-adv-x="1397" 
d="M108 341c0 36.667 5.00391 71.498 15.0039 104.498s25.667 65 47 96s49.166 61 83.499 90s75.833 58.167 124.5 87.5c-26.667 36 -49.5 68.667 -68.5 98s-34.667 56.666 -47 81.999s-21.166 49.5 -26.499 72.5s-8 46.167 -8 69.5c0 41.333 7 80.833 21 118.5
s36.5 71 67.5 100s70.833 52 119.5 69s107.667 25.5 177 25.5c58.667 0 109.5 -6.33301 152.5 -19s78.667 -30.667 107 -54s49.666 -51.5 63.999 -84.5s21.5 -69.833 21.5 -110.5c0 -39.333 -6.33301 -75.333 -19 -108s-33 -64.334 -61 -95.001
s-63.833 -61.167 -107.5 -91.5s-96.5 -62.166 -158.5 -95.499l74 -85.5l83.5 -89.5l89 -88.5l89.5 -83.5c13.333 18 25.333 38.5 36 61.5s20 47.333 28 73s14 51.834 18 78.501s6 53.667 6 81v36c0 6.66699 1.16699 12.167 3.5 16.5s6.16602 8 11.499 11
s13.166 5.16699 23.499 6.5s23.833 2 40.5 2c14.667 0 27.167 -0.333008 37.5 -1s18.833 -2.16699 25.5 -4.5s11.5 -6 14.5 -11s4.5 -11.833 4.5 -20.5v-25c0 -37.333 -3.16699 -74 -9.5 -110s-15 -71.167 -26 -105.5s-24.667 -67.166 -41 -98.499s-34.5 -60.333 -54.5 -87
c30 -24 56.167 -44 78.5 -60s41.333 -29 57 -39s28.667 -17 39 -21s18.833 -6 25.5 -6s13 0.333008 19 1s10.833 -0.333008 14.5 -3s6.5 -8 8.5 -16s3 -20.333 3 -37s-0.333008 -30 -1 -40s-1.83398 -17.5 -3.50098 -22.5s-4.5 -9.16699 -8.5 -12.5s-11.333 -6.33301 -22 -9
s-24.667 -4 -42 -4c-13.333 0 -28 2.33301 -44 7s-34.667 12.834 -56 24.501s-46.166 27.5 -74.499 47.5s-61.5 45.333 -99.5 76c-28 -22.667 -57.5 -43.667 -88.5 -63s-64 -35.833 -99 -49.5s-71.667 -24.334 -110 -32.001s-79.833 -11.5 -124.5 -11.5
c-42 0 -81.833 3.66699 -119.5 11s-72.5 17.833 -104.5 31.5s-60.667 30.834 -86 51.501s-46.833 44.167 -64.5 70.5s-31.334 55.833 -41.001 88.5s-14.5 68 -14.5 106zM403.004 1054c0 -18 2.49805 -36.334 7.49805 -55.001s12.667 -38.167 23 -58.5s23 -42.166 38 -65.499
s32.833 -49.333 53.5 -78c48.667 27.333 89.5 52.5 122.5 75.5s59.5 45.167 79.5 66.5s34.5 42.666 43.5 63.999s13.5 44 13.5 68c0 19.333 -3.5 37.833 -10.5 55.5s-18.167 33.334 -33.5 47.001s-34.666 24.5 -57.999 32.5s-51.333 12 -84 12
c-35.333 0 -65.166 -4.5 -89.499 -13.5s-44.333 -21 -60 -36s-27.167 -32.5 -34.5 -52.5s-11 -40.667 -11 -62zM287.002 357.997c0 -34.667 5.83203 -66.3359 17.499 -95.0029s28.834 -53.5 51.501 -74.5s51 -37.333 85 -49s73.333 -17.5 118 -17.5
c27.333 0 54 2.83301 80 8.5s50.833 13.334 74.5 23.001s46.167 21.334 67.5 35.001s41 28.167 59 43.5l-103.5 93.5l-99.5 97.5l-92.5 97.5c-29.667 32.333 -56.834 63.833 -81.501 94.5c-33.333 -21.333 -61.166 -42.5 -83.499 -63.5s-40.333 -42 -54 -63
s-23.5 -42.167 -29.5 -63.5s-9 -43.666 -9 -66.999zM0.000976562 1294z" />
    <glyph glyph-name="quotesingle" unicode="'" horiz-adv-x="452" 
d="M290 902c0 -5.33301 -1.16699 -10 -3.5 -14s-6 -7.33301 -11 -10s-11.5 -4.66699 -19.5 -6s-18 -2 -30 -2s-22.167 0.666992 -30.5 2s-14.833 3.33301 -19.5 6s-8.16699 6 -10.5 10s-3.5 8.66699 -3.5 14l-23 463c0 5.33301 1.66699 10 5 14s8.5 7.33301 15.5 10
s16 4.66699 27 6s24.167 2 39.5 2c16 0 29.5 -0.5 40.5 -1.5s20 -3 27 -6s12 -6.5 15 -10.5s4.16699 -8.66699 3.5 -14z" />
    <glyph glyph-name="parenleft" unicode="(" horiz-adv-x="621" 
d="M495 1378c-63.333 -134 -110.494 -271.497 -141.494 -412.497s-46.5 -282.833 -46.5 -425.5c0 -143.333 15.833 -285.333 47.5 -426s77.834 -278.667 138.501 -414c3.33301 -8 5.16602 -14.833 5.49902 -20.5s-1.83398 -10.334 -6.50098 -14.001
s-11.834 -6.33398 -21.501 -8.00098s-22.834 -2.5 -39.501 -2.5c-12 0 -22.333 0.333008 -31 1s-16.167 2 -22.5 4s-11.5 4.33301 -15.5 7s-7 5.66699 -9 9c-36 68 -67.667 136.833 -95 206.5s-50.333 140.5 -69 212.5s-32.667 144.833 -42 218.5s-14 148.167 -14 223.5
s5.16699 149.666 15.5 222.999s25 146.166 44 218.499s42.167 143.5 69.5 213.5s58 139.333 92 208c0.666992 2.66699 2.5 5 5.5 7s7.16699 4 12.5 6s12.666 3.5 21.999 4.5s21.333 1.5 36 1.5c15.333 0 27.666 -1 36.999 -3s16.666 -4.66699 21.999 -8
s8.33301 -7.66602 9 -12.999s-0.333008 -11 -3 -17z" />
    <glyph glyph-name="parenright" unicode=")" horiz-adv-x="621" 
d="M487 537c0 -75.333 -4.66406 -149.834 -13.9971 -223.501s-23.333 -146.5 -42 -218.5s-41.5 -142.833 -68.5 -212.5s-58.5 -138.5 -94.5 -206.5c-2 -3.33301 -5 -6.33301 -9 -9s-9.16699 -5 -15.5 -7s-13.833 -3.33301 -22.5 -4s-19 -1 -31 -1
c-17.333 0 -30.833 0.833008 -40.5 2.5s-16.667 4.33398 -21 8.00098s-6.33301 8.33398 -6 14.001s2.16602 12.5 5.49902 20.5c61.333 134.667 107.666 272.5 138.999 413.5s47 283.167 47 426.5c0 142.667 -15.667 284.5 -47 425.5s-78.333 278.5 -141 412.5
c-2.66699 6 -3.66699 11.667 -3 17s3.66699 9.66602 9 12.999s12.666 6 21.999 8s21.666 3 36.999 3c14 0 25.667 -0.5 35 -1.5s16.833 -2.5 22.5 -4.5s9.83398 -4 12.501 -6s4.66699 -4.33301 6 -7c68.667 -136.667 122.5 -277.167 161.5 -421.5s58.5 -291.5 58.5 -441.5z
" />
    <glyph glyph-name="asterisk" unicode="*" horiz-adv-x="1020" 
d="M841 935c9.33301 -4 13.666 -11.833 12.999 -23.5s-8.66699 -30.5 -24 -56.5c-15.333 -26.667 -27.833 -43 -37.5 -49s-18.5 -6 -26.5 0l-213 155l28 -262c2 -10 -2.33301 -17.667 -13 -23s-31.334 -8 -62.001 -8s-51.334 2.66699 -62.001 8s-15 13 -13 23l28 262
l-212 -155c-8 -6 -17 -6 -27 0s-22.667 22.333 -38 49c-15.333 26 -23.166 44.833 -23.499 56.5s4.16699 19.5 13.5 23.5l241 107l-241 106c-9.33301 4.66699 -13.833 12.834 -13.5 24.501s8.16602 30.5 23.499 56.5s28 42 38 48s19 6 27 0l212 -154l-28 261
c-2 10.667 2.33301 18.667 13 24s31.334 8 62.001 8s51.334 -2.66699 62.001 -8s15 -13.333 13 -24l-28 -261l213 154c8 6 16.833 6 26.5 0s22.167 -22.333 37.5 -49c15.333 -25.333 23.333 -43.833 24 -55.5s-3.66602 -19.834 -12.999 -24.501l-241 -106z" />
    <glyph glyph-name="plus" unicode="+" horiz-adv-x="1020" 
d="M950 576c0 -12.667 -0.999023 -23.5 -2.99902 -32.5s-4.66699 -16.5 -8 -22.5s-7.33301 -10.333 -12 -13s-9.66699 -4 -15 -4h-328v-364c0 -5.33301 -1.33301 -9.83301 -4 -13.5s-6.83398 -6.83398 -12.501 -9.50098s-13.167 -4.83398 -22.5 -6.50098s-21 -2.5 -35 -2.5
c-13.333 0 -24.833 0.833008 -34.5 2.5s-17.334 3.83398 -23.001 6.50098s-9.83398 5.83398 -12.501 9.50098s-4 8.16699 -4 13.5v364h-328c-6 0 -11.167 1.33301 -15.5 4s-8.16602 7 -11.499 13s-6 13.5 -8 22.5s-3 19.833 -3 32.5c0 12 1 22.5 3 31.5s4.66699 16.5 8 22.5
s7.16602 10.333 11.499 13s9.16602 4 14.499 4h329v364c0 5.33301 1.33301 10.166 4 14.499s6.83398 8 12.501 11s13.334 5.33301 23.001 7s21.167 2.5 34.5 2.5c14 0 25.667 -0.833008 35 -2.5s16.833 -4 22.5 -7s9.83398 -6.66699 12.501 -11s4 -9.16602 4 -14.499v-364
h329c5.33301 0 10.166 -1.33301 14.499 -4s8.33301 -7 12 -13s6.33398 -13.5 8.00098 -22.5s2.5 -19.5 2.5 -31.5z" />
    <glyph glyph-name="comma" unicode="," horiz-adv-x="511" 
d="M371 143c0 -20.667 -1.00488 -39.668 -3.00488 -57.001s-5.33301 -33.666 -10 -48.999s-10.834 -30.5 -18.501 -45.5s-17.167 -30.833 -28.5 -47.5l-137 -206c-3.33301 -4.66699 -7.16602 -8.66699 -11.499 -12s-9.66602 -6.33301 -15.999 -9s-13.666 -4.5 -21.999 -5.5
s-18.833 -1.5 -31.5 -1.5c-11.333 0 -20.833 0.5 -28.5 1.5s-13.167 2.66699 -16.5 5s-5.16602 5.5 -5.49902 9.5s0.833984 8.66699 3.50098 14l133 275v128c0 18 1.83301 32.333 5.5 43s9.5 18.667 17.5 24s18 9 30 11s26.667 3 44 3c16.667 0 31 -1 43 -3
s21.833 -5.66699 29.5 -11s13.334 -13.333 17.001 -24s5.5 -25 5.5 -43z" />
    <glyph glyph-name="hyphen" unicode="-" horiz-adv-x="627" 
d="M558 505c0 -26 -2.99902 -43.9971 -8.99902 -53.9971s-14.667 -15 -26 -15h-418c-12 0 -21 5.16699 -27 15.5s-9 28.166 -9 53.499s3 43 9 53s15 15 27 15h418c5.33301 0 10.166 -1 14.499 -3s8 -5.83301 11 -11.5s5.33301 -12.834 7 -21.501s2.5 -19.334 2.5 -32.001z
" />
    <glyph glyph-name="hyphen" unicode="&#x2010;" horiz-adv-x="627" 
d="M558 505c0 -26 -2.99902 -43.9971 -8.99902 -53.9971s-14.667 -15 -26 -15h-418c-12 0 -21 5.16699 -27 15.5s-9 28.166 -9 53.499s3 43 9 53s15 15 27 15h418c5.33301 0 10.166 -1 14.499 -3s8 -5.83301 11 -11.5s5.33301 -12.834 7 -21.501s2.5 -19.334 2.5 -32.001z
" />
    <glyph glyph-name="hyphen" unicode="&#xad;" horiz-adv-x="627" 
d="M558 505c0 -26 -2.99902 -43.9971 -8.99902 -53.9971s-14.667 -15 -26 -15h-418c-12 0 -21 5.16699 -27 15.5s-9 28.166 -9 53.499s3 43 9 53s15 15 27 15h418c5.33301 0 10.166 -1 14.499 -3s8 -5.83301 11 -11.5s5.33301 -12.834 7 -21.501s2.5 -19.334 2.5 -32.001z
" />
    <glyph glyph-name="period" unicode="." horiz-adv-x="517" 
d="M366 109c0 -47.333 -7.83301 -78.833 -23.5 -94.5s-44.167 -23.5 -85.5 -23.5c-40 0 -67.667 7.66699 -83 23s-23 46 -23 92c0 47.333 7.83301 78.833 23.5 94.5s44.167 23.5 85.5 23.5c40 0 67.667 -7.66699 83 -23s23 -46 23 -92z" />
    <glyph glyph-name="slash" unicode="/" horiz-adv-x="791" 
d="M168 -241c-2.66699 -8.66699 -6.16602 -15.4971 -10.499 -20.4971s-9.83301 -8.83301 -16.5 -11.5s-14.834 -4.66699 -24.501 -6s-21.5 -2 -35.5 -2c-16.667 0 -30.5 1.16699 -41.5 3.5s-19.5 5.66602 -25.5 9.99902s-9.66699 9.66602 -11 15.999s0 13.833 4 22.5
l605 1659c2.66699 8.66699 6.16699 15.5 10.5 20.5s9.66602 9 15.999 12s14.5 5 24.5 6s22 1.5 36 1.5c16.667 0 30.334 -1.16699 41.001 -3.5s19 -5.5 25 -9.5s9.66699 -9.33301 11 -16s0.333008 -14.334 -3 -23.001z" />
    <glyph glyph-name="zero" unicode="0" horiz-adv-x="1038" 
d="M967 650c0 -99.333 -7.83301 -190 -23.5 -272s-41.667 -152.5 -78 -211.5s-83.833 -104.667 -142.5 -137s-131 -48.5 -217 -48.5c-81.333 0 -149.833 14.5 -205.5 43.5s-100.5 71.667 -134.5 128s-58.167 125.666 -72.5 207.999s-21.5 176.833 -21.5 283.5
c0 98.667 8 189.167 24 271.5s42 153 78 212s83.333 104.667 142 137s130.667 48.5 216 48.5c82 0 150.833 -14.5 206.5 -43.5s100.5 -71.667 134.5 -128s58.167 -125.666 72.5 -207.999s21.5 -176.833 21.5 -283.5zM791 638c0 64.667 -2.33301 122.676 -7 174.009
s-11.5 96.666 -20.5 135.999s-20.667 73.166 -35 101.499s-31.5 51.666 -51.5 69.999s-42.833 31.666 -68.5 39.999s-54.5 12.5 -86.5 12.5c-56.667 0 -102.667 -13.333 -138 -40s-63.166 -63.334 -83.499 -110.001s-34.166 -101.334 -41.499 -164.001s-11 -130 -11 -202
c0 -96.667 5 -178.834 15 -246.501s25.833 -122.834 47.5 -165.501s49.334 -73.667 83.001 -93s74.5 -29 122.5 -29c37.333 0 70.166 6 98.499 18s52.666 29.167 72.999 51.5s37.166 49.166 50.499 80.499s24 66 32 104s13.5 79.167 16.5 123.5s4.5 90.5 4.5 138.5z" />
    <glyph glyph-name="one" unicode="1" horiz-adv-x="1038" 
d="M927 68c0 -12.667 -0.99707 -23.333 -2.99707 -32s-4.66699 -15.667 -8 -21s-7.16602 -9.16602 -11.499 -11.499s-8.83301 -3.5 -13.5 -3.5h-676c-4.66699 0 -9 1.16699 -13 3.5s-7.83301 6.16602 -11.5 11.499s-6.5 12.333 -8.5 21s-3 19.334 -3 32.001
c0 12 1 22.333 3 31s4.5 15.834 7.5 21.501s6.66699 10 11 13s9.16602 4.5 14.499 4.5h270v984l-250 -149c-12.667 -6.66699 -22.834 -10.667 -30.501 -12s-13.834 0.166992 -18.501 4.5s-7.83398 11.5 -9.50098 21.5s-2.5 22.667 -2.5 38c0 11.333 0.5 21 1.5 29
s2.5 14.667 4.5 20s4.83301 10 8.5 14s8.5 8 14.5 12l298 191c2.66699 2 6 3.66699 10 5s9 2.66602 15 3.99902s13 2.16602 21 2.49902s18 0.5 30 0.5c16 0 29.333 -0.666992 40 -2s19 -3.16602 25 -5.49902s10 -5.33301 12 -9s3 -7.5 3 -11.5v-1137h234
c5.33301 0 10.333 -1.5 15 -4.5s8.5 -7.33301 11.5 -13s5.33301 -12.834 7 -21.501s2.5 -19 2.5 -31z" />
    <glyph glyph-name="two" unicode="2" horiz-adv-x="1038" 
d="M924 74c0 -12 -0.836914 -22.6689 -2.50391 -32.002s-4 -17.166 -7 -23.499s-7 -11 -12 -14s-10.5 -4.5 -16.5 -4.5h-715c-9.33301 0 -17.5 1.16699 -24.5 3.5s-13 6.16602 -18 11.499s-8.66699 13 -11 23s-3.5 22.333 -3.5 37c0 13.333 0.5 25 1.5 35
s3.16699 18.833 6.5 26.5s7.5 15.334 12.5 23.001s11.5 15.834 19.5 24.501l251 266c58 61.333 104.5 116.333 139.5 165s62 93 81 133s31.5 76.333 37.5 109s9 63.334 9 92.001s-4.66699 55.834 -14 81.501s-22.833 48.167 -40.5 67.5s-39.834 34.666 -66.501 45.999
s-57.334 17 -92.001 17c-40.667 0 -77.167 -5.66699 -109.5 -17s-60.666 -23.666 -84.999 -36.999s-44.666 -25.666 -60.999 -36.999s-28.5 -17 -36.5 -17c-4.66699 0 -8.83398 1.33301 -12.501 4s-6.66699 7 -9 13s-4.16602 14 -5.49902 24s-2 22 -2 36
c0 10 0.333008 18.667 1 26s1.83398 13.666 3.50098 18.999s3.83398 10.333 6.50098 15s8 10.5 16 17.5s21.833 16.5 41.5 28.5s44.334 23.833 74.001 35.5s62.334 21.5 98.001 29.5s73.167 12 112.5 12c62.667 0 117.5 -8.83301 164.5 -26.5s86 -41.834 117 -72.501
s54.167 -66.334 69.5 -107.001s23 -84 23 -130c0 -41.333 -3.66699 -82.5 -11 -123.5s-22.833 -85.333 -46.5 -133s-57.834 -100.667 -102.501 -159s-104 -125.5 -178 -201.5l-205 -214h563c5.33301 0 10.5 -1.5 15.5 -4.5s9.33301 -7.5 13 -13.5
s6.33398 -13.5 8.00098 -22.5s2.5 -19.5 2.5 -31.5z" />
    <glyph glyph-name="three" unicode="3" horiz-adv-x="1038" 
d="M914 370c0 -59.333 -10.3311 -112.83 -30.998 -160.497s-50.334 -88.5 -89.001 -122.5s-86.334 -60.167 -143.001 -78.5s-120.667 -27.5 -192 -27.5c-43.333 0 -83.833 3.5 -121.5 10.5s-71.167 15.333 -100.5 25s-53.666 19.667 -72.999 30s-31.5 17.833 -36.5 22.5
s-8.83301 9.33398 -11.5 14.001s-5 10.334 -7 17.001s-3.5 14.834 -4.5 24.501s-1.5 21.5 -1.5 35.5c0 24 2.33301 40.667 7 50s11.334 14 20.001 14c6 0 17.833 -5.33301 35.5 -16s40.334 -22.167 68.001 -34.5s60 -23.833 97 -34.5s78.167 -16 123.5 -16
c44 0 82.667 5.66699 116 17s61.333 27.333 84 48s39.667 45.167 51 73.5s17 59.166 17 92.499c0 36.667 -7.16699 69.667 -21.5 99s-35.333 54.666 -63 75.999s-61.667 37.666 -102 48.999s-86.166 17 -137.499 17h-123c-5.33301 0 -10.5 1.16699 -15.5 3.5
s-9.33301 6.16602 -13 11.499s-6.66699 12.333 -9 21s-3.5 20 -3.5 34c0 12.667 1 23.167 3 31.5s4.83301 15 8.5 20s7.83398 8.66699 12.501 11s10 3.5 16 3.5h113c44 0 83.5 5.66699 118.5 17s64.667 27.666 89 48.999s43 46.833 56 76.5s19.5 62.834 19.5 99.501
c0 26.667 -4.33301 52.167 -13 76.5s-21.667 45.5 -39 63.5s-39.5 32.167 -66.5 42.5s-58.167 15.5 -93.5 15.5c-38.667 0 -74.167 -5.83301 -106.5 -17.5s-61.166 -24.167 -86.499 -37.5s-46.333 -25.833 -63 -37.5s-28.334 -17.5 -35.001 -17.5
c-4.66699 0 -8.83398 0.833008 -12.501 2.5s-6.66699 5 -9 10s-4 12 -5 21s-1.5 20.833 -1.5 35.5c0 10 0.333008 18.833 1 26.5s2 14.334 4 20.001s4.33301 10.834 7 15.501s7.16699 10.167 13.5 16.5s19.166 15.5 38.499 27.5s43.166 23.833 71.499 35.5s61 21.5 98 29.5
s76.833 12 119.5 12c60 0 112.667 -7.66699 158 -23s83.166 -37 113.499 -65s53 -61.5 68 -100.5s22.5 -82.167 22.5 -129.5c0 -40.667 -5.33301 -78.5 -16 -113.5s-26.334 -66 -47.001 -93s-46 -50 -76 -69s-64.667 -32.167 -104 -39.5v-2
c44.667 -4.66699 85.5 -15.834 122.5 -33.501s68.833 -39.834 95.5 -66.501s47.5 -57.834 62.5 -93.501s22.5 -73.834 22.5 -114.501z" />
    <glyph glyph-name="four" unicode="4" horiz-adv-x="1038" 
d="M979 368c0 -22 -3.33105 -39.333 -9.99805 -52s-16 -19 -28 -19h-146v-272c0 -5.33301 -1.33301 -9.83301 -4 -13.5s-7.33398 -6.83398 -14.001 -9.50098s-15.334 -4.66699 -26.001 -6s-24.334 -2 -41.001 -2c-16 0 -29.333 0.666992 -40 2s-19.167 3.33301 -25.5 6
s-10.666 5.83398 -12.999 9.50098s-3.5 8.16699 -3.5 13.5v272h-534c-8 0 -14.667 1 -20 3s-10.166 5.66699 -14.499 11s-7.33301 13 -9 23s-2.5 23 -2.5 39c0 12.667 0.333008 24 1 34s2 19.167 4 27.5s4.66699 16.333 8 24s7.33301 15.834 12 24.501l466 786
c3.33301 5.33301 8.16602 10 14.499 14s14.5 7.33301 24.5 10s22.333 4.5 37 5.5s32 1.5 52 1.5c22 0 41.167 -0.833008 57.5 -2.5s29.5 -3.83398 39.5 -6.50098s17.667 -6.16699 23 -10.5s8 -9.5 8 -15.5v-826h146c11.333 0 20.5 -5.83301 27.5 -17.5
s10.5 -29.5 10.5 -53.5zM628.002 1149h-2l-421 -710h423v710z" />
    <glyph glyph-name="five" unicode="5" horiz-adv-x="1038" 
d="M918 416c0 -69.333 -11.668 -131.002 -35.001 -185.002s-56.333 -99.5 -99 -136.5s-93.5 -65.167 -152.5 -84.5s-124.5 -29 -196.5 -29c-40 0 -78 2.83301 -114 8.5s-68 12.667 -96 21s-51 16.5 -69 24.5s-29.5 14.333 -34.5 19s-8.5 9 -10.5 13
s-3.83301 8.83301 -5.5 14.5s-2.83398 12.834 -3.50098 21.501s-1 19 -1 31c0 11.333 0.5 21.5 1.5 30.5s2.83301 16.333 5.5 22s5.83398 9.83398 9.50098 12.501s7.83398 4 12.501 4c6.66699 0 17 -4.16699 31 -12.5s32.833 -17.333 56.5 -27s53 -18.834 88 -27.501
s76.5 -13 124.5 -13c44.667 0 85.667 5.33301 123 16s69.5 27.334 96.5 50.001s48.167 51.167 63.5 85.5s23 76.166 23 125.499c0 41.333 -6.5 77.833 -19.5 109.5s-33 58 -60 79s-61.167 36.667 -102.5 47s-90.666 15.5 -147.999 15.5c-40.667 0 -75.667 -2 -105 -6
s-56.666 -6 -81.999 -6c-18.667 0 -32 4.33301 -40 13s-12 25.334 -12 50.001v527c0 22 5.16699 38.333 15.5 49s25.166 16 44.499 16h573c5.33301 0 10.5 -1.5 15.5 -4.5s9.16699 -7.5 12.5 -13.5s5.83301 -13.667 7.5 -23s2.5 -20.333 2.5 -33
c0 -24 -3.33301 -42.667 -10 -56s-16 -20 -28 -20h-483v-363c23.333 3.33301 47.166 5.33301 71.499 6s52.5 1 84.5 1c74 0 138.667 -8.83301 194 -26.5s101.5 -42.667 138.5 -75s65 -71.5 84 -117.5s28.5 -97 28.5 -153z" />
    <glyph glyph-name="six" unicode="6" horiz-adv-x="1038" 
d="M957 419c0 -56.667 -8.67188 -111.505 -26.0049 -164.505s-44 -99.667 -80 -140s-81.667 -72.666 -137 -96.999s-120.666 -36.5 -195.999 -36.5c-54 0 -101.667 6.66699 -143 20s-77.333 32.333 -108 57s-56.167 55 -76.5 91s-36.666 77 -48.999 123
s-21.166 96.333 -26.499 151s-8 113.334 -8 176.001c0 55.333 3 111.333 9 168s16.667 111.334 32 164.001s36.166 102.167 62.499 148.5s59.333 86.666 99 120.999s87.167 61.5 142.5 81.5s119.666 30 192.999 30c24.667 0 49.667 -1.5 75 -4.5s48.666 -7 69.999 -12
s39.333 -10.5 54 -16.5s24.334 -10.833 29.001 -14.5s8.16699 -7.66699 10.5 -12s4.16602 -9 5.49902 -14s2.33301 -10.667 3 -17s1 -14.166 1 -23.499c0 -12 -0.166992 -22.333 -0.5 -31s-1.66602 -15.667 -3.99902 -21s-5.33301 -9.33301 -9 -12s-8.5 -4 -14.5 -4
c-7.33301 0 -17.333 2.33301 -30 7s-28 9.83398 -46 15.501s-39.833 10.834 -65.5 15.501s-55.5 7 -89.5 7c-62 0 -115.333 -12.667 -160 -38s-81.167 -59.333 -109.5 -102s-49.333 -92.167 -63 -148.5s-21.5 -115.166 -23.5 -176.499c17.333 10 36.833 20 58.5 30
s45.334 19 71.001 27s52.834 14.5 81.501 19.5s59.334 7.5 92.001 7.5c70 0 129 -9.5 177 -28.5s86.833 -45.333 116.5 -79s50.834 -73.334 63.501 -119.001s19 -95.167 19 -148.5zM782.995 402.995c0 38.667 -3.83301 73.833 -11.5 105.5s-20.5 58.5 -38.5 80.5
s-42 39 -72 51s-67 18 -111 18c-24.667 0 -49.334 -2.16699 -74.001 -6.5s-48.5 -10.333 -71.5 -18s-45 -16.667 -66 -27s-40.167 -21.5 -57.5 -33.5c0 -86 5.5 -158 16.5 -216s27 -104.5 48 -139.5s47.167 -60 78.5 -75s68 -22.5 110 -22.5c42.667 0 79.667 8 111 24
s57.333 37.5 78 64.5s35.834 57.333 45.501 91s14.5 68.167 14.5 103.5z" />
    <glyph glyph-name="seven" unicode="7" horiz-adv-x="1038" 
d="M943 1220c0 -12 -0.498047 -22.832 -1.49805 -32.499s-2.33301 -19 -4 -28s-4 -17.667 -7 -26s-6.5 -17.166 -10.5 -26.499l-466 -1074c-3.33301 -8 -7.5 -14.5 -12.5 -19.5s-11.333 -9 -19 -12s-17.5 -5 -29.5 -6s-26.667 -1.5 -44 -1.5c-22.667 0 -40.334 1 -53.001 3
s-21.834 5.16699 -27.501 9.5s-8.16699 9.66602 -7.5 15.999s3 13.833 7 22.5l490 1098h-621c-12.667 0 -22.167 6.66699 -28.5 20s-9.5 32 -9.5 56c0 12.667 0.833008 23.667 2.5 33s4.16699 17.166 7.5 23.499s7.33301 11 12 14s10 4.5 16 4.5h754
c9.33301 0 17.5 -1 24.5 -3s12.333 -6 16 -12s6.5 -13.667 8.5 -23s3 -21.333 3 -36z" />
    <glyph glyph-name="eight" unicode="8" horiz-adv-x="1038" 
d="M954 332c0 -56 -9.99902 -105.834 -29.999 -149.501s-48.833 -80.5 -86.5 -110.5s-84.167 -52.667 -139.5 -68s-118.666 -23 -189.999 -23c-66.667 0 -126.334 7 -179.001 21s-97.334 34.667 -134.001 62s-64.667 61 -84 101s-29 85.667 -29 137
c0 40.667 6.66699 78 20 112s32.5 65.333 57.5 94s55.833 55.5 92.5 80.5s78 48.833 124 71.5c-40 20.667 -75.333 42.5 -106 65.5s-56.667 48 -78 75s-37.5 55.833 -48.5 86.5s-16.5 64 -16.5 100c0 45.333 8.16699 87.833 24.5 127.5s41 74.167 74 103.5s75 52.5 126 69.5
s110.5 25.5 178.5 25.5c65.333 0 121.833 -7.83301 169.5 -23.5s87 -37 118 -64s53.833 -58.833 68.5 -95.5s22 -76 22 -118c0 -34 -5.5 -66.667 -16.5 -98s-27.167 -61 -48.5 -89s-47.5 -54.167 -78.5 -78.5s-66.5 -47.166 -106.5 -68.499
c47.333 -23.333 89.5 -47.333 126.5 -72s68 -51.167 93 -79.5s44 -58.333 57 -90s19.5 -66.5 19.5 -104.5zM738.001 995.999c0 28 -4.83105 53.334 -14.498 76.001s-23.834 42 -42.501 58s-41.834 28.167 -69.501 36.5s-59.167 12.5 -94.5 12.5
c-72 0 -126.5 -16.333 -163.5 -49s-55.5 -77.334 -55.5 -134.001c0 -26 4.5 -50.167 13.5 -72.5s23 -43.5 42 -63.5s43 -39.5 72 -58.5s63.5 -38.833 103.5 -59.5c67.333 34.667 119 73 155 115s54 88.333 54 139zM780.003 314c0 30.667 -5.66895 58.5 -17.002 83.5
s-28.5 48.333 -51.5 70s-51.667 42.667 -86 63s-74.166 41.5 -119.499 63.5c-42 -20.667 -78.833 -41.334 -110.5 -62.001s-57.667 -42 -78 -64s-35.666 -45.167 -45.999 -69.5s-15.5 -51.166 -15.5 -80.499c0 -64.667 22.167 -114.667 66.5 -150s110.5 -53 198.5 -53
c85.333 0 149.833 17.833 193.5 53.5s65.5 84.167 65.5 145.5z" />
    <glyph glyph-name="nine" unicode="9" horiz-adv-x="1038" 
d="M934 698c0 -56 -3.3291 -112.665 -9.99609 -169.998s-18 -112.5 -34 -165.5s-37.5 -102.667 -64.5 -149s-61 -86.833 -102 -121.5s-89.667 -61.834 -146 -81.501s-121.833 -29.5 -196.5 -29.5c-28.667 0 -56.5 1.83301 -83.5 5.5s-51.333 8.16699 -73 13.5
s-39.834 11 -54.501 17s-25.334 12 -32.001 18s-11.5 14.167 -14.5 24.5s-4.5 24.166 -4.5 41.499c0 14.667 0.5 26.334 1.5 35.001s2.5 15.334 4.5 20.001s4.83301 7.83398 8.5 9.50098s8.16699 2.5 13.5 2.5c7.33301 0 17.666 -2.5 30.999 -7.5s30.166 -10.5 50.499 -16.5
s44.166 -11.5 71.499 -16.5s58 -7.5 92 -7.5c64.667 0 120.167 12.5 166.5 37.5s84.166 58.5 113.499 100.5s51.333 90.667 66 146s22.667 113.666 24 174.999c-35.333 -20.667 -77.666 -39 -126.999 -55s-106 -24 -170 -24c-72 0 -132.5 9.83301 -181.5 29.5
s-88.333 46.5 -118 80.5s-51 74.333 -64 121s-19.5 97.667 -19.5 153c0 57.333 8.33301 111.833 25 163.5s42.667 97.167 78 136.5s80.333 70.666 135 93.999s120 35 196 35c54 0 101.833 -6.83301 143.5 -20.5s77.834 -33.334 108.501 -59.001s56.667 -56.667 78 -93
s38.5 -77.5 51.5 -123.5s22.333 -95.833 28 -149.5s8.5 -110.167 8.5 -169.5zM759.004 717.002c0 85.333 -5.66602 157.166 -16.999 215.499s-28 105.5 -50 141.5s-49 62 -81 78s-69 24 -111 24c-43.333 0 -80.333 -7.83301 -111 -23.5s-55.834 -36.667 -75.501 -63
s-34.167 -56.166 -43.5 -89.499s-14 -67.666 -14 -102.999c0 -39.333 4.16699 -75.333 12.5 -108s21.833 -60.334 40.5 -83.001s43 -40.167 73 -52.5s67 -18.5 111 -18.5c50 0 98.333 7.5 145 22.5s87 34.833 121 59.5z" />
    <glyph glyph-name="colon" unicode=":" horiz-adv-x="548" 
d="M397 800c0 -21.333 -1.5 -39.333 -4.5 -54s-8.66699 -26.5 -17 -35.5s-19.166 -15.333 -32.499 -19s-30.333 -5.5 -51 -5.5c-21.333 0 -38.666 1.83301 -51.999 5.5s-24 10 -32 19s-13.5 20.833 -16.5 35.5s-4.5 32.667 -4.5 54c0 22.667 1.5 41.5 4.5 56.5
s8.5 27 16.5 36s18.667 15.333 32 19s30.666 5.5 51.999 5.5c20.667 0 37.667 -1.83301 51 -5.5s24.166 -10 32.499 -19s14 -21 17 -36s4.5 -33.833 4.5 -56.5zM397 106c0 -22 -1.5 -40.333 -4.5 -55s-8.66699 -26.5 -17 -35.5s-19.166 -15.333 -32.499 -19
s-30.333 -5.5 -51 -5.5c-21.333 0 -38.666 1.83301 -51.999 5.5s-24 10 -32 19s-13.5 20.833 -16.5 35.5s-4.5 33 -4.5 55s1.5 40.5 4.5 55.5s8.5 26.833 16.5 35.5s18.667 15 32 19s30.666 6 51.999 6c20.667 0 37.667 -2 51 -6s24.166 -10.333 32.499 -19
s14 -20.5 17 -35.5s4.5 -33.5 4.5 -55.5z" />
    <glyph glyph-name="semicolon" unicode=";" horiz-adv-x="548" 
d="M397 800c0 -21.333 -1.5 -39.333 -4.5 -54s-8.66699 -26.5 -17 -35.5s-19.166 -15.333 -32.499 -19s-30.333 -5.5 -51 -5.5c-21.333 0 -38.666 1.83301 -51.999 5.5s-24 10 -32 19s-13.5 20.833 -16.5 35.5s-4.5 32.667 -4.5 54c0 22.667 1.5 41.5 4.5 56.5
s8.5 27 16.5 36s18.667 15.333 32 19s30.666 5.5 51.999 5.5c20.667 0 37.667 -1.83301 51 -5.5s24.166 -10 32.499 -19s14 -21 17 -36s4.5 -33.833 4.5 -56.5zM397 143c0 -20.667 -1.00391 -39.6719 -3.00391 -57.0049s-5.16699 -33.666 -9.5 -48.999
s-10.333 -30.5 -18 -45.5s-17.167 -30.833 -28.5 -47.5l-136 -204c-3.33301 -5.33301 -7.16602 -9.66602 -11.499 -12.999s-9.5 -6.16602 -15.5 -8.49902s-13.167 -4.16602 -21.5 -5.49902s-18.5 -2 -30.5 -2c-11.333 0 -20.833 0.5 -28.5 1.5s-13.167 2.83301 -16.5 5.5
s-5.16602 5.83398 -5.49902 9.50098s0.833984 8.5 3.50098 14.5l131 273v128c0 18 2 32.333 6 43s9.83301 18.667 17.5 24s17.5 9 29.5 11s26.333 3 43 3c16 0 30 -1 42 -3s21.833 -5.66699 29.5 -11s13.334 -13.333 17.001 -24s5.5 -25 5.5 -43z" />
    <glyph glyph-name="less" unicode="&#x3c;" horiz-adv-x="1020" 
d="M919 162c0 -16.667 -0.668945 -30.168 -2.00195 -40.501s-3.66602 -17.666 -6.99902 -21.999s-7.5 -6.16602 -12.5 -5.49902s-11.167 3 -18.5 7l-788 398c-6.66699 3.33301 -12 11.333 -16 24s-6 31 -6 55c0 10.667 0.5 20.667 1.5 30s2.66699 17 5 23s5 11.167 8 15.5
s6.5 7.16602 10.5 8.49902l785 396c15.333 7.33301 25.833 7 31.5 -1s8.5 -27.667 8.5 -59c0 -19.333 -0.5 -34.666 -1.5 -45.999s-2.66699 -20.5 -5 -27.5s-5.66602 -12.333 -9.99902 -16s-10.5 -7.5 -18.5 -11.5l-644 -315l640 -310
c8.66699 -4.66699 15.5 -8.83398 20.5 -12.501s8.83301 -9 11.5 -16s4.5 -16.333 5.5 -28s1.5 -27.167 1.5 -46.5z" />
    <glyph glyph-name="equal" unicode="=" horiz-adv-x="1020" 
d="M925 771c0 -26.667 -3.83301 -45.167 -11.5 -55.5s-16.5 -15.5 -26.5 -15.5h-756c-10 0 -18.667 5.16699 -26 15.5s-11 28.833 -11 55.5c0 24 3.33301 41.667 10 53s15.667 17 27 17h756c12 0 21.333 -5.66699 28 -17s10 -29 10 -53zM925 382
c0 -26.667 -3.83301 -45 -11.5 -55s-16.5 -15 -26.5 -15h-756c-10 0 -18.667 5 -26 15s-11 28.333 -11 55c0 24.667 3.33301 42.667 10 54s15.667 17 27 17h756c12 0 21.333 -5.66699 28 -17s10 -29.333 10 -54z" />
    <glyph glyph-name="greater" unicode="&#x3e;" horiz-adv-x="1020" 
d="M952 574c0 -11.333 -0.666016 -21.501 -1.99902 -30.501s-3 -16.833 -5 -23.5s-4.66699 -11.834 -8 -15.501s-7 -6.5 -11 -8.5l-785 -396c-7.33301 -3.33301 -13.666 -5.16602 -18.999 -5.49902s-9.5 1.83398 -12.5 6.50098s-5.16699 11.834 -6.5 21.501
s-2 22.167 -2 37.5c0 18.667 0.333008 33.667 1 45s2.16699 20.5 4.5 27.5s5.83301 12.5 10.5 16.5s10.667 7.66699 18 11l645 317l-641 309c-8.66699 4 -15.5 7.83301 -20.5 11.5s-8.83301 9.16699 -11.5 16.5s-4.33398 16.833 -5.00098 28.5s-1 27.167 -1 46.5
c0 17.333 0.666992 30.833 2 40.5s3.5 16.667 6.5 21s7.16699 6.16602 12.5 5.49902s11.666 -3 18.999 -7l788 -397c6.66699 -3.33301 12.167 -11.5 16.5 -24.5s6.5 -30.833 6.5 -53.5z" />
    <glyph glyph-name="question" unicode="?" horiz-adv-x="949" 
d="M855 991c0 -58.667 -8.3291 -110.667 -24.9961 -156s-40 -84 -70 -116s-66 -57 -108 -75s-88.667 -28.667 -140 -32l-7 -241c0 -10 -5.83301 -17.5 -17.5 -22.5s-30.5 -7.5 -56.5 -7.5c-14 0 -26 0.5 -36 1.5s-18 2.66699 -24 5s-10.333 5.5 -13 9.5s-4 8.66699 -4 14
l-6 277c-0.666992 15.333 0.5 27.833 3.5 37.5s7.5 17.667 13.5 24s13.667 10.666 23 12.999s20 3.5 32 3.5h22c43.333 0 80.333 6.83301 111 20.5s55.5 31.834 74.5 54.501s32.833 49.334 41.5 80.001s13 62.667 13 96c0 38 -5.33301 72.833 -16 104.5s-26.667 59 -48 82
s-48.166 40.833 -80.499 53.5s-70.5 19 -114.5 19c-38.667 0 -72.5 -4.16699 -101.5 -12.5s-54.167 -17.5 -75.5 -27.5s-38.833 -19 -52.5 -27s-23.834 -12 -30.501 -12c-4.66699 0 -8.83398 1 -12.501 3s-6.83398 5.83301 -9.50098 11.5s-4.66699 13.334 -6 23.001
s-2 21.834 -2 36.501c0 16 1 28.167 3 36.5s6.33301 15.666 13 21.999s19.5 14.666 38.5 24.999s42 19.833 69 28.5s56.667 16 89 22s65.833 9 100.5 9c71.333 0 132.666 -10.167 183.999 -30.5s93.666 -47.833 126.999 -82.5s58 -75.334 74 -122.001s24 -96 24 -148z
M539.004 104c0 -22 -1.5 -40.167 -4.5 -54.5s-8.5 -26 -16.5 -35s-18.833 -15.333 -32.5 -19s-30.5 -5.5 -50.5 -5.5c-21.333 0 -38.666 1.83301 -51.999 5.5s-24.166 10 -32.499 19s-14 20.667 -17 35s-4.5 32.5 -4.5 54.5s1.5 40.5 4.5 55.5s8.66699 26.667 17 35
s19.166 14.333 32.499 18s30.666 5.5 51.999 5.5c20 0 36.833 -1.83301 50.5 -5.5s24.5 -9.66699 32.5 -18s13.5 -20 16.5 -35s4.5 -33.5 4.5 -55.5z" />
    <glyph glyph-name="at" unicode="@" horiz-adv-x="1831" 
d="M1656 769c0 -45.333 -2.84082 -91.667 -8.50781 -139s-14.834 -93.333 -27.501 -138s-29.334 -86.834 -50.001 -126.501s-46 -74.5 -76 -104.5s-64.833 -53.5 -104.5 -70.5s-85.167 -25.5 -136.5 -25.5c-27.333 0 -52.666 3.16699 -75.999 9.5s-44 15.5 -62 27.5
s-33.167 27.5 -45.5 46.5s-20.833 40.833 -25.5 65.5c-26.667 -26.667 -52.5 -49.5 -77.5 -68.5s-49.5 -34.5 -73.5 -46.5s-47.5 -20.667 -70.5 -26s-45.5 -8 -67.5 -8c-28.667 0 -54 2.83301 -76 8.5s-41.5 14 -58.5 25s-31.5 24.5 -43.5 40.5s-22 34 -30 54
s-13.667 42 -17 66s-5 50 -5 78c0 28.667 2.33301 61.5 7 98.5s12.334 75.167 23.001 114.5s25.334 77.833 44.001 115.5s41.834 71.334 69.501 101.001s60.5 53.667 98.5 72s82.333 27.5 133 27.5c21.333 0 41.833 -2.5 61.5 -7.5s38.5 -12.833 56.5 -23.5
s35.333 -24 52 -40s33.667 -35 51 -57l17 88c2.66699 9.33301 8.66699 16.333 18 21s26.666 7 51.999 7c12 0 22.167 -0.666992 30.5 -2s14.833 -3.16602 19.5 -5.49902s7.83398 -5.16602 9.50098 -8.49902s1.83398 -7.33301 0.500977 -12l-89 -460
c-10.667 -58 -8 -100.833 8 -128.5s46.333 -41.5 91 -41.5c27.333 0 52 6.83301 74 20.5s41.333 32.167 58 55.5s30.667 50.5 42 81.5s20.666 63.667 27.999 98s12.666 69.5 15.999 105.5s5 70.667 5 104c0 58 -7.83301 113.167 -23.5 165.5s-42.5 98.333 -80.5 138
s-88.833 71.334 -152.5 95.001s-143.5 35.5 -239.5 35.5c-78.667 0 -148.667 -8.66699 -210 -26s-115.333 -40.833 -162 -70.5s-86.667 -63.834 -120 -102.501s-61.5 -79.834 -84.5 -123.501s-41.5 -88.334 -55.5 -134.001s-24.667 -89.667 -32 -132
s-12.166 -82.166 -14.499 -119.499s-3.5 -69 -3.5 -95c0 -74 8.5 -141.667 25.5 -203s46.5 -114.333 88.5 -159s98.333 -79.334 169 -104.001s159.667 -37 267 -37c48.667 0 92.667 2.83301 132 8.5s73.5 11.667 102.5 18s52.5 12.333 70.5 18s30.333 8.5 37 8.5
c4 0 7.5 -1.16699 10.5 -3.5s5.33301 -6 7 -11s2.83398 -11.333 3.50098 -19s1 -17.167 1 -28.5c0 -9.33301 -0.166992 -17 -0.5 -23s-1.16602 -11.5 -2.49902 -16.5s-3.16602 -9.5 -5.49902 -13.5s-5.5 -7.66699 -9.5 -11s-15.5 -8.33301 -34.5 -15
s-44.667 -13.334 -77 -20.001s-70.166 -12.334 -113.499 -17.001s-91 -7 -143 -7c-124.667 0 -230.167 14.667 -316.5 44s-156.666 71.333 -210.999 126s-93.5 120.334 -117.5 197.001s-36 162.334 -36 257.001c0 34.667 1.83301 74.5 5.5 119.5s10.667 93 21 144
s24.833 103 43.5 156s42.834 104.833 72.501 155.5s65.667 98.5 108 143.5s92.333 84.333 150 118s123.667 60.167 198 79.5s158.5 29 252.5 29c109.333 0 203.833 -13.167 283.5 -39.5s145.5 -63.5 197.5 -111.5s90.667 -106.5 116 -175.5s38 -145.833 38 -230.5z
M1075.99 703.999c-25.333 42.667 -51.332 75.333 -77.999 98s-57 34 -91 34c-28 0 -53.333 -6.83301 -76 -20.5s-42.334 -31.334 -59.001 -53.001s-30.834 -46.167 -42.501 -73.5s-21.167 -55.333 -28.5 -84s-12.5 -56.5 -15.5 -83.5s-4.5 -50.833 -4.5 -71.5
c0 -49.333 8.83301 -87.333 26.5 -114s47.5 -40 89.5 -40c16 0 32.333 2.83301 49 8.5s34.334 14.334 53.001 26.001s38.5 27 59.5 46s44.167 41.5 69.5 67.5zM-0.00683594 1294z" />
    <glyph glyph-name="A" unicode="A" horiz-adv-x="1185" 
d="M1141 61c5.33301 -14.667 8.16406 -26.502 8.49707 -35.502s-2.16699 -15.833 -7.5 -20.5s-14.166 -7.66699 -26.499 -9s-28.833 -2 -49.5 -2s-37.167 0.5 -49.5 1.5s-21.666 2.66699 -27.999 5s-11 5.5 -14 9.5s-5.83301 9 -8.5 15l-111 315h-538l-106 -311
c-2 -6 -4.66699 -11.167 -8 -15.5s-8.16602 -8 -14.499 -11s-15.333 -5.16699 -27 -6.5s-26.834 -2 -45.501 -2c-19.333 0 -35.166 0.833008 -47.499 2.5s-21 4.83398 -26 9.50098s-7.33301 11.5 -7 20.5s3.16602 20.833 8.49902 35.5l434 1202
c2.66699 7.33301 6.16699 13.333 10.5 18s10.666 8.33398 18.999 11.001s19 4.5 32 5.5s29.5 1.5 49.5 1.5c21.333 0 39 -0.5 53 -1.5s25.333 -2.83301 34 -5.5s15.334 -6.5 20.001 -11.5s8.33398 -11.167 11.001 -18.5zM583.998 1122h-1l-223 -645h450z" />
    <glyph glyph-name="B" unicode="B" horiz-adv-x="1114" 
d="M1025 371c0 -40.667 -5.16602 -78.166 -15.499 -112.499s-24.833 -65.166 -43.5 -92.499s-41.167 -51.333 -67.5 -72s-56 -38 -89 -52s-68.333 -24.5 -106 -31.5s-80.834 -10.5 -129.501 -10.5h-338c-15.333 0 -29.833 5.16699 -43.5 15.5s-20.5 28.5 -20.5 54.5v1154
c0 26 6.83301 44.167 20.5 54.5s28.167 15.5 43.5 15.5h294c77.333 0 140.666 -7.33301 189.999 -22s90.5 -36 123.5 -64s57.833 -62.333 74.5 -103s25 -86.667 25 -138c0 -30.667 -3.66699 -60 -11 -88s-18.166 -53.833 -32.499 -77.5s-32.333 -44.834 -54 -63.501
s-46.5 -34 -74.5 -46c35.333 -6.66699 68.333 -18.834 99 -36.501s57.5 -40.167 80.5 -67.5s41.167 -59.333 54.5 -96s20 -77 20 -121zM766.001 950.001c0 31.333 -4.33203 59.666 -12.999 84.999s-22.334 46.833 -41.001 64.5s-43 31.167 -73 40.5s-69.667 14 -119 14h-178
v-419h196c44.667 0 80.667 5.83301 108 17.5s50 27.334 68 47.001s31.167 42.667 39.5 69s12.5 53.5 12.5 81.5zM844.002 361.001c0 38.667 -6.16406 72.6689 -18.4971 102.002s-30.333 54 -54 74s-53.334 35.167 -89.001 45.5s-80.5 15.5 -134.5 15.5h-206v-456h250
c39.333 0 73.666 4.66699 102.999 14s55.166 23.166 77.499 41.499s39.833 41.166 52.5 68.499s19 59 19 95z" />
    <glyph glyph-name="C" unicode="C" horiz-adv-x="1092" 
d="M1036 183c0 -10.667 -0.327148 -20.002 -0.994141 -28.002s-1.83398 -15 -3.50098 -21s-3.83398 -11.333 -6.50098 -16s-7.33398 -10.334 -14.001 -17.001s-20.667 -16.834 -42 -30.501s-47.833 -27 -79.5 -40s-68 -24 -109 -33s-85.833 -13.5 -134.5 -13.5
c-84 0 -159.833 14 -227.5 42s-125.334 69.333 -173.001 124s-84.334 122.167 -110.001 202.5s-38.5 172.833 -38.5 277.5c0 107.333 13.833 203 41.5 287s66.5 155.167 116.5 213.5s109.833 102.833 179.5 133.5s146.834 46 231.501 46c37.333 0 73.666 -3.5 108.999 -10.5
s68 -15.833 98 -26.5s56.667 -23 80 -37s39.5 -25.5 48.5 -34.5s14.833 -15.833 17.5 -20.5s4.83398 -10.167 6.50098 -16.5s3 -13.833 4 -22.5s1.5 -19 1.5 -31c0 -13.333 -0.666992 -24.666 -2 -33.999s-3.33301 -17.166 -6 -23.499s-5.83398 -11 -9.50098 -14
s-8.16699 -4.5 -13.5 -4.5c-9.33301 0 -22.333 6.5 -39 19.5s-38.167 27.333 -64.5 43s-58.333 30 -96 43s-82.834 19.5 -135.501 19.5c-57.333 0 -109.5 -11.5 -156.5 -34.5s-87.167 -56.833 -120.5 -101.5s-59.166 -99.167 -77.499 -163.5s-27.5 -137.833 -27.5 -220.5
c0 -82 8.83301 -154.5 26.5 -217.5s43 -115.667 76 -158s73.5 -74.333 121.5 -96s102.333 -32.5 163 -32.5c51.333 0 96.166 6.33301 134.499 19s71 26.834 98 42.501s49.167 29.834 66.5 42.501s31 19 41 19c4.66699 0 8.66699 -1 12 -3s6 -5.83301 8 -11.5
s3.5 -13.5 4.5 -23.5s1.5 -22.667 1.5 -38z" />
    <glyph glyph-name="D" unicode="D" horiz-adv-x="1260" 
d="M1167 666c0 -112 -14.332 -209.835 -42.999 -293.502s-70.5 -153 -125.5 -208s-122.5 -96.167 -202.5 -123.5s-175.333 -41 -286 -41h-274c-15.333 0 -29.833 5.16699 -43.5 15.5s-20.5 28.5 -20.5 54.5v1154c0 26 6.83301 44.167 20.5 54.5s28.167 15.5 43.5 15.5h293
c112 0 206.667 -14.5 284 -43.5s142.166 -70.667 194.499 -125s92 -120.166 119 -197.499s40.5 -164.666 40.5 -261.999zM986.001 658.998c0 70 -8.66797 135.166 -26.001 195.499s-44.5 112.5 -81.5 156.5s-83.833 78.333 -140.5 103s-129.667 37 -219 37h-175v-1007h177
c82.667 0 152.334 10.333 209.001 31s104 52.334 142 95.001s66.5 96.167 85.5 160.5s28.5 140.5 28.5 228.5z" />
    <glyph glyph-name="E" unicode="E" horiz-adv-x="1000" 
d="M892 71c0 -12 -0.666992 -22.5 -2 -31.5s-3.66602 -16.5 -6.99902 -22.5s-7.16602 -10.333 -11.499 -13s-9.16602 -4 -14.499 -4h-621c-15.333 0 -29.833 5.16699 -43.5 15.5s-20.5 28.5 -20.5 54.5v1154c0 26 6.83301 44.167 20.5 54.5s28.167 15.5 43.5 15.5h614
c5.33301 0 10.166 -1.33301 14.499 -4s7.83301 -7 10.5 -13s4.83398 -13.5 6.50098 -22.5s2.5 -20.167 2.5 -33.5c0 -12 -0.833008 -22.5 -2.5 -31.5s-3.83398 -16.333 -6.50098 -22s-6.16699 -9.83398 -10.5 -12.501s-9.16602 -4 -14.499 -4h-506v-406h434
c5.33301 0 10.166 -1.5 14.499 -4.5s8 -7.16699 11 -12.5s5.16699 -12.666 6.5 -21.999s2 -20.333 2 -33c0 -12 -0.666992 -22.333 -2 -31s-3.5 -15.667 -6.5 -21s-6.66699 -9.16602 -11 -11.499s-9.16602 -3.5 -14.499 -3.5h-434v-463h513
c5.33301 0 10.166 -1.33301 14.499 -4s8.16602 -6.83398 11.499 -12.501s5.66602 -13 6.99902 -22s2 -20.167 2 -33.5z" />
    <glyph glyph-name="F" unicode="F" horiz-adv-x="941" 
d="M852 1220c0 -12.667 -0.664062 -23.666 -1.99707 -32.999s-3.66602 -16.833 -6.99902 -22.5s-7.16602 -9.83398 -11.499 -12.501s-8.83301 -4 -13.5 -4h-474v-440h448c4.66699 0 9.16699 -1.16699 13.5 -3.5s8.16602 -6.16602 11.499 -11.499
s5.66602 -12.5 6.99902 -21.5s2 -20.5 2 -34.5c0 -12.667 -0.666992 -23.5 -2 -32.5s-3.66602 -16.333 -6.99902 -22s-7.16602 -10 -11.499 -13s-8.83301 -4.5 -13.5 -4.5h-448v-539c0 -4.66699 -1.33301 -9.16699 -4 -13.5s-7.33398 -7.66602 -14.001 -9.99902
s-15.334 -4.33301 -26.001 -6s-24.667 -2.5 -42 -2.5c-16 0 -29.667 0.833008 -41 2.5s-20.333 3.66699 -27 6s-11.334 5.66602 -14.001 9.99902s-4 8.83301 -4 13.5v1198c0 26 6.83301 44.167 20.5 54.5s28.167 15.5 43.5 15.5h582c4.66699 0 9.16699 -1.33301 13.5 -4
s8.16602 -7 11.499 -13s5.66602 -13.833 6.99902 -23.5s2 -20.834 2 -33.501z" />
    <glyph glyph-name="G" unicode="G" horiz-adv-x="1292" 
d="M1144 1118c0 -12.667 -0.663086 -23.832 -1.99609 -33.499s-3.33301 -17.667 -6 -24s-6 -10.833 -10 -13.5s-8.33301 -4 -13 -4c-8 0 -21.333 6.33301 -40 19s-43.667 26.667 -75 42s-68.833 29.333 -112.5 42s-95.5 19 -155.5 19c-71.333 0 -135.333 -13 -192 -39
s-104.667 -62 -144 -108s-69.5 -100.667 -90.5 -164s-31.5 -132 -31.5 -206c0 -82.667 11.5 -156 34.5 -220s54.833 -118 95.5 -162s89.167 -77.333 145.5 -100s118.166 -34 185.499 -34c40 0 80.5 4.83301 121.5 14.5s79.167 24.167 114.5 43.5v377h-300
c-11.333 0 -19.833 5.66699 -25.5 17s-8.5 29 -8.5 53c0 12.667 0.666992 23.5 2 32.5s3.5 16.333 6.5 22s6.5 9.83398 10.5 12.501s9 4 15 4h411c7.33301 0 14.666 -1.33301 21.999 -4s14 -6.66699 20 -12s10.667 -12.666 14 -21.999s5 -20 5 -32v-493
c0 -17.333 -3 -32.333 -9 -45s-18.667 -23.834 -38 -33.501s-44.333 -20.167 -75 -31.5s-62.334 -21 -95.001 -29s-65.667 -14 -99 -18s-66.333 -6 -99 -6c-100 0 -189.333 15.5 -268 46.5s-145.167 75.167 -199.5 132.5s-95.833 126 -124.5 206s-43 169.333 -43 268
c0 102.667 15.5 195.667 46.5 279s74.667 154.333 131 213s124 104.167 203 136.5s166.5 48.5 262.5 48.5c49.333 0 95.666 -4.33301 138.999 -13s81.833 -18.834 115.5 -30.501s62 -24.334 85 -38.001s38.833 -24.834 47.5 -33.501s14.667 -18.667 18 -30
s5 -27.666 5 -48.999z" />
    <glyph glyph-name="H" unicode="H" horiz-adv-x="1276" 
d="M1104 26c0 -5.33301 -1.33301 -10 -4 -14s-7.33398 -7.16699 -14.001 -9.5s-15.5 -4.33301 -26.5 -6s-24.5 -2.5 -40.5 -2.5c-17.333 0 -31.333 0.833008 -42 2.5s-19.334 3.66699 -26.001 6s-11.334 5.5 -14.001 9.5s-4 8.66699 -4 14v574h-589v-574
c0 -5.33301 -1.33301 -10 -4 -14s-7.33398 -7.16699 -14.001 -9.5s-15.5 -4.33301 -26.5 -6s-24.833 -2.5 -41.5 -2.5c-16 0 -29.667 0.833008 -41 2.5s-20.333 3.66699 -27 6s-11.334 5.5 -14.001 9.5s-4 8.66699 -4 14v1242c0 5.33301 1.33301 10 4 14
s7.33398 7.16699 14.001 9.5s15.667 4.33301 27 6s25 2.5 41 2.5c16.667 0 30.5 -0.833008 41.5 -2.5s19.833 -3.66699 26.5 -6s11.334 -5.5 14.001 -9.5s4 -8.66699 4 -14v-518h589v518c0 5.33301 1.33301 10 4 14s7.33398 7.16699 14.001 9.5s15.334 4.33301 26.001 6
s24.667 2.5 42 2.5c16 0 29.5 -0.833008 40.5 -2.5s19.833 -3.66699 26.5 -6s11.334 -5.5 14.001 -9.5s4 -8.66699 4 -14v-1242z" />
    <glyph glyph-name="I" unicode="I" horiz-adv-x="516" 
d="M344 26c0 -5.33301 -1.33203 -10 -3.99902 -14s-7.33398 -7.16699 -14.001 -9.5s-15.5 -4.33301 -26.5 -6s-24.833 -2.5 -41.5 -2.5c-16 0 -29.667 0.833008 -41 2.5s-20.333 3.66699 -27 6s-11.334 5.5 -14.001 9.5s-4 8.66699 -4 14v1242c0 5.33301 1.5 10 4.5 14
s8 7.16699 15 9.5s16 4.33301 27 6s24.167 2.5 39.5 2.5c16.667 0 30.5 -0.833008 41.5 -2.5s19.833 -3.66699 26.5 -6s11.334 -5.5 14.001 -9.5s4 -8.66699 4 -14v-1242z" />
    <glyph glyph-name="J" unicode="J" horiz-adv-x="653" 
d="M484 326c0 -51.333 -4.66797 -98.335 -14.001 -141.002s-25.333 -79 -48 -109s-52.5 -53.167 -89.5 -69.5s-82.833 -24.5 -137.5 -24.5c-18.667 0 -37.167 1.5 -55.5 4.5s-35.166 7 -50.499 12s-28.666 10.333 -39.999 16s-18.833 10.5 -22.5 14.5s-6.66699 8 -9 12
s-4.33301 8.83301 -6 14.5s-2.83398 12.667 -3.50098 21s-1 18.5 -1 30.5c0 14.667 0.5 26.834 1.5 36.501s2.83301 17.334 5.5 23.001s5.83398 9.66699 9.50098 12s8.16699 3.5 13.5 3.5s12.166 -2.5 20.499 -7.5s18.333 -10.5 30 -16.5s25.167 -11.5 40.5 -16.5
s33.333 -7.5 54 -7.5c22.667 0 42 2.83301 58 8.5s29.333 16.167 40 31.5s18.667 36.5 24 63.5s8 62.167 8 105.5v926c0 4.66699 1.33301 9 4 13s7.33398 7.33301 14.001 10s15.5 4.66699 26.5 6s24.833 2 41.5 2c16 0 29.667 -0.666992 41 -2s20.166 -3.33301 26.499 -6
s11 -6 14 -10s4.5 -8.33301 4.5 -13v-943z" />
    <glyph glyph-name="K" unicode="K" horiz-adv-x="1064" 
d="M1016 28c0 -5.33301 -1.16504 -10.1641 -3.49805 -14.4971s-6.83301 -7.83301 -13.5 -10.5s-15.667 -4.83398 -27 -6.50098s-26 -2.5 -44 -2.5c-23.333 0 -42.333 1 -57 3s-25.667 5.66699 -33 11s-13.333 11.333 -18 18l-476 647v-647
c0 -4.66699 -1.33301 -9.16699 -4 -13.5s-7.33398 -7.66602 -14.001 -9.99902s-15.5 -4.33301 -26.5 -6s-24.833 -2.5 -41.5 -2.5c-16 0 -29.667 0.833008 -41 2.5s-20.333 3.66699 -27 6s-11.334 5.66602 -14.001 9.99902s-4 8.83301 -4 13.5v1242
c0 5.33301 1.33301 10 4 14s7.33398 7.16699 14.001 9.5s15.667 4.33301 27 6s25 2.5 41 2.5c16.667 0 30.5 -0.833008 41.5 -2.5s19.833 -3.66699 26.5 -6s11.334 -5.5 14.001 -9.5s4 -8.66699 4 -14v-575l458 575c4 6 8.66699 11 14 15s11.833 7.16699 19.5 9.5
s17 4.16602 28 5.49902s25.167 2 42.5 2s31.333 -0.833008 42 -2.5s19.167 -3.83398 25.5 -6.50098s10.666 -6 12.999 -10s3.5 -8.33301 3.5 -13c0 -8.66699 -2.16699 -17.334 -6.5 -26.001s-12.5 -20.667 -24.5 -36l-429 -513l462 -614
c11.333 -17.333 18.166 -29.166 20.499 -35.499s3.5 -11.5 3.5 -15.5z" />
    <glyph glyph-name="L" unicode="L" horiz-adv-x="861" 
d="M843 75c0 -13.333 -0.668945 -24.501 -2.00195 -33.501s-3.5 -16.667 -6.5 -23s-6.66699 -11 -11 -14s-9.5 -4.5 -15.5 -4.5h-572c-15.333 0 -29.833 5.16699 -43.5 15.5s-20.5 28.5 -20.5 54.5v1198c0 5.33301 1.33301 10 4 14s7.33398 7.16699 14.001 9.5
s15.667 4.33301 27 6s25 2.5 41 2.5c16.667 0 30.5 -0.833008 41.5 -2.5s19.833 -3.66699 26.5 -6s11.334 -5.5 14.001 -9.5s4 -8.66699 4 -14v-1119h464c6 0 11.167 -1.5 15.5 -4.5s8 -7.33301 11 -13s5.16699 -13.167 6.5 -22.5s2 -20.666 2 -33.999z" />
    <glyph glyph-name="M" unicode="M" horiz-adv-x="1751" 
d="M1579 26c0 -5.33301 -1.33008 -9.99902 -3.99707 -13.999s-7.33398 -7.16699 -14.001 -9.5s-15.167 -4.33301 -25.5 -6s-23.833 -2.5 -40.5 -2.5c-15.333 0 -28.5 0.833008 -39.5 2.5s-19.667 3.66699 -26 6s-10.833 5.5 -13.5 9.5s-4 8.66699 -4 14v1127h-2l-461 -1132
c-2 -4.66699 -4.83301 -8.66699 -8.5 -12s-9 -6.16602 -16 -8.49902s-15.333 -4 -25 -5s-21.167 -1.5 -34.5 -1.5c-14 0 -26 0.666992 -36 2s-18.333 3.16602 -25 5.49902s-11.834 5.16602 -15.501 8.49902s-6.16699 7 -7.5 11l-441 1132h-1v-1127
c0 -5.33301 -1.33301 -10 -4 -14s-7.33398 -7.16699 -14.001 -9.5s-15.334 -4.33301 -26.001 -6s-24.334 -2.5 -41.001 -2.5c-16 0 -29.333 0.833008 -40 2.5s-19.167 3.66699 -25.5 6s-10.666 5.5 -12.999 9.5s-3.5 8.66699 -3.5 14v1190c0 28 7.33301 48 22 60
s31 18 49 18h104c21.333 0 40 -2 56 -6s30 -10.333 42 -19s22 -19.667 30 -33s15 -29 21 -47l375 -937h5l390 934c7.33301 20 15.333 37 24 51s18.167 25.167 28.5 33.5s21.833 14.333 34.5 18s27.334 5.5 44.001 5.5h109c10 0 19.5 -1.5 28.5 -4.5s16.667 -7.66699 23 -14
s11.5 -14.333 15.5 -24s6 -21.5 6 -35.5v-1190z" />
    <glyph glyph-name="N" unicode="N" horiz-adv-x="1322" 
d="M1150 71c0 -13.333 -2.16699 -24.667 -6.5 -34s-10 -17 -17 -23s-14.833 -10.333 -23.5 -13s-17.334 -4 -26.001 -4h-55c-17.333 0 -32.5 1.83301 -45.5 5.5s-25.333 10.334 -37 20.001s-23.334 22.834 -35.001 39.501s-24.5 38 -38.5 64l-408 736l-64.5 119.5
l-60.5 121.5h-2c1.33301 -48 2.33301 -97 3 -147s1 -99.667 1 -149v-781c0 -4.66699 -1.33301 -9.16699 -4 -13.5s-7.16699 -7.66602 -13.5 -9.99902s-14.666 -4.33301 -24.999 -6s-23.5 -2.5 -39.5 -2.5s-29.167 0.833008 -39.5 2.5s-18.5 3.66699 -24.5 6
s-10.333 5.66602 -13 9.99902s-4 8.83301 -4 13.5v1194c0 26.667 7.33301 45.667 22 57s30.667 17 48 17h82c19.333 0 35.5 -1.66699 48.5 -5s24.667 -8.83301 35 -16.5s20.333 -18.334 30 -32.001s20.167 -30.834 31.5 -51.501l314 -568l56 -101.5l52 -97.5l49.5 -94.5
l48.5 -93.5h1c-1.33301 52.667 -2.16602 107.5 -2.49902 164.5s-0.5 111.833 -0.5 164.5v702c0 4.66699 1.33301 9 4 13s7.16699 7.5 13.5 10.5s14.666 5.16699 24.999 6.5s23.833 2 40.5 2c14.667 0 27.334 -0.666992 38.001 -2s19 -3.5 25 -6.5s10.333 -6.5 13 -10.5
s4 -8.33301 4 -13v-1194z" />
    <glyph glyph-name="O" unicode="O" horiz-adv-x="1356" 
d="M1256 662c0 -104.667 -12.333 -198.999 -37 -282.999s-61.5 -155.5 -110.5 -214.5s-110.5 -104.333 -184.5 -136s-160.333 -47.5 -259 -47.5c-97.333 0 -181.5 14.5 -252.5 43.5s-129.667 71.167 -176 126.5s-80.833 124 -103.5 206s-34 176.333 -34 283
c0 102 12.333 194.667 37 278s61.667 154.166 111 212.499s111 103.333 185 135s160.333 47.5 259 47.5c95.333 0 178.333 -14.333 249 -43s129.5 -70.5 176.5 -125.5s82 -123 105 -204s34.5 -173.833 34.5 -278.5zM1075 650.001
c0 73.333 -6.49316 141.499 -19.4932 204.499s-34.667 117.667 -65 164s-70.833 82.5 -121.5 108.5s-113.334 39 -188.001 39s-137.334 -14 -188.001 -42s-91.834 -65.333 -123.501 -112s-54.334 -101.167 -68.001 -163.5s-20.5 -127.833 -20.5 -196.5
c0 -76 6.33301 -146 19 -210s34 -119.167 64 -165.5s70.167 -82.333 120.5 -108s113.5 -38.5 189.5 -38.5c75.333 0 138.666 14 189.999 42s92.666 65.833 123.999 113.5s53.666 102.834 66.999 165.501s20 129 20 199z" />
    <glyph glyph-name="P" unicode="P" horiz-adv-x="1058" 
d="M967 915c0 -64.667 -10.6641 -123 -31.9971 -175s-51.833 -96.333 -91.5 -133s-88.334 -65 -146.001 -85s-126.5 -30 -206.5 -30h-147v-466c0 -5.33301 -1.5 -10 -4.5 -14s-7.66699 -7.16699 -14 -9.5s-15 -4.33301 -26 -6s-24.833 -2.5 -41.5 -2.5
s-30.5 0.833008 -41.5 2.5s-19.833 3.66699 -26.5 6s-11.334 5.5 -14.001 9.5s-4 8.66699 -4 14v1194c0 26.667 7 45.667 21 57s29.667 17 47 17h277c28 0 54.833 -1.16699 80.5 -3.5s56 -7.33301 91 -15s70.667 -22 107 -43s67.166 -46.833 92.499 -77.5
s44.833 -66.167 58.5 -106.5s20.5 -84.833 20.5 -133.5zM786.003 901c0 52.667 -9.83203 96.668 -29.499 132.001s-44 61.666 -73 78.999s-59 28.333 -90 33s-61.167 7 -90.5 7h-159v-519h155c52 0 95.167 6.66699 129.5 20s63.166 31.833 86.499 55.5s41 52 53 85
s18 68.833 18 107.5z" />
    <glyph glyph-name="Q" unicode="Q" horiz-adv-x="1378" 
d="M1415 -114c0 -15.333 -0.833008 -28.166 -2.5 -38.499s-4.16699 -18.333 -7.5 -24s-7 -9.5 -11 -11.5s-8 -3 -12 -3c-13.333 0 -34.833 5.5 -64.5 16.5s-63.834 27 -102.501 48s-80 46.5 -124 76.5s-86.667 65 -128 105c-32.667 -20 -74 -37.333 -124 -52
s-108 -22 -174 -22c-97.333 0 -181.5 14.333 -252.5 43s-129.667 70.667 -176 126s-80.833 124.166 -103.5 206.499s-34 176.833 -34 283.5c0 102.667 12.333 195.5 37 278.5s61.667 153.667 111 212s111 103.333 185 135s160.333 47.5 259 47.5
c92.667 0 174.167 -14.333 244.5 -43s129.333 -70.5 177 -125.5s83.5 -122.833 107.5 -203.5s36 -173.334 36 -278.001c0 -54 -3.16699 -105.667 -9.5 -155s-16.333 -96 -30 -140s-30.834 -84.667 -51.501 -122s-45 -71 -73 -101c48.667 -40 91.334 -71.167 128.001 -93.5
s67 -39.166 91 -50.499s42.667 -19.5 56 -24.5s23.333 -10.667 30 -17s11.334 -15.333 14.001 -27s4 -27.167 4 -46.5zM1075 651c0 73.333 -6.49316 141.335 -19.4932 204.002s-34.667 117.167 -65 163.5s-70.833 82.5 -121.5 108.5s-113.334 39 -188.001 39
s-137.334 -13.833 -188.001 -41.5s-91.834 -65 -123.501 -112s-54.334 -101.5 -68.001 -163.5s-20.5 -127.667 -20.5 -197c0 -76 6.33301 -145.833 19 -209.5s34 -118.834 64 -165.501s70.167 -82.834 120.5 -108.501s113.5 -38.5 189.5 -38.5
c75.333 0 138.666 14 189.999 42s92.666 65.833 123.999 113.5s53.666 103 66.999 166s20 129.5 20 199.5z" />
    <glyph glyph-name="R" unicode="R" horiz-adv-x="1112" 
d="M1035 26c0 -5.33301 -0.996094 -10.0029 -2.99609 -14.0029s-6.33301 -7.33301 -13 -10s-16 -4.66699 -28 -6s-28 -2 -48 -2c-17.333 0 -31.5 0.666992 -42.5 2s-19.833 3.5 -26.5 6.5s-11.834 7.16699 -15.501 12.5s-6.83398 12 -9.50098 20l-119 305
c-14 34.667 -28.5 66.5 -43.5 95.5s-32.833 54 -53.5 75s-45 37.333 -73 49s-61.667 17.5 -101 17.5h-115v-551c0 -5.33301 -1.5 -10 -4.5 -14s-7.66699 -7.16699 -14 -9.5s-15 -4.33301 -26 -6s-24.833 -2.5 -41.5 -2.5s-30.5 0.833008 -41.5 2.5s-19.833 3.66699 -26.5 6
s-11.334 5.5 -14.001 9.5s-4 8.66699 -4 14v1198c0 26 6.83301 44.167 20.5 54.5s28.167 15.5 43.5 15.5h275c32.667 0 59.834 -0.833008 81.501 -2.5s41.167 -3.5 58.5 -5.5c50 -8.66699 94.167 -22.334 132.5 -41.001s70.5 -42.334 96.5 -71.001s45.5 -61.5 58.5 -98.5
s19.5 -77.833 19.5 -122.5c0 -43.333 -5.83301 -82.166 -17.5 -116.499s-28.5 -64.666 -50.5 -90.999s-48.333 -49.166 -79 -68.499s-65 -35.666 -103 -48.999c21.333 -9.33301 40.666 -21.166 57.999 -35.499s33.5 -31.5 48.5 -51.5s29.167 -43 42.5 -69
s26.666 -55.333 39.999 -88l116 -285c9.33301 -24 15.333 -40.833 18 -50.5s4 -17.167 4 -22.5zM776.004 934.997c0 50.667 -11.333 93.499 -34 128.499s-60.667 60.167 -114 75.5c-16.667 4.66699 -35.5 8 -56.5 10s-48.5 3 -82.5 3h-145v-436h168
c45.333 0 84.5 5.5 117.5 16.5s60.5 26.333 82.5 46s38.167 42.834 48.5 69.501s15.5 55.667 15.5 87z" />
    <glyph glyph-name="S" unicode="S" horiz-adv-x="941" 
d="M867 363c0 -60.667 -11.1631 -114.672 -33.4961 -162.005s-53.333 -87.5 -93 -120.5s-86.334 -57.833 -140.001 -74.5s-111.5 -25 -173.5 -25c-43.333 0 -83.5 3.66699 -120.5 11s-70 16.333 -99 27s-53.333 21.667 -73 33s-33.334 21 -41.001 29
s-13.334 18.167 -17.001 30.5s-5.5 28.833 -5.5 49.5c0 14.667 0.666992 26.834 2 36.501s3.33301 17.5 6 23.5s6 10.167 10 12.5s8.66699 3.5 14 3.5c9.33301 0 22.5 -5.66699 39.5 -17s38.833 -23.666 65.5 -36.999s58.834 -25.833 96.501 -37.5s81.167 -17.5 130.5 -17.5
c37.333 0 71.5 5 102.5 15s57.667 24.167 80 42.5s39.5 40.833 51.5 67.5s18 57 18 91c0 36.667 -8.33301 68 -25 94s-38.667 48.833 -66 68.5s-58.5 37.667 -93.5 54l-107.5 50c-36.667 17 -72.334 35.833 -107.001 56.5s-65.667 45 -93 73s-49.5 60.833 -66.5 98.5
s-25.5 82.834 -25.5 135.501c0 54 9.83301 102.167 29.5 144.5s47 77.833 82 106.5s76.667 50.5 125 65.5s100.5 22.5 156.5 22.5c28.667 0 57.5 -2.5 86.5 -7.5s56.333 -11.667 82 -20s48.5 -17.666 68.5 -27.999s33.167 -18.666 39.5 -24.999s10.5 -11.333 12.5 -15
s3.66699 -8.33398 5 -14.001s2.33301 -12.5 3 -20.5s1 -18.333 1 -31c0 -12 -0.5 -22.667 -1.5 -32s-2.5 -17.166 -4.5 -23.499s-4.83301 -11 -8.5 -14s-7.83398 -4.5 -12.501 -4.5c-7.33301 0 -18.833 4.66699 -34.5 14s-34.834 19.833 -57.501 31.5
s-49.5 22.334 -80.5 32.001s-65.833 14.5 -104.5 14.5c-36 0 -67.333 -4.83301 -94 -14.5s-48.667 -22.5 -66 -38.5s-30.333 -35 -39 -57s-13 -45.333 -13 -70c0 -36 8.33301 -67 25 -93s38.834 -49 66.501 -69s59.167 -38.333 94.5 -55l108 -50.5
c36.667 -17 72.667 -35.667 108 -56s66.833 -44.333 94.5 -72s50 -60.334 67 -98.001s25.5 -82.167 25.5 -133.5z" />
    <glyph glyph-name="T" unicode="T" horiz-adv-x="998" 
d="M983 1220c0 -12.667 -0.665039 -23.667 -1.99805 -33s-3.5 -16.833 -6.5 -22.5s-6.66699 -9.83398 -11 -12.501s-9.16602 -4 -14.499 -4h-364v-1122c0 -5.33301 -1.33301 -10 -4 -14s-7.33398 -7.16699 -14.001 -9.5s-15.5 -4.33301 -26.5 -6s-24.833 -2.5 -41.5 -2.5
c-16 0 -29.667 0.833008 -41 2.5s-20.333 3.66699 -27 6s-11.334 5.5 -14.001 9.5s-4 8.66699 -4 14v1122h-364c-5.33301 0 -10.166 1.33301 -14.499 4s-7.83301 6.83398 -10.5 12.501s-4.83398 13.167 -6.50098 22.5s-2.5 20.333 -2.5 33s0.833008 23.834 2.5 33.501
s3.83398 17.5 6.50098 23.5s6.16699 10.333 10.5 13s9.16602 4 14.499 4h900c5.33301 0 10.166 -1.33301 14.499 -4s8 -7 11 -13s5.16699 -13.833 6.5 -23.5s2 -20.834 2 -33.501z" />
    <glyph glyph-name="U" unicode="U" horiz-adv-x="1314" 
d="M1145 478c0 -78.667 -11.5029 -148.83 -34.5029 -210.497s-55.833 -113.834 -98.5 -156.501s-94.667 -75 -156 -97s-131 -33 -209 -33c-71.333 0 -136.333 10.333 -195 31s-109 51.167 -151 91.5s-74.333 90.833 -97 151.5s-34 130.667 -34 210v803
c0 5.33301 1.33301 10 4 14s7.33398 7.16699 14.001 9.5s15.334 4.33301 26.001 6s24.667 2.5 42 2.5c16 0 29.667 -0.833008 41 -2.5s20.166 -3.66699 26.499 -6s10.833 -5.5 13.5 -9.5s4 -8.66699 4 -14v-782c0 -60 7.33301 -112.333 22 -157
s35.834 -81.834 63.501 -111.501s61 -52 100 -67s82.833 -22.5 131.5 -22.5c50 0 94.5 7.33301 133.5 22s72 36.667 99 66s47.667 65.666 62 108.999s21.5 94 21.5 152v791c0 5.33301 1.33301 10 4 14s7.33398 7.16699 14.001 9.5s15.5 4.33301 26.5 6s24.833 2.5 41.5 2.5
c16 0 29.5 -0.833008 40.5 -2.5s19.667 -3.66699 26 -6s11 -5.5 14 -9.5s4.5 -8.66699 4.5 -14v-790z" />
    <glyph glyph-name="V" unicode="V" horiz-adv-x="1162" 
d="M695 30c-2.66699 -7.33301 -6.33496 -13.333 -11.002 -18s-11.167 -8.33398 -19.5 -11.001s-19 -4.5 -32 -5.5s-29.167 -1.5 -48.5 -1.5c-14.667 0 -27.5 0.166992 -38.5 0.5s-20.5 1.16602 -28.5 2.49902s-14.833 2.83301 -20.5 4.5s-10.5 3.83398 -14.5 6.50098
s-7.16699 5.83398 -9.5 9.50098s-4.5 8.16699 -6.5 13.5l-423 1202c-5.33301 14.667 -8.16602 26.5 -8.49902 35.5s2.5 15.833 8.5 20.5s15.667 7.66699 29 9s31.333 2 54 2c18.667 0 33.5 -0.5 44.5 -1.5s19.5 -2.83301 25.5 -5.5s10.5 -6.16699 13.5 -10.5
s5.83301 -9.83301 8.5 -16.5l371 -1089h1l361 1087c2 7.33301 4.33301 13.333 7 18s7.33398 8.33398 14.001 11.001s16 4.5 28 5.5s28 1.5 48 1.5c20.667 0 37 -0.833008 49 -2.5s20.167 -4.83398 24.5 -9.50098s6 -11.5 5 -20.5s-4.16699 -20.833 -9.5 -35.5z" />
    <glyph glyph-name="W" unicode="W" horiz-adv-x="1822" 
d="M1411 38c-2.66699 -9.33301 -6.66699 -16.8311 -12 -22.498s-12.666 -10 -21.999 -13s-20.833 -5.16699 -34.5 -6.5s-30.5 -2 -50.5 -2c-20.667 0 -38.167 0.666992 -52.5 2s-26.166 3.5 -35.499 6.5s-16.333 7.33301 -21 13s-8.33398 13.167 -11.001 22.5l-271 977h-2
l-250 -977c-2 -9.33301 -5.33301 -16.833 -10 -22.5s-11.334 -10 -20.001 -13s-19.834 -5.16699 -33.501 -6.5s-31.167 -2 -52.5 -2c-22 0 -40.333 0.666992 -55 2s-26.667 3.5 -36 6.5s-16.5 7.33301 -21.5 13s-8.5 13.167 -10.5 22.5l-342 1195
c-4 15.333 -6.16699 27.333 -6.5 36s2.33398 15.334 8.00098 20.001s14.834 7.66699 27.501 9s29.667 2 51 2c20.667 0 37 -0.5 49 -1.5s21.167 -2.83301 27.5 -5.5s10.666 -6.33398 12.999 -11.001s4.16602 -10.667 5.49902 -18l291 -1084h1l276 1082
c2 7.33301 4.5 13.5 7.5 18.5s7.83301 8.83301 14.5 11.5s16.167 4.66699 28.5 6s28.5 2 48.5 2c18.667 0 33.5 -0.666992 44.5 -2s19.833 -3.33301 26.5 -6s11.5 -6.5 14.5 -11.5s5.5 -11.167 7.5 -18.5l297 -1082h2l285 1083c2 6.66699 4 12.5 6 17.5
s6.16699 8.83301 12.5 11.5s15.333 4.66699 27 6s27.167 2 46.5 2c20 0 35.833 -0.833008 47.5 -2.5s20.167 -4.83398 25.5 -9.50098s7.83301 -11.334 7.5 -20.001s-2.16602 -20.667 -5.49902 -36z" />
    <glyph glyph-name="X" unicode="X" horiz-adv-x="1063" 
d="M996 62c8.66699 -14.667 13.8398 -26.333 15.5068 -35s-0.5 -15.5 -6.5 -20.5s-15.833 -8.33301 -29.5 -10s-31.834 -2.5 -54.501 -2.5c-21.333 0 -38 0.5 -50 1.5s-21.5 2.83301 -28.5 5.5s-12.333 5.83398 -16 9.50098s-6.83398 8.5 -9.50098 14.5l-288 515l-291 -515
c-3.33301 -6 -7 -11 -11 -15s-9.5 -7.16699 -16.5 -9.5s-16.5 -4 -28.5 -5s-28 -1.5 -48 -1.5c-22 0 -39.333 0.833008 -52 2.5s-21.5 5 -26.5 10s-6.66699 11.833 -5 20.5s6.83398 20.334 15.501 35.001l353 595l-337 575c-8 14.667 -13.167 26.5 -15.5 35.5
s-0.833008 16 4.5 21s14.666 8.16699 27.999 9.5s31.666 2 54.999 2c20 0 36.333 -0.5 49 -1.5s22.667 -2.66699 30 -5s12.666 -5.66602 15.999 -9.99902l11 -14.5l278 -484l276 484c3.33301 5.33301 6.66602 10.166 9.99902 14.499s8.16602 7.66602 14.499 9.99902
s15.166 4 26.499 5s26.666 1.5 45.999 1.5c20.667 0 37.5 -0.833008 50.5 -2.5s22.333 -4.83398 28 -9.50098s7.83398 -11.5 6.50098 -20.5s-6 -20.833 -14 -35.5l-336 -571z" />
    <glyph glyph-name="Y" unicode="Y" horiz-adv-x="998" 
d="M585 503l0.00488281 -477c0 -5.33301 -1.33301 -10 -4 -14s-7.33398 -7.16699 -14.001 -9.5s-15.667 -4.33301 -27 -6s-25 -2.5 -41 -2.5c-16.667 0 -30.5 0.833008 -41.5 2.5s-20 3.66699 -27 6s-11.833 5.5 -14.5 9.5s-4 8.66699 -4 14v477l-366 730
c-7.33301 15.333 -11.833 27.333 -13.5 36s0 15.334 5 20.001s14 7.66699 27 9s30.5 2 52.5 2c20 0 36.167 -0.666992 48.5 -2s22.166 -3.16602 29.499 -5.49902s12.833 -5.66602 16.5 -9.99902s7.16699 -9.83301 10.5 -16.5l179 -372l50 -111l51 -117h2l47.5 113.5
l49.5 111.5l180 374c2 6.66699 4.83301 12.334 8.5 17.001s8.66699 8.16699 15 10.5s15.166 4.16602 26.499 5.49902s25.666 2 42.999 2c24 0 42.833 -0.833008 56.5 -2.5s23.167 -4.83398 28.5 -9.50098s7.16602 -11.334 5.49902 -20.001s-6.16699 -20.334 -13.5 -35.001z
" />
    <glyph glyph-name="Z" unicode="Z" horiz-adv-x="959" 
d="M916 72c0 -12.667 -0.667969 -23.499 -2.00098 -32.499s-3.5 -16.5 -6.5 -22.5s-6.66699 -10.333 -11 -13s-9.5 -4 -15.5 -4h-764c-17.333 0 -31.333 5.33301 -42 16s-16 27.667 -16 51v37c0 8.66699 0.5 16.667 1.5 24s3.16699 15.166 6.5 23.499s8 17.666 14 27.999
l22 36.5l597 934h-590c-6.66699 0 -12.334 1.33301 -17.001 4s-8.5 6.83398 -11.5 12.501s-5.16699 13 -6.5 22s-2 19.5 -2 31.5c0 13.333 0.666992 24.666 2 33.999s3.5 17 6.5 23s6.83301 10.333 11.5 13s10.334 4 17.001 4h720c18 0 32.167 -5.16699 42.5 -15.5
s15.5 -26.166 15.5 -47.499v-39c0 -10.667 -0.666992 -20.167 -2 -28.5s-3.66602 -16.833 -6.99902 -25.5s-7.83301 -18 -13.5 -28s-13.167 -21.667 -22.5 -35l-594 -930h632c11.333 0 20 -5.66699 26 -17s9 -30 9 -56z" />
    <glyph glyph-name="bracketleft" unicode="[" horiz-adv-x="628" 
d="M539 -260c0 -22 -2.50195 -37.5 -7.50195 -46.5s-12.167 -13.5 -21.5 -13.5h-256c-8 0 -15.667 1.16699 -23 3.5s-14 6.16602 -20 11.499s-10.833 12.5 -14.5 21.5s-5.5 20.167 -5.5 33.5v1579c0 12.667 1.83301 23.5 5.5 32.5s8.5 16.333 14.5 22s12.667 9.66699 20 12
s15 3.5 23 3.5h256c4 0 7.83301 -1 11.5 -3s6.83398 -5.66699 9.50098 -11s4.66699 -11.833 6 -19.5s2 -17.167 2 -28.5c0 -21.333 -2.5 -36.666 -7.5 -45.999s-12.167 -14 -21.5 -14h-163v-1476h163c4 0 7.83301 -1 11.5 -3s6.83398 -5.5 9.50098 -10.5
s4.66699 -11.333 6 -19s2 -17.167 2 -28.5z" />
    <glyph glyph-name="backslash" unicode="\" horiz-adv-x="791" 
d="M783 -223c4 -11.333 5.99805 -20.3359 5.99805 -27.0029s-2.66699 -11.667 -8 -15s-13.5 -5.66602 -24.5 -6.99902s-25.5 -2 -43.5 -2c-17.333 0 -31.333 0.5 -42 1.5s-19.167 2.33301 -25.5 4s-11.166 4.5 -14.499 8.5s-6 8.66699 -8 14l-605 1659
c-4.66699 11.333 -7 20.333 -7 27s2.66699 11.667 8 15s13.5 5.5 24.5 6.5s25.5 1.5 43.5 1.5c17.333 0 31.333 -0.333008 42 -1s19.334 -2.16699 26.001 -4.5s11.5 -5.16602 14.5 -8.49902s5.5 -7.66602 7.5 -12.999z" />
    <glyph glyph-name="bracketright" unicode="]" horiz-adv-x="628" 
d="M438 -250c0 -13.333 -1.83691 -24.5 -5.50391 -33.5s-8.5 -16.167 -14.5 -21.5s-12.833 -9.16602 -20.5 -11.499s-15.5 -3.5 -23.5 -3.5h-255c-9.33301 0 -16.5 4.5 -21.5 13.5s-7.5 24.5 -7.5 46.5c0 11.333 0.5 20.833 1.5 28.5s2.83301 14 5.5 19
s5.83398 8.5 9.50098 10.5s7.83398 3 12.501 3h163v1476h-163c-9.33301 0 -16.5 4.66699 -21.5 14s-7.5 24.666 -7.5 45.999c0 11.333 0.5 20.833 1.5 28.5s2.83301 14.167 5.5 19.5s5.83398 9 9.50098 11s7.83398 3 12.501 3h255c8 0 15.833 -1.16699 23.5 -3.5
s14.5 -6.33301 20.5 -12s10.833 -13 14.5 -22s5.5 -19.833 5.5 -32.5v-1579z" />
    <glyph glyph-name="asciicircum" unicode="^" horiz-adv-x="1020" 
d="M900 624c5.33301 -12.667 8.33496 -22.832 9.00195 -30.499s-1.66602 -13.5 -6.99902 -17.5s-13.833 -6.5 -25.5 -7.5s-27.167 -1.5 -46.5 -1.5c-17.333 0 -31.833 0.5 -43.5 1.5s-21.167 2.83301 -28.5 5.5s-12.833 6 -16.5 10s-6.83398 8.66699 -9.50098 14l-232 551
l-3 -3l-219 -548c-2 -5.33301 -4.83301 -10 -8.5 -14s-9.16699 -7.33301 -16.5 -10s-16.5 -4.5 -27.5 -5.5s-25.167 -1.5 -42.5 -1.5c-19.333 0 -34.5 0.5 -45.5 1.5s-19 3.66699 -24 8s-7.33301 10.166 -7 17.499s3.16602 17.333 8.49902 30l284 648
c2 6 5.66699 11.167 11 15.5s12.166 7.83301 20.499 10.5s18.5 4.66699 30.5 6s26 2 42 2c17.333 0 32 -0.666992 44 -2s22 -3.33301 30 -6s14.667 -6.16699 20 -10.5s9.33301 -9.5 12 -15.5z" />
    <glyph glyph-name="underscore" unicode="_" horiz-adv-x="1020" 
d="M1024 -298c0 -23.333 -2.66895 -40.332 -8.00195 -50.999s-13.666 -16 -24.999 -16h-963c-11.333 0 -20 5 -26 15s-9 26.667 -9 50c0 22.667 3 39.667 9 51s14.667 17 26 17h963c10.667 0 18.834 -5.33301 24.501 -16s8.5 -27.334 8.5 -50.001z" />
    <glyph glyph-name="grave" unicode="`" horiz-adv-x="596" 
d="M455 1134c4.66699 -7.33301 7.66895 -13.666 9.00195 -18.999s0.166016 -9.66602 -3.50098 -12.999s-9.66699 -6 -18 -8s-19.833 -3 -34.5 -3c-13.333 0 -24.333 0.5 -33 1.5s-16.167 2.66699 -22.5 5s-11.833 5.5 -16.5 9.5s-9.33398 9.33301 -14.001 16l-181 233
c-5.33301 6 -8.33301 11.833 -9 17.5s1.33301 10.667 6 15s12.834 7.66602 24.501 9.99902s26.834 3.5 45.501 3.5c16 0 29.5 -0.666992 40.5 -2s20.167 -3.33301 27.5 -6s13.666 -6.33398 18.999 -11.001s10.666 -10.667 15.999 -18zM0.00195312 951z" />
    <glyph glyph-name="a" unicode="a" horiz-adv-x="981" 
d="M831 24c0 -8 -2.6748 -14.002 -8.00781 -18.002s-12.666 -7 -21.999 -9s-23 -3 -41 -3c-17.333 0 -31.166 1 -41.499 3s-17.833 5 -22.5 9s-7 10 -7 18v90c-39.333 -42 -83.166 -74.667 -131.499 -98s-99.5 -35 -153.5 -35c-47.333 0 -90.166 6.16699 -128.499 18.5
s-71 30.166 -98 53.499s-48 52 -63 86s-22.5 72.667 -22.5 116c0 50.667 10.333 94.667 31 132s50.334 68.333 89.001 93s86 43.167 142 55.5s119 18.5 189 18.5h124v70c0 34.667 -3.66699 65.334 -11 92.001s-19.166 48.834 -35.499 66.501s-37.5 31 -63.5 40
s-58 13.5 -96 13.5c-40.667 0 -77.167 -4.83301 -109.5 -14.5s-60.666 -20.334 -84.999 -32.001s-44.666 -22.334 -60.999 -32.001s-28.5 -14.5 -36.5 -14.5c-5.33301 0 -10 1.33301 -14 4s-7.5 6.66699 -10.5 12s-5.16699 12.166 -6.5 20.499s-2 17.5 -2 27.5
c0 16.667 1.16699 29.834 3.5 39.501s8 18.834 17 27.501s24.5 18.834 46.5 30.501s47.333 22.334 76 32.001s60 17.667 94 24s68.333 9.5 103 9.5c64.667 0 119.667 -7.33301 165 -22s82 -36.167 110 -64.5s48.333 -63.5 61 -105.5s19 -91 19 -147v-607zM666.992 434.998
l-141.001 0.000976562c-45.333 0 -84.666 -3.83301 -117.999 -11.5s-61 -19 -83 -34s-38.167 -33 -48.5 -54s-15.5 -45.167 -15.5 -72.5c0 -46.667 14.833 -83.834 44.5 -111.501s71.167 -41.5 124.5 -41.5c43.333 0 83.5 11 120.5 33s75.833 55.667 116.5 101v191z" />
    <glyph glyph-name="b" unicode="b" 
d="M981 487c0 -78 -8.50195 -148.167 -25.502 -210.5s-42 -115.5 -75 -159.5s-73.5 -77.667 -121.5 -101s-103 -35 -165 -35c-28.667 0 -55.167 2.83301 -79.5 8.5s-48.166 14.834 -71.499 27.501s-46.666 28.667 -69.999 48s-48 42.666 -74 69.999v-110
c0 -5.33301 -1.33301 -10 -4 -14s-7 -7.16699 -13 -9.5s-13.5 -4.16602 -22.5 -5.49902s-20.5 -2 -34.5 -2c-13.333 0 -24.666 0.666992 -33.999 2s-17 3.16602 -23 5.49902s-10 5.5 -12 9.5s-3 8.66699 -3 14v1336c0 5.33301 1.16699 10 3.5 14s6.66602 7.33301 12.999 10
s14.833 4.66699 25.5 6s24 2 40 2c16.667 0 30.334 -0.666992 41.001 -2s19 -3.33301 25 -6s10.333 -6 13 -10s4 -8.66699 4 -14v-539c26.667 27.333 52.5 50.333 77.5 69s49.5 33.834 73.5 45.501s48 20.167 72 25.5s49.333 8 76 8c65.333 0 121.166 -13 167.499 -39
s84 -60.833 113 -104.5s50.167 -94.834 63.5 -153.501s20 -120.667 20 -186zM806.998 468c0 46 -3.49512 90.6689 -10.4951 134.002s-19.167 81.666 -36.5 114.999s-40.333 60.166 -69 80.499s-64.334 30.5 -107.001 30.5c-21.333 0 -42.333 -3 -63 -9s-41.667 -16 -63 -30
s-43.5 -32 -66.5 -54s-47.5 -49.667 -73.5 -83v-359c45.333 -55.333 88.666 -97.5 129.999 -126.5s84.333 -43.5 129 -43.5c41.333 0 76.666 10 105.999 30s53.166 46.5 71.499 79.5s31.666 70 39.999 111s12.5 82.5 12.5 124.5z" />
    </font>
</defs>
</svg>
